<?xml version="1.0" encoding="utf-8"?>
<!-- Generator: Adobe Illustrator 21.1.0, SVG Export Plug-In . SVG Version: 6.00 Build 0)  -->
<svg version="1.1" xmlns="http://www.w3.org/2000/svg" xmlns:xlink="http://www.w3.org/1999/xlink" x="0px" y="0px"
	 viewBox="0 0 1920 1080" style="enable-background:new 0 0 1920 1080;" xml:space="preserve">
<style type="text/css">
	.st0{display:none;}
	.st1{fill:#E7ECED;}
	.st2{fill:#AFB6BB;}
	.st3{fill:#7F868A;}
	.st4{fill:#7E8488;}
	.st5{fill:#31C0D8;}
	.st6{fill:#8B9296;}
	.st7{fill:#A67C52;}
	.st8{fill:#7B8185;}
	.st9{fill:#8E9499;}
	.st10{fill:#8C6239;}
	.st11{fill:#8F969A;}
	.st12{fill:#F4661E;}
	.st13{fill:#8A9095;}
	.st14{fill:#231F20;}
	.st15{fill:#959BA0;}
	.st16{fill:#FFD248;}
	.st17{fill:#9AA1A6;}
	.st18{fill:#546A79;}
	.st19{fill:#C69C6D;}
	.st20{fill:#888F93;}
	.st21{fill:#FFD147;}
	.st22{fill:#FBB246;}
	.st23{fill:#EADECA;}
	.st24{fill:#202020;}
</style>
<g id="guide" class="st0">
</g>
<g id="Layer_2">
	<g>
		<rect x="1016.11" y="690.18" class="st1" width="5.77" height="7.22"/>
		<rect x="1013.23" y="680.07" class="st2" width="11.55" height="10.1"/>
		<path class="st2" d="M1008.18,708.94v-4.33h21.65v11.55h-21.65V708.94z M1008.18,708.94"/>
		<rect x="995.91" y="716.15" class="st3" width="46.19" height="5.77"/>
		<rect x="985.08" y="721.93" class="st2" width="67.84" height="12.99"/>
		<path class="st2" d="M1052.92,667.08v12.99h-23.81v-7.22h-20.21v7.22h-23.81v-12.99H1052.92z M1052.92,667.08"/>
		<path class="st1" d="M1048.59,680.07v41.86h-6.49v-5.77h-12.27v-11.55h-21.65v11.55h-12.27v5.77h-6.49v-41.86h23.81v10.1h2.89
			v7.22h5.77v-7.22h2.89v-10.1H1048.59z M1048.59,680.07"/>
		<rect x="1008.9" y="672.86" class="st1" width="20.21" height="7.22"/>
		<path d="M1054,681.15V666h-70v15.15h4.33v39.69H984V736h70v-15.15h-4.33v-39.69H1054z M986.16,678.99v-10.82h65.67v10.82h-21.65
			v-7.22h-22.37v7.22H986.16z M1041.01,717.24v3.61h-44.02v-3.61H1041.01z M1009.26,710.02h9.02v-2.16h-9.02v-2.16h19.48v9.38
			h-19.48V710.02z M1030.91,715.07v-11.55h-23.81v11.55h-12.27v5.77h-4.33v-39.69h4.33v30.67h2.16v-30.67h15.15v10.1h2.89v7.22h7.94
			v-7.22h2.89v-10.1h15.15v30.67h2.17v-30.67h4.33v39.69h-4.33v-5.77H1030.91z M1009.98,678.99v-5.05h18.04v5.05H1009.98z
			 M1014.31,689.09v-7.94h9.38v7.94H1014.31z M1020.8,691.26v5.05h-3.61v-5.05H1020.8z M1051.84,723.01v10.82h-65.67v-10.82H1051.84
			z M1051.84,723.01"/>
		<rect x="1041.37" y="672.49" width="7.22" height="2.16"/>
		<rect x="989.41" y="672.49" width="7.22" height="2.16"/>
		<rect x="999.52" y="672.49" width="2.89" height="2.16"/>
		<rect x="1035.6" y="672.49" width="2.89" height="2.16"/>
		<rect x="1011.06" y="726.62" width="15.88" height="2.16"/>
		<rect x="1021.16" y="707.86" width="2.89" height="2.16"/>
	</g>
	<g>
		<path class="st1" d="M1510.44,346.87h13.03v9.77h-6.52v-4.89h-6.52V346.87z M1510.44,346.87"/>
		<rect x="1562.56" y="346.87" class="st1" width="6.52" height="9.77"/>
		<path class="st2" d="M1523.47,346.87h-13.03v4.89h6.52v4.89h6.52V346.87z M1521.03,335.47h52.12c0.9,0,1.63,0.73,1.63,1.63v24.43
			c0,0.9-0.73,1.63-1.63,1.63h-73.3c-0.9,0-1.63-0.73-1.63-1.63V337.1c0-0.9,0.73-1.63,1.63-1.63H1521.03z M1569.08,346.87h-6.52
			v9.77h6.52V346.87z M1569.08,346.87"/>
		<rect x="1501.48" y="363.16" class="st1" width="70.04" height="6.52"/>
		<rect x="1516.14" y="375.38" class="st4" width="40.72" height="10.59"/>
		<path class="st2" d="M1501.48,386.78v-17.1h70.04v17.1H1501.48z M1516.14,385.96h40.72v-10.59h-40.72V385.96z M1516.14,385.96"/>
		<rect x="1551.97" y="328.14" class="st1" width="8.14" height="7.33"/>
		<rect x="1512.88" y="328.14" class="st1" width="8.14" height="7.33"/>
		<rect x="1502.29" y="323.25" class="st1" width="29.32" height="4.89"/>
		<rect x="1541.39" y="323.25" class="st1" width="29.32" height="4.89"/>
		<rect x="1502.29" y="310.22" class="st5" width="29.32" height="13.03"/>
		<rect x="1541.39" y="310.22" class="st5" width="29.32" height="13.03"/>
		<path d="M1573.15,334.25h-11.81v-4.89h10.59V309h-31.76v20.36h10.59v4.89h-28.51v-4.89h10.59V309h-31.76v20.36h10.59v4.89h-11.81
			c-1.57,0-2.85,1.28-2.85,2.85v24.43c0,1.57,1.28,2.85,2.85,2.85h0.41V388h72.48v-23.62h0.41c1.57,0,2.85-1.28,2.85-2.85V337.1
			C1576,335.53,1574.72,334.25,1573.15,334.25L1573.15,334.25z M1569.48,311.44v10.59h-26.88v-10.59H1569.48z M1542.61,324.47h26.88
			v2.44h-26.88V324.47z M1553.2,329.36h5.7v4.89h-5.7V329.36z M1530.39,311.44v10.59h-26.88v-10.59H1530.39z M1503.52,324.47h26.88
			v2.44h-26.88V324.47z M1514.1,329.36h5.7v4.89h-5.7V329.36z M1517.36,384.74v-8.14h38.28v8.14H1517.36z M1570.3,385.56h-4.07
			v-8.55h-2.44v8.55h-5.7v-11.4h-43.17v11.4h-5.7v-8.55h-2.44v8.55h-4.07V370.9h67.6V385.56z M1502.7,368.45v-4.07h67.6v4.07H1502.7
			z M1573.56,361.53c0,0.22-0.19,0.41-0.41,0.41h-73.3c-0.22,0-0.41-0.19-0.41-0.41V337.1c0-0.22,0.19-0.41,0.41-0.41h35.43v19.14
			h2.44v-19.14h35.43c0.22,0,0.41,0.19,0.41,0.41V361.53z M1573.56,361.53"/>
		<rect x="1502.29" y="340.76" width="3.26" height="2.44"/>
		<rect x="1508.81" y="340.76" width="3.26" height="2.44"/>
		<rect x="1515.32" y="340.76" width="3.26" height="2.44"/>
		<rect x="1521.84" y="340.76" width="3.26" height="2.44"/>
		<rect x="1528.36" y="340.76" width="3.26" height="2.44"/>
		<rect x="1502.29" y="345.65" width="3.26" height="2.44"/>
		<rect x="1528.36" y="345.65" width="3.26" height="2.44"/>
		<rect x="1502.29" y="350.54" width="3.26" height="2.44"/>
		<rect x="1528.36" y="350.54" width="3.26" height="2.44"/>
		<rect x="1502.29" y="355.42" width="3.26" height="2.44"/>
		<rect x="1508.81" y="355.42" width="3.26" height="2.44"/>
		<rect x="1528.36" y="355.42" width="3.26" height="2.44"/>
		<rect x="1541.39" y="340.76" width="3.26" height="2.44"/>
		<rect x="1547.9" y="340.76" width="3.26" height="2.44"/>
		<rect x="1554.42" y="340.76" width="3.26" height="2.44"/>
		<rect x="1560.93" y="340.76" width="3.26" height="2.44"/>
		<rect x="1567.45" y="340.76" width="3.26" height="2.44"/>
		<rect x="1541.39" y="345.65" width="3.26" height="2.44"/>
		<rect x="1547.9" y="345.65" width="3.26" height="2.44"/>
		<rect x="1554.42" y="345.65" width="3.26" height="2.44"/>
		<rect x="1541.39" y="350.54" width="3.26" height="2.44"/>
		<rect x="1547.9" y="350.54" width="3.26" height="2.44"/>
		<rect x="1554.42" y="350.54" width="3.26" height="2.44"/>
		<rect x="1541.39" y="355.42" width="3.26" height="2.44"/>
		<rect x="1547.9" y="355.42" width="3.26" height="2.44"/>
		<rect x="1554.42" y="355.42" width="3.26" height="2.44"/>
		<path d="M1561.34,357.87h8.96v-12.22h-8.96V357.87z M1563.78,348.09h4.07v7.33h-4.07V348.09z M1563.78,348.09"/>
		<path d="M1509.22,352.98h6.52v4.89h8.96v-12.22h-15.47V352.98z M1511.66,348.09h10.59v7.33h-4.07v-4.89h-6.52V348.09z
			 M1511.66,348.09"/>
		<rect x="1534.06" y="379.04" width="4.89" height="2.44"/>
	</g>
	<g>
		<path class="st6" d="M1237.55,391.34c0,1.6-0.42,3-1.17,4.19c-1.09,1.75-2.86,3.03-4.96,3.7v20.16h-5.26v-20.16
			c-2.16-0.28-3.96-1.68-5.05-3.63c-0.68-1.24-1.09-2.72-1.09-4.26c0-4.84,3.93-8.76,8.76-8.76S1237.55,386.5,1237.55,391.34
			L1237.55,391.34z M1237.55,391.34"/>
		<path class="st6" d="M1198.99,391.34c0,1.6-0.42,3-1.17,4.19c-1.09,1.75-2.86,3.03-4.96,3.7v20.16h-5.26v-20.16
			c-2.16-0.28-3.96-1.68-5.05-3.63c-0.68-1.24-1.09-2.72-1.09-4.26c0-4.84,3.93-8.76,8.76-8.76
			C1195.06,382.57,1198.99,386.5,1198.99,391.34L1198.99,391.34z M1198.99,391.34"/>
		<path class="st2" d="M1192.85,419.38v-16.44c7.47,1.26,13.15,7.75,13.15,15.56c0,8.71-7.06,15.78-15.78,15.78
			c-8.71,0-15.78-7.06-15.78-15.78c0-7.82,5.68-14.3,13.15-15.56v16.44H1192.85z M1192.85,419.38"/>
		<path class="st2" d="M1231.42,419.38v-16.44c7.47,1.26,13.15,7.75,13.15,15.56c0,8.71-7.06,15.78-15.78,15.78
			s-15.78-7.06-15.78-15.78c0-7.82,5.68-14.3,13.15-15.56v16.44H1231.42z M1231.42,419.38"/>
		<path class="st1" d="M1179.71,442.17h-7.89c-1.93,0-3.51-1.58-3.51-3.51v-39.44c0-1.93,1.58-3.51,3.51-3.51h10.52l0.21-0.12
			c1.09,1.95,2.89,3.35,5.05,3.63v3.72c-7.47,1.26-13.15,7.75-13.15,15.56c0,8.71,7.06,15.78,15.78,15.78
			c8.71,0,15.78-7.06,15.78-15.78c0-7.82-5.68-14.3-13.15-15.56v-3.72c2.1-0.67,3.87-1.95,4.96-3.7l0.3,0.19h22.79l0.21-0.12
			c1.09,1.95,2.89,3.35,5.05,3.63v3.72c-7.47,1.26-13.15,7.75-13.15,15.56c0,8.71,7.06,15.78,15.78,15.78s15.78-7.06,15.78-15.78
			c0-7.82-5.68-14.3-13.15-15.56v-3.72c2.1-0.67,3.87-1.95,4.96-3.7l0.3,0.19h10.52c1.93,0,3.51,1.58,3.51,3.51v39.44
			c0,1.93-1.58,3.51-3.51,3.51H1179.71z M1179.71,442.17"/>
		<rect x="1179.71" y="442.17" class="st2" width="59.6" height="10.52"/>
		<path d="M1247.19,394.4h-8.83c0.33-0.96,0.5-1.99,0.5-3.07c0-5.56-4.52-10.08-10.08-10.08s-10.08,4.52-10.08,10.08
			c0,1.04,0.16,2.08,0.47,3.07h-19.38c0.33-0.96,0.5-1.99,0.5-3.07c0-5.56-4.52-10.08-10.08-10.08s-10.08,4.52-10.08,10.08
			c0,1.04,0.16,2.08,0.47,3.07h-8.8c-2.66,0-4.82,2.16-4.82,4.82v39.44c0,2.66,2.16,4.82,4.82,4.82h6.57V454h62.23v-10.52h6.57
			c2.66,0,4.82-2.16,4.82-4.82v-39.44C1252.01,396.57,1249.85,394.4,1247.19,394.4L1247.19,394.4z M1228.79,383.89
			c4.11,0,7.45,3.34,7.45,7.45c0,1.29-0.33,2.47-0.98,3.5c-0.89,1.44-2.4,2.55-4.24,3.14l-0.92,0.29v19.81h-2.63v-20l-1.15-0.15
			c-1.65-0.22-3.14-1.3-4.07-2.96c-0.6-1.1-0.92-2.35-0.92-3.63C1221.34,387.23,1224.68,383.89,1228.79,383.89L1228.79,383.89z
			 M1224.84,418.07h-3.94v2.63h15.78v-2.63h-3.94v-13.48c6.18,1.74,10.52,7.36,10.52,13.92c0,7.97-6.49,14.46-14.46,14.46
			s-14.46-6.49-14.46-14.46c0-6.56,4.34-12.18,10.52-13.92V418.07z M1190.22,383.89c4.11,0,7.45,3.34,7.45,7.45
			c0,1.29-0.33,2.47-0.98,3.5c-0.89,1.44-2.4,2.55-4.24,3.14l-0.92,0.29v19.81h-2.63v-20l-1.15-0.15c-1.65-0.22-3.14-1.3-4.07-2.96
			c-0.6-1.1-0.92-2.35-0.92-3.63C1182.78,387.23,1186.12,383.89,1190.22,383.89L1190.22,383.89z M1186.28,418.07h-3.94v2.63h15.78
			v-2.63h-3.94v-13.48c6.18,1.74,10.52,7.36,10.52,13.92c0,7.97-6.49,14.46-14.46,14.46s-14.46-6.49-14.46-14.46
			c0-6.56,4.34-12.18,10.52-13.92V418.07z M1237.99,451.37h-56.97v-7.89h56.97V451.37z M1249.38,438.66c0,1.21-0.98,2.19-2.19,2.19
			h-36.37v-9.2h-2.63v9.2h-36.37c-1.21,0-2.19-0.98-2.19-2.19v-39.44c0-1.21,0.98-2.19,2.19-2.19h10.08
			c1.12,1.6,2.65,2.74,4.38,3.25v1.58c-7.68,1.81-13.15,8.64-13.15,16.64c0,9.42,7.67,17.09,17.09,17.09
			c9.42,0,17.09-7.67,17.09-17.09c0-8-5.47-14.82-13.15-16.64v-1.73c1.7-0.7,3.14-1.77,4.19-3.11h9.83v9.2h2.63v-9.2h9.64
			c1.12,1.6,2.65,2.74,4.38,3.25v1.58c-7.68,1.81-13.15,8.64-13.15,16.64c0,9.42,7.67,17.09,17.09,17.09s17.09-7.67,17.09-17.09
			c0-8-5.47-14.82-13.15-16.64v-1.73c1.7-0.7,3.14-1.77,4.19-3.11h10.27c1.21,0,2.19,0.98,2.19,2.19V438.66z M1249.38,438.66"/>
		<rect x="1184.09" y="446.11" width="22.79" height="2.63"/>
		<rect x="1212.14" y="446.11" width="22.79" height="2.63"/>
	</g>
	<g>
		<rect x="1521.95" y="141.85" class="st1" width="10.18" height="12.21"/>
		<path class="st7" d="M1542.3,141.85v26.46h-30.53v-26.46h10.18v12.21h10.18v-12.21H1542.3z M1542.3,141.85"/>
		<rect x="1561.64" y="139.81" class="st5" width="12.21" height="10.18"/>
		<rect x="1573.85" y="139.81" class="st5" width="12.21" height="10.18"/>
		<rect x="1573.85" y="156.09" class="st5" width="12.21" height="10.18"/>
		<rect x="1561.64" y="156.09" class="st5" width="12.21" height="10.18"/>
		<path class="st8" d="M1593.18,184.54v22.43h-6.11v-20.35h4.07C1592.27,186.62,1593.18,185.68,1593.18,184.54L1593.18,184.54z
			 M1593.18,184.54"/>
		<path class="st8" d="M1560.62,186.62v20.35h-6.11v-22.39c0.02,1.12,0.94,2.03,2.03,2.03H1560.62z M1560.62,186.62"/>
		<rect x="1497.53" y="178.48" class="st8" width="6.11" height="28.49"/>
		<path class="st8" d="M1586.06,156.09h-24.42v10.18h24.42V156.09z M1586.06,149.99v-10.18h-24.42v10.18H1586.06z M1593.18,184.54
			c0,1.14-0.92,2.08-2.03,2.08h-34.6c-1.1,0-2.02-0.92-2.03-2.04v-49.82c0-1.14,0.92-2.08,2.03-2.08h34.6
			c1.12,0,2.03,0.94,2.03,2.08V184.54z M1593.18,184.54"/>
		<rect x="1561.64" y="123.53" class="st2" width="24.42" height="9.16"/>
		<rect x="1497.53" y="168.3" class="st2" width="56.98" height="10.18"/>
		<path d="M1591.15,131.16h-3.56V122h-27.48v9.16h-3.56c-1.97,0-3.56,1.62-3.56,3.61v32.01h-9.15v-26.46h-33.59v26.46H1496v41.73
			h9.16v-28.49h47.82v28.49h9.16v-20.35h23.4v20.35h9.16v-73.74C1594.71,132.78,1593.11,131.16,1591.15,131.16L1591.15,131.16z
			 M1563.17,125.06h21.36v6.1h-21.36V125.06z M1523.48,143.37h7.12v9.15h-7.12V143.37z M1513.3,143.37h7.12v12.21h13.23v-12.21h7.12
			v23.4h-27.47V143.37z M1502.11,205.44h-3.05v-25.43h3.05V205.44z M1499.06,176.95v-7.12h53.93v7.12H1499.06z M1559.09,205.44
			h-3.05v-17.33c0.17,0.02,3.05,0.04,3.05,0.04V205.44z M1588.61,205.44v-17.29c0,0,2.88-0.02,3.05-0.04v17.33H1588.61z
			 M1591.65,184.54c0,0.3-0.23,0.55-0.51,0.55h-34.6c-0.26,0-0.5-0.24-0.51-0.52v-49.8c0-0.3,0.23-0.55,0.51-0.55h34.6
			c0.27,0,0.51,0.25,0.51,0.55V184.54z M1591.65,184.54"/>
		<path d="M1587.59,154.56h-27.48v13.23h27.48V154.56z M1563.17,157.62h9.15v7.12h-9.15V157.62z M1584.53,164.74h-9.15v-7.12h9.15
			L1584.53,164.74L1584.53,164.74z M1584.53,164.74"/>
		<path d="M1587.59,138.28h-27.48v13.23h27.48V138.28z M1563.17,141.34h9.15v7.12h-9.15V141.34z M1584.53,148.46h-9.15v-7.12h9.15
			L1584.53,148.46L1584.53,148.46z M1584.53,148.46"/>
		<rect x="1584.02" y="172.88" width="4.07" height="3.06"/>
		<rect x="1577.92" y="172.88" width="4.07" height="3.06"/>
		<rect x="1574.86" y="178.98" width="13.23" height="3.06"/>
	</g>
	<g>
		<rect x="1698.29" y="392.86" class="st1" width="8" height="27.43"/>
		<rect x="1788.57" y="392.86" class="st1" width="8" height="27.43"/>
		<rect x="1698.29" y="383.71" class="st9" width="98.29" height="9.14"/>
		<path class="st2" d="M1774.86,367.71h26.29v13.71c0,1.26-1.03,2.29-2.29,2.29H1696c-1.26,0-2.29-1.03-2.29-2.29v-13.71H1774.86z
			 M1774.86,367.71"/>
		<rect x="1717.71" y="335.71" class="st1" width="11.43" height="16"/>
		<rect x="1742.86" y="344.86" class="st10" width="32" height="22.86"/>
		<path class="st7" d="M1742.86,344.86v22.86H1704v-32h13.71v16h11.43v-16h13.71V344.86z M1742.86,344.86"/>
		<path d="M1776.57,366v-22.86h-32V334h-42.29v32H1692v15.43c0,2.21,1.79,4,4,4h0.57V422H1708v-27.43h78.86V422h11.43v-36.57h0.57
			c2.21,0,4-1.79,4-4V366H1776.57z M1744.57,346.57h28.57V366h-28.57V346.57z M1719.43,337.43h8V350h-8V337.43z M1705.71,337.43
			H1716v16h14.86v-16h10.29V366h-35.43V337.43z M1704.57,418.57H1700v-24h4.57V418.57z M1794.86,418.57h-4.57v-24h4.57V418.57z
			 M1700,391.14v-5.71h94.86v5.71H1700z M1799.43,381.43c0,0.31-0.26,0.57-0.57,0.57H1696c-0.31,0-0.57-0.26-0.57-0.57v-12h104
			V381.43z M1799.43,381.43"/>
		<rect x="1744" y="372.86" width="6.86" height="3.43"/>
		<rect x="1757.71" y="372.86" width="6.86" height="3.43"/>
		<rect x="1771.43" y="372.86" width="6.86" height="3.43"/>
		<rect x="1785.14" y="372.86" width="6.86" height="3.43"/>
		<rect x="1702.86" y="372.86" width="6.86" height="3.43"/>
		<rect x="1716.57" y="372.86" width="6.86" height="3.43"/>
		<rect x="1730.29" y="372.86" width="6.86" height="3.43"/>
		<rect x="1764.57" y="352.29" width="4.57" height="3.43"/>
		<rect x="1760" y="359.14" width="9.14" height="3.43"/>
	</g>
	<g>
		<path class="st8" d="M477.13,770.76h14.35V758.8h-28.7v11.96H477.13z M492.68,792.29h-38.27v-59.79c0-1.31,1.08-2.39,2.39-2.39
			h40.66c1.31,0,2.39,1.08,2.39,2.39v59.79H492.68z M491.48,750.43v-11.96h-28.7v11.96H491.48z M491.48,750.43"/>
		<rect x="507.03" y="782.72" class="st11" width="7.18" height="33.48"/>
		<rect x="499.86" y="770.76" class="st2" width="14.35" height="11.96"/>
		<rect x="485.51" y="792.29" class="st11" width="7.18" height="23.92"/>
		<rect x="477.13" y="758.8" class="st5" width="14.35" height="11.96"/>
		<rect x="462.78" y="738.47" class="st5" width="28.7" height="11.96"/>
		<rect x="462.78" y="758.8" class="st5" width="14.35" height="11.96"/>
		<rect x="461.59" y="792.29" class="st11" width="7.18" height="23.92"/>
		<rect x="401.79" y="770.76" class="st2" width="52.62" height="11.96"/>
		<path class="st7" d="M444.85,739.67v31.09h-35.88v-31.09h11.96v14.35h11.96v-14.35H444.85z M444.85,739.67"/>
		<rect x="420.93" y="739.67" class="st1" width="11.96" height="14.35"/>
		<rect x="401.79" y="782.72" class="st11" width="7.18" height="33.48"/>
		<path d="M501.65,768.97v-36.47c0-2.31-1.88-4.19-4.19-4.19H456.8c-2.31,0-4.19,1.88-4.19,4.19v36.47h-5.98v-31.09h-39.46v31.09
			H400V818h10.76v-33.48h41.86v9.57h7.18V818h10.76v-23.92h13.15V818h10.76v-23.92h7.18v-9.57h3.59V818H516v-49.03H501.65z
			 M422.72,741.46h8.37v10.76h-8.37V741.46z M410.76,741.46h8.37v14.35h15.55v-14.35h8.37v27.51h-32.29V741.46z M407.18,814.41
			h-3.59v-29.9h3.59V814.41z M403.59,780.93v-8.37h49.03v8.37H403.59z M466.97,814.41h-3.59v-20.33h3.59V814.41z M490.89,814.41
			h-3.59v-20.33h3.59V814.41z M498.06,790.49h-41.86v-58c0-0.32,0.27-0.6,0.6-0.6h40.66c0.32,0,0.6,0.27,0.6,0.6V790.49z
			 M512.41,814.41h-3.59v-29.9h3.59V814.41z M501.65,780.93v-8.37h10.76v8.37H501.65z M501.65,780.93"/>
		<path d="M493.28,736.68h-32.29v15.55h32.29V736.68z M489.69,748.64h-25.11v-8.37h25.11V748.64z M489.69,748.64"/>
		<path d="M493.28,757.01h-32.29v15.55h32.29V757.01z M464.58,760.6h10.76v8.37h-10.76V760.6z M489.69,768.97h-10.76v-8.37h10.76
			V768.97z M489.69,768.97"/>
		<rect x="489.09" y="776.14" width="4.78" height="3.59"/>
		<rect x="481.92" y="776.14" width="4.78" height="3.59"/>
		<rect x="478.33" y="783.32" width="15.55" height="3.59"/>
	</g>
	<g>
		<rect x="276.71" y="868.98" class="st12" width="42.58" height="9.68"/>
		<path class="st1" d="M314.45,900.92v6.77c0,1.06-0.87,1.94-1.94,1.94h-29.03c-1.06,0-1.94-0.87-1.94-1.94v-6.77H314.45z
			 M314.45,900.92"/>
		<rect x="281.55" y="878.66" class="st13" width="32.9" height="22.26"/>
		<path class="st2" d="M305.53,918.22c1.12,1.12,1.12,2.98,0,4.1l-2.69,2.69v9.27c0.95-0.21,1.95-0.02,2.69,0.72
			c1.12,1.12,1.12,2.98,0,4.1l-2.69,2.69v12.35c0,1.06-0.87,2.9-1.94,2.9h-5.81c-1.06,0-1.93-1.84-1.93-2.9v-3.37
			c-0.95,0.21-1.96,0.02-2.69-0.72c-1.12-1.12-1.12-2.98,0-4.1l2.69-2.69v-9.27c-0.95,0.21-1.96,0-2.69-0.72
			c-1.12-1.14-1.12-2.98,0-4.12l2.69-2.67v-15.89h9.68v6.89C303.79,917.27,304.79,917.48,305.53,918.22L305.53,918.22z
			 M305.53,918.22"/>
		<path class="st14" d="M328,867.53h-60v2.91h7.26v9.68h4.84v27.58c0,1.87,1.52,3.39,3.39,3.39h8.22v14.8l-2.27,2.26
			c-1.67,1.7-1.67,4.46,0,6.16l0.02,0.02c0.62,0.61,1.41,0.99,2.25,1.14v7.2l-2.26,2.26c-0.82,0.82-1.27,1.91-1.27,3.08
			c0,1.17,0.45,2.26,1.27,3.08c0.63,0.63,1.41,1.02,2.26,1.17v1.89c0,1.52,1.16,4.36,3.39,4.36h5.81c2.23,0,3.39-2.84,3.39-4.36
			V942.4l2.26-2.26c1.7-1.7,1.7-4.46,0-6.16c-0.63-0.63-1.41-1.02-2.26-1.17v-7.19l2.26-2.26c1.7-1.7,1.7-4.46,0-6.16
			c-0.62-0.62-1.41-1.02-2.26-1.17v-4.94h8.22c1.87,0,3.39-1.52,3.39-3.39v-27.58h4.84v-9.68H328V867.53z M304.5,919.25
			c0.56,0.55,0.56,1.49,0,2.05l-3.12,3.12v11.69l1.77-0.4c0.31-0.07,0.9-0.12,1.34,0.32c0.56,0.55,0.56,1.49,0,2.05l-3.12,3.12
			v12.95c0,0.46-0.36,1.22-0.62,1.45h-5.53c-0.26-0.23-0.62-0.99-0.62-1.45v-5.19l-1.77,0.4c-0.31,0.07-0.9,0.12-1.34-0.32
			c-0.55-0.55-0.55-1.49,0-2.05l3.12-3.12v-11.69l-1.77,0.4c-0.3,0.07-0.88,0.12-1.35-0.33c-0.55-0.58-0.55-1.5,0-2.06l3.12-3.1
			v-15.04h6.77v7.25l1.77-0.4C303.46,918.83,304.04,918.79,304.5,919.25L304.5,919.25z M312.52,908.17h-29.03
			c-0.26,0-0.48-0.22-0.48-0.48v-5.32H313v5.32C313,907.95,312.78,908.17,312.52,908.17L312.52,908.17z M313,899.46H283v-19.35H313
			V899.46z M317.83,877.2h-39.67v-6.77h39.67V877.2z M317.83,877.2"/>
		<rect x="302.84" y="885.91" class="st14" width="5.81" height="2.91"/>
		<rect x="302.84" y="891.72" class="st14" width="5.81" height="2.91"/>
		<rect x="295.1" y="891.72" class="st14" width="5.81" height="2.91"/>
	</g>
	<g>
		<rect x="1516.14" y="690.79" class="st2" width="18.76" height="60.97"/>
		<rect x="1536.07" y="767" class="st5" width="12.9" height="8.21"/>
		<rect x="1536.07" y="758.79" class="st5" width="12.9" height="8.21"/>
		<rect x="1523.17" y="767" class="st5" width="12.9" height="8.21"/>
		<rect x="1523.17" y="758.79" class="st5" width="12.9" height="8.21"/>
		<rect x="1516.14" y="683.76" class="st1" width="18.76" height="7.03"/>
		<path class="st1" d="M1548.97,758.79h-25.79v16.41h25.79v7.03h-32.83v-30.48h32.83V758.79z M1548.97,758.79"/>
		<path class="st2" d="M1516.14,756.45v25.79h-25.79v-25.79l12.12-8.82l13.67-9.94V756.45z M1516.14,756.45"/>
		<rect x="1483.31" y="683.76" class="st1" width="18.76" height="7.03"/>
		<path class="st1" d="M1490.34,756.45v25.79h-25.79v-25.79l18.97-13.79l6.82-4.97V756.45z M1490.34,756.45"/>
		<path class="st2" d="M1502.07,747.07l0.4,0.56l-12.12,8.82v-18.76l-6.82,4.97l-0.21-0.28v-51.59h18.76V747.07z M1502.07,747.07"/>
		<path class="st2" d="M1464.55,756.45v25.79h-25.79v-25.79l25.79-18.76V756.45z M1464.55,756.45"/>
		<rect x="1445.79" y="764.07" class="st14" width="4.69" height="3.52"/>
		<rect x="1452.83" y="764.07" class="st14" width="4.69" height="3.52"/>
		<rect x="1445.79" y="771.1" class="st14" width="4.69" height="3.52"/>
		<rect x="1452.83" y="771.1" class="st14" width="4.69" height="3.52"/>
		<rect x="1471.59" y="764.07" class="st14" width="4.69" height="3.52"/>
		<rect x="1478.62" y="764.07" class="st14" width="4.69" height="3.52"/>
		<rect x="1471.59" y="771.1" class="st14" width="4.69" height="3.52"/>
		<rect x="1478.62" y="771.1" class="st14" width="4.69" height="3.52"/>
		<rect x="1497.38" y="764.07" class="st14" width="4.69" height="3.52"/>
		<rect x="1504.41" y="764.07" class="st14" width="4.69" height="3.52"/>
		<rect x="1497.38" y="771.1" class="st14" width="4.69" height="3.52"/>
		<rect x="1504.41" y="771.1" class="st14" width="4.69" height="3.52"/>
		<path class="st14" d="M1536.66,750v-64.48h2.93V682h-28.14v3.52h2.93v51.28l-10.55,7.67v-58.95h2.93V682h-28.14v3.52h2.93v56.39
			l-15.24,11.09v-18.76L1437,755.55V784h113.72v-34H1536.66z M1533.14,685.52v3.52h-15.24v-3.52H1533.14z M1517.9,692.55h15.24V750
			h-15.24V692.55z M1500.31,685.52v3.52h-15.24v-3.52H1500.31z M1485.07,692.55h15.24v54.47l-8.21,5.97v-18.76l-7.03,5.12V692.55z
			 M1440.52,780.48v-23.14l22.28-16.2v13.55h-7.62v3.52h7.62v22.28H1440.52z M1466.31,780.48v-23.14l18.25-13.26l4.03-2.94v13.54
			h-7.62v3.52h7.62v22.28H1466.31z M1492.1,780.48v-23.14l22.28-16.2v13.55h-7.62v3.52h7.62v22.28H1492.1z M1517.9,780.48v-26.97
			h29.31v3.52h-25.79v19.93h25.79v3.52H1517.9z M1524.93,768.76h9.38v4.69h-9.38V768.76z M1524.93,765.24v-4.69h9.38v4.69H1524.93z
			 M1537.83,768.76h9.38v4.69h-9.38V768.76z M1537.83,765.24v-4.69h9.38v4.69H1537.83z M1537.83,765.24"/>
	</g>
	<g>
		<rect x="1679.19" y="510.87" class="st1" width="7.79" height="7.79"/>
		<path class="st15" d="M1679.19,518.66V521h-7.02v-12.47h7.02V518.66z M1679.19,518.66"/>
		<path class="st15" d="M1657.24,508.73c2.4,1.33,4.02,3.88,4.02,6.81c0,2.12-0.84,4.05-2.21,5.46c-0.5,0.5-1.06,0.94-1.68,1.29
			c-1.14,0.67-2.48,1.04-3.9,1.04s-2.76-0.37-3.9-1.04c-2.34-1.36-3.9-3.87-3.9-6.75c0-4.3,3.49-7.79,7.79-7.79
			C1654.84,507.75,1656.13,508.11,1657.24,508.73L1657.24,508.73z M1657.24,508.73"/>
		<path class="st15" d="M1657.36,539.98c2.34,1.36,3.9,3.87,3.9,6.75c0,4.3-3.49,7.79-7.79,7.79c-1.76,0-3.38-0.58-4.68-1.56
			c-1.89-1.42-3.12-3.7-3.12-6.24c0-2.54,1.23-4.82,3.12-6.24c0.25-0.19,0.5-0.36,0.78-0.51c1.14-0.67,2.48-1.04,3.9-1.04
			S1656.23,539.31,1657.36,539.98L1657.36,539.98z M1657.36,539.98"/>
		<path class="st1" d="M1657.36,508.53h14.81V521h-13.13c1.37-1.4,2.21-3.34,2.21-5.46c0-2.93-1.62-5.49-4.02-6.81L1657.36,508.53z
			 M1657.36,508.53"/>
		<path class="st1" d="M1657.36,522.3v17.68c-1.14-0.67-2.48-1.04-3.9-1.04s-2.76,0.37-3.9,1.04V522.3c1.14,0.67,2.48,1.04,3.9,1.04
			S1656.23,522.97,1657.36,522.3L1657.36,522.3z M1657.36,522.3"/>
		<path class="st1" d="M1631.64,540.49h17.15c-1.89,1.42-3.12,3.69-3.12,6.24c0,2.54,1.23,4.82,3.12,6.24h-17.15V540.49z
			 M1631.64,540.49"/>
		<path class="st2" d="M1631.64,505.41v54.56h7.79v9.35h-20.27v-73.27h20.27v9.35H1631.64z M1631.64,505.41"/>
		<path d="M1694,513.6h-5.85v-3.9h-7.79v-2.34h-22.99v0.12c-1.2-0.59-2.54-0.9-3.9-0.9c-4.94,0-8.96,4.02-8.96,8.96
			c0,2.96,1.48,5.73,3.9,7.39v16.38h-15.59v-32.74h7.79v-11.69H1618v75.61h22.61v-11.69h-7.79v-4.68h15.6
			c1.48,1.02,3.22,1.56,5.05,1.56c4.94,0,8.96-4.02,8.96-8.96c0-2.95-1.48-5.73-3.9-7.39v-16.39c0.34-0.23,0.67-0.49,0.98-0.77
			h20.85v-2.34h7.79v-3.9h5.85V513.6z M1671.01,509.7v10.13h-9.66c0.7-1.3,1.08-2.76,1.08-4.29c0-2.18-0.79-4.25-2.17-5.85H1671.01z
			 M1646.84,515.55c0-3.65,2.97-6.63,6.63-6.63c1.13,0,2.23,0.29,3.2,0.83l0.01,0.01c2.11,1.16,3.42,3.38,3.42,5.79
			c0,1.75-0.67,3.4-1.87,4.63c-0.44,0.44-0.92,0.81-1.45,1.11c-0.98,0.58-2.12,0.88-3.3,0.88s-2.32-0.31-3.31-0.89
			C1648.08,520.08,1646.84,517.94,1646.84,515.55L1646.84,515.55z M1653.47,537.76c-0.94,0-1.86,0.14-2.73,0.42v-14.09
			c0.87,0.28,1.79,0.42,2.73,0.42c0.94,0,1.86-0.14,2.73-0.42v14.09C1655.32,537.91,1654.4,537.76,1653.47,537.76L1653.47,537.76z
			 M1638.27,561.15v7.02h-17.93v-70.93h17.93v7.02h-14.42v2.34h6.63v52.23h-6.63v2.34H1638.27z M1632.81,541.66h13.27
			c-1.01,1.48-1.58,3.25-1.58,5.07c0,1.82,0.57,3.59,1.58,5.07h-13.27V541.66z M1660.09,546.73c0,3.65-2.97,6.63-6.63,6.63
			c-1.46,0-2.83-0.46-3.97-1.32c-1.66-1.25-2.65-3.23-2.65-5.3s0.99-4.05,2.65-5.3c0.24-0.18,0.44-0.32,0.65-0.43l0.03-0.01
			c0.98-0.58,2.12-0.88,3.3-0.88c1.18,0,2.32,0.31,3.3,0.88l0.01,0C1658.85,542.19,1660.09,544.34,1660.09,546.73L1660.09,546.73z
			 M1673.34,519.83V509.7h4.68v10.13H1673.34z M1685.82,517.49h-5.46v-5.46h5.46V517.49z M1685.82,517.49"/>
		<path d="M1652.3,519.44h2.34v-2.73h2.73v-2.34h-2.73v-2.73h-2.34v2.73h-2.73v2.34h2.73V519.44z M1652.3,519.44"/>
		<path d="M1654.64,542.83h-2.34v2.73h-2.73v2.34h2.73v2.73h2.34v-2.73h2.73v-2.34h-2.73V542.83z M1654.64,542.83"/>
		<rect x="1624.24" y="510.09" width="2.34" height="6.24"/>
		<rect x="1624.24" y="549.06" width="2.34" height="6.24"/>
		<rect x="1624.24" y="519.44" width="2.34" height="26.5"/>
	</g>
	<g>
		<rect x="1059.79" y="474.86" class="st1" width="9.36" height="6.4"/>
		<rect x="1056.98" y="468.16" class="st6" width="14.97" height="6.7"/>
		<path class="st6" d="M1063.53,461.61c-2.55,0-4.87-1.01-6.55-2.66c-0.6-0.6-1.12-1.27-1.55-2.02c-0.8-1.37-1.25-2.98-1.25-4.68
			c0-1.7,0.45-3.31,1.25-4.68c1.63-2.81,4.64-4.68,8.1-4.68c5.17,0,9.36,4.19,9.36,9.36c0,1.65-0.43,3.2-1.18,4.53
			C1070.12,459.66,1067.05,461.61,1063.53,461.61L1063.53,461.61z M1063.53,461.61"/>
		<path class="st6" d="M1026.1,461.61c-5.17,0-9.36-4.19-9.36-9.36c0-2.12,0.69-4.06,1.87-5.62c1.7-2.27,4.44-3.74,7.49-3.74
			c3.05,0,5.78,1.48,7.49,3.74c0.22,0.3,0.43,0.6,0.62,0.94c0.8,1.37,1.25,2.98,1.25,4.68c0,1.7-0.45,3.31-1.25,4.68
			C1032.57,459.74,1029.56,461.61,1026.1,461.61L1026.1,461.61z M1026.1,461.61"/>
		<path class="st1" d="M1071.96,456.93v11.23h-14.97v-9.21c1.68,1.65,4.01,2.66,6.55,2.66c3.52,0,6.59-1.95,8.18-4.83
			L1071.96,456.93z M1071.96,456.93"/>
		<path class="st1" d="M1034.2,447.57h21.23c-0.8,1.37-1.25,2.98-1.25,4.68c0,1.7,0.45,3.31,1.25,4.68h-21.23
			c0.8-1.37,1.25-2.98,1.25-4.68C1035.46,450.55,1035.01,448.94,1034.2,447.57L1034.2,447.57z M1034.2,447.57"/>
		<path class="st1" d="M1033.59,435.41v11.23c-1.7-2.27-4.44-3.74-7.49-3.74c-3.05,0-5.78,1.48-7.49,3.74v-11.23H1033.59z
			 M1033.59,435.41"/>
		<rect x="1054.17" y="493.43" class="st12" width="14.97" height="11.23"/>
		<rect x="1027.97" y="493.43" class="st16" width="14.97" height="11.23"/>
		<rect x="1001.77" y="493.43" class="st5" width="14.97" height="11.23"/>
		<path class="st1" d="M1080.38,511.21v7.49c0,2.06-1.68,3.74-3.74,3.74h-80.48c-2.06,0-3.74-1.68-3.74-3.74v-7.49H1080.38z
			 M1080.38,511.21"/>
		<rect x="992.41" y="504.66" class="st2" width="87.97" height="6.55"/>
		<path d="M1062.13,456.93h2.81v-3.27h3.27v-2.81h-3.27v-3.27h-2.81v3.27h-3.27v2.81h3.27V456.93z M1062.13,456.93"/>
		<path d="M1027.5,447.57h-2.81v3.27h-3.27v2.81h3.27v3.27h2.81v-3.27h3.27v-2.81h-3.27V447.57z M1027.5,447.57"/>
		<path d="M1017.2,446.18c-1.23,1.78-1.87,3.86-1.87,6.07c0,5.94,4.83,10.77,10.76,10.77c3.55,0,6.88-1.77,8.88-4.68h19.68
			c0.28,0.41,0.59,0.8,0.92,1.17v16.76h2.81v6.4h4.68v5.14h2.81v-5.14h4.68v-6.4h2.81v-19.34h-0.14c0.71-1.44,1.08-3.05,1.08-4.68
			c0-5.94-4.83-10.77-10.76-10.77c-3.55,0-6.88,1.78-8.88,4.68h-19.66v-9.35h15.44V434h-48.67v2.81h15.44V446.18z M1032.99,456.23
			c-1.44,2.49-4.02,3.98-6.89,3.98c-4.38,0-7.95-3.57-7.95-7.95c0-1.75,0.55-3.4,1.59-4.77c1.5-1.99,3.88-3.18,6.36-3.18
			c2.49,0,4.86,1.19,6.36,3.18c0.22,0.29,0.38,0.53,0.51,0.78l0.02,0.03c0.69,1.18,1.06,2.55,1.06,3.97
			C1034.05,453.67,1033.68,455.04,1032.99,456.23L1032.99,456.23z M1070.55,466.76h-12.16v-5.04c1.56,0.85,3.32,1.3,5.15,1.3
			c2.62,0,5.1-0.95,7.02-2.61V466.76z M1036.36,448.98h16.92c-0.33,1.05-0.51,2.15-0.51,3.27c0,1.12,0.17,2.23,0.5,3.27h-16.91
			c0.33-1.05,0.51-2.15,0.51-3.27C1036.86,451.13,1036.69,450.02,1036.36,448.98L1036.36,448.98z M1058.39,473.46v-3.89h12.16v3.89
			H1058.39z M1067.74,479.86h-6.55v-3.59h6.55V479.86z M1063.53,444.3c4.39,0,7.95,3.57,7.95,7.95c0,1.35-0.35,2.68-1,3.84
			l-0.01,0.01c-1.4,2.53-4.06,4.1-6.95,4.1c-1.91,0-3.72-0.67-5.14-1.87v-0.13h-0.15c-0.09-0.08-0.18-0.16-0.26-0.25
			c-0.52-0.52-0.97-1.11-1.34-1.74c-0.69-1.18-1.06-2.55-1.06-3.97c0-1.42,0.37-2.79,1.06-3.97
			C1058.09,445.79,1060.66,444.3,1063.53,444.3L1063.53,444.3z M1032.18,443.38c-1.78-1.21-3.9-1.9-6.08-1.9
			c-2.18,0-4.31,0.68-6.08,1.9v-6.57h12.16V443.38z M1032.18,443.38"/>
		<path d="M1070.55,503.25v-11.23h-17.79v11.23h-8.42v-11.23h-17.79v11.23h-8.42v-11.23h-17.79v11.23H991v15.44
			c0,2.84,2.31,5.15,5.15,5.15h80.48c2.84,0,5.15-2.31,5.15-5.15v-15.44H1070.55z M1055.58,494.84h12.16v8.42h-12.16V494.84z
			 M1029.38,494.84h12.16v8.42h-12.16V494.84z M1003.17,494.84h12.16v8.42h-12.16V494.84z M1078.97,506.07v3.74h-85.16v-3.74
			H1078.97z M1076.63,521.04h-80.48c-1.29,0-2.34-1.05-2.34-2.34v-6.08h11.23v6.08h2.81v-6.08h12.16v6.08h2.81v-6.08h12.16v6.08
			h2.81v-6.08h12.16v6.08h2.81v-6.08h12.16v6.08h2.81v-6.08h11.22v6.08C1078.97,519.99,1077.92,521.04,1076.63,521.04
			L1076.63,521.04z M1076.63,521.04"/>
		<rect x="1042.01" y="515.42" width="3.74" height="2.81"/>
		<rect x="1056.98" y="515.42" width="3.74" height="2.81"/>
		<rect x="1071.96" y="515.42" width="3.74" height="2.81"/>
		<rect x="1027.03" y="515.42" width="3.74" height="2.81"/>
		<rect x="1012.06" y="515.42" width="3.74" height="2.81"/>
		<rect x="997.09" y="515.42" width="3.74" height="2.81"/>
	</g>
	<g>
		<rect x="917.72" y="902.31" class="st17" width="5.44" height="16.33"/>
		<rect x="852.4" y="902.31" class="st17" width="5.44" height="16.33"/>
		<path class="st17" d="M848.78,902.31c-2,0-3.63-1.63-3.63-3.63v-7.26h85.27v7.26c0,1.99-1.63,3.63-3.63,3.63H848.78z
			 M848.78,902.31"/>
		<rect x="845.15" y="885.07" class="st1" width="85.27" height="6.35"/>
		<path class="st1" d="M918.63,852.41l3.63,5.44l-1.81,4.54H915v-4.54l-2.72-2.72l-2.72,2.72v4.54h-5.44l-1.81-4.54l3.63-5.44
			l2.72-4.54h7.26L918.63,852.41z M918.63,852.41"/>
		<path class="st1" d="M882.34,852.41l3.63,5.44l-1.81,4.54h-5.44v-4.54l-2.72-2.72l-2.72,2.72v4.54h-5.44l-1.82-4.54l3.63-5.44
			l2.72-4.54h7.26L882.34,852.41z M882.34,852.41"/>
		<rect x="905.93" y="842.43" class="st2" width="12.7" height="5.44"/>
		<rect x="869.64" y="842.43" class="st2" width="12.7" height="5.44"/>
		<rect x="913.18" y="868.74" class="st1" width="7.26" height="9.07"/>
		<rect x="884.16" y="868.74" class="st1" width="7.26" height="9.07"/>
		<rect x="855.13" y="868.74" class="st1" width="7.26" height="9.07"/>
		<path class="st7" d="M928.61,868.74v16.33h-23.59v-16.33h8.16v9.07h7.26v-9.07H928.61z M928.61,868.74"/>
		<path class="st7" d="M899.58,868.74v16.33h-23.59v-16.33h8.16v9.07h7.26v-9.07H899.58z M899.58,868.74"/>
		<path class="st7" d="M870.55,868.74v16.33h-23.59v-16.33h8.16v9.07h7.26v-9.07H870.55z M870.55,868.74"/>
		<path d="M843.33,832v2.73h31.29v6.35h-6.35v8.17h1.68l-1.47,2.44l-4.01,6.01l2.42,6.06h7.73v-5.33l1.36-1.36l1.36,1.36v5.33h7.73
			l2.42-6.06l-4.01-6.01l-1.47-2.44h1.68v-8.17h-6.35v-6.35h33.56v6.35h-6.35v8.17h1.68l-1.47,2.44l-4.01,6.01l2.42,6.06h7.73v-5.33
			l1.36-1.36l1.36,1.36v5.33h7.73l2.42-6.06l-4.01-6.01l-1.47-2.44h1.68v-8.17h-6.35v-6.35h18.59V832H843.33z M881.17,853.11
			l3.27,4.9l-1.21,3.01h-3.16v-3.74l-4.09-4.08l-4.08,4.08v3.74h-3.16l-1.21-3.01l3.23-4.85l2.36-3.93h5.71L881.17,853.11z
			 M880.98,846.51H871v-2.72h9.97V846.51z M917.46,853.11l3.27,4.9l-1.21,3.01h-3.16v-3.74l-4.09-4.08l-4.08,4.08v3.74h-3.16
			l-1.21-3.01l3.23-4.85l2.36-3.93h5.71L917.46,853.11z M917.26,846.51h-9.97v-2.72h9.97V846.51z M917.26,846.51"/>
		<rect x="893.23" y="895.5" width="3.63" height="2.73"/>
		<rect x="907.74" y="895.5" width="3.63" height="2.73"/>
		<rect x="922.26" y="895.5" width="3.63" height="2.73"/>
		<rect x="878.71" y="895.5" width="3.63" height="2.73"/>
		<rect x="864.2" y="895.5" width="3.63" height="2.73"/>
		<rect x="849.68" y="895.5" width="3.63" height="2.73"/>
		<path d="M929.97,867.38h-26.31v16.33h-2.72v-16.33h-26.31v16.33h-2.72v-16.33H845.6v16.33h-1.81v14.97c0,2.75,2.24,4.99,4.99,4.99
			h2.27V920h8.17v-16.33h57.15V920h8.17v-16.33h2.27c2.75,0,4.99-2.24,4.99-4.99v-14.97h-1.81L929.97,867.38L929.97,867.38z
			 M914.55,870.11h4.53v6.35h-4.53V870.11z M906.38,870.11h5.44v9.07h9.98v-9.07h5.44v13.6h-20.86V870.11z M885.52,870.11h4.53v6.35
			h-4.53V870.11z M877.35,870.11h5.44v9.07h9.98v-9.07h5.44v13.6h-20.86V870.11z M928.61,886.43h0.45v3.62h-82.55v-3.62H928.61z
			 M856.49,870.11h4.53v6.35h-4.53V870.11z M848.33,870.11h5.44v9.07h9.98v-9.07h5.44v13.6h-20.86V870.11z M856.48,917.27h-2.72
			v-13.6h2.72V917.27z M921.8,917.27h-2.72v-13.6h2.72V917.27z M926.79,900.94h-78.02c-1.25,0-2.27-1.02-2.27-2.26v-5.89h10.88v5.89
			h2.73v-5.89h11.79v5.89h2.73v-5.89h11.79v5.89h2.73v-5.89h11.79v5.89h2.73v-5.89h11.79v5.89h2.73v-5.89h10.88v5.89
			C929.06,899.93,928.04,900.94,926.79,900.94L926.79,900.94z M926.79,900.94"/>
	</g>
	<g>
		<rect x="1771.76" y="139.19" class="st1" width="6.55" height="17.47"/>
		<rect x="1763.02" y="169.76" class="st1" width="24.02" height="8.74"/>
		<path class="st2" d="M1787.05,200.34l9.83,12.03l-5.46,11.99h-9.83l4.37-11.88l-10.92-11.88v-22.1h12.01V200.34z M1787.05,200.34"
			/>
		<path class="st2" d="M1775.03,178.5v22.1l-10.92,12.3l4.37,11.47h-9.83l-5.46-11.47l9.83-12.56V178.5H1775.03z M1775.03,178.5"/>
		<path class="st2" d="M1778.31,156.66h3.28l5.46,6.55v6.55h-24.02v-6.55l5.46-6.55H1778.31z M1778.31,156.66"/>
		<rect x="1759.75" y="132.64" class="st2" width="30.57" height="6.55"/>
		<path d="M1791.96,140.83v-6.55h19.11V131H1739v3.28h19.11v6.55h12.01v14.2h-2.4l-6.33,7.6v37.15l-10.1,12.91l6.34,13.31h13.24
			l-4.86-12.76l9.06-10.2l9.02,9.81l-4.83,13.15h13.23l6.32-13.88l-10.1-12.37v-37.13l-6.33-7.6h-2.4v-14.2H1791.96z
			 M1761.39,134.28h27.3v3.28h-27.3V134.28z M1785.41,185.6h-8.74v-5.46h8.74V185.6z M1764.66,180.14h8.74v5.46h-8.74V180.14z
			 M1785.41,176.86h-20.75v-5.46h20.75V176.86z M1766.11,222.72h-6.42l-4.58-9.62l9.55-12.2v-12.03h8.74v11.11l-11.17,12.57
			L1766.11,222.72z M1794.96,212.62l-4.6,10.1h-6.43l3.9-10.62l-11.16-12.15v-11.09h8.74v12.05L1794.96,212.62z M1780.82,158.3
			l4.59,5.51v4.32h-20.75v-4.32l4.59-5.51H1780.82z M1776.67,155.02h-3.28v-14.2h3.28V155.02z M1776.67,155.02"/>
	</g>
	<g>
		<path class="st12" d="M1783.08,710.82c0,4.55-3.68,8.23-8.23,8.23c-4.55,0-8.23-3.68-8.23-8.23s3.68-8.23,8.23-8.23
			C1779.4,702.59,1783.08,706.28,1783.08,710.82L1783.08,710.82z M1783.08,710.82"/>
		<path class="st12" d="M1741.93,710.82c0-4.55,3.68-8.23,8.23-8.23s8.23,3.68,8.23,8.23s-3.68,8.23-8.23,8.23
			S1741.93,715.37,1741.93,710.82L1741.93,710.82z M1741.93,710.82"/>
		<path class="st12" d="M1762.51,678.93c2.26,0,4.12,1.85,4.12,4.12c0,2.26-1.85,4.12-4.12,4.12c-2.26,0-4.12-1.85-4.12-4.12
			C1758.39,680.78,1760.24,678.93,1762.51,678.93L1762.51,678.93z M1762.51,678.93"/>
		<path class="st1" d="M1743.99,677.9c0-10.23,8.29-18.52,18.52-18.52c10.23,0,18.52,8.29,18.52,18.52
			c0,10.23-8.29,18.52-18.52,18.52C1752.28,696.42,1743.99,688.13,1743.99,677.9L1743.99,677.9z M1762.51,678.93
			c-2.26,0-4.12,1.85-4.12,4.12c0,2.26,1.85,4.12,4.12,4.12c2.26,0,4.12-1.85,4.12-4.12
			C1766.62,680.78,1764.77,678.93,1762.51,678.93L1762.51,678.93z M1762.51,678.93"/>
		<rect x="1790.28" y="688.19" class="st2" width="6.17" height="10.29"/>
		<rect x="1728.56" y="677.9" class="st2" width="6.17" height="10.29"/>
		<rect x="1728.56" y="696.42" class="st2" width="6.17" height="10.29"/>
		<path class="st16" d="M1741.93,710.82c0,4.55,3.68,8.23,8.23,8.23s8.23-3.68,8.23-8.23s-3.68-8.23-8.23-8.23
			S1741.93,706.28,1741.93,710.82L1741.93,710.82z M1762.51,733.46h-3.09c-13.58,0-24.69-11.11-24.69-24.69v-32.92
			c0-13.58,11.11-24.69,24.69-24.69h6.17c13.58,0,24.69,11.11,24.69,24.69v32.92c0,13.58-11.11,24.69-24.69,24.69H1762.51z
			 M1774.85,719.05c4.55,0,8.23-3.68,8.23-8.23s-3.68-8.23-8.23-8.23c-4.55,0-8.23,3.68-8.23,8.23S1770.3,719.05,1774.85,719.05
			L1774.85,719.05z M1762.51,696.42c10.23,0,18.52-8.29,18.52-18.52c0-10.23-8.29-18.52-18.52-18.52
			c-10.23,0-18.52,8.29-18.52,18.52C1743.99,688.13,1752.28,696.42,1762.51,696.42L1762.51,696.42z M1762.51,696.42"/>
		<path d="M1762.51,657.84c-11.06,0-20.06,9-20.06,20.06s9,20.06,20.06,20.06s20.06-9,20.06-20.06S1773.57,657.84,1762.51,657.84
			L1762.51,657.84z M1762.51,694.88c-8.84,0-16.12-6.79-16.9-15.43h5.59v-3.09h-5.59c0.3-3.27,1.52-6.27,3.41-8.74l3.14,3.14
			l2.18-2.18l-3.24-3.24c2.66-2.42,6.09-4,9.86-4.34v5.59h3.09V661c3.78,0.34,7.21,1.93,9.86,4.34l-4.27,4.27l2.18,2.18l4.17-4.17
			c1.89,2.47,3.11,5.47,3.41,8.74h-5.59v3.09h5.59C1778.63,688.08,1771.35,694.88,1762.51,694.88L1762.51,694.88z M1762.51,694.88"
			/>
		<path d="M1764.05,677.6v-6.9h-3.09v6.9c-2.37,0.67-4.12,2.86-4.12,5.44c0,3.12,2.54,5.66,5.66,5.66s5.66-2.54,5.66-5.66
			C1768.16,680.46,1766.42,678.28,1764.05,677.6L1764.05,677.6z M1762.51,685.62c-1.42,0-2.57-1.15-2.57-2.57
			c0-1.42,1.15-2.57,2.57-2.57c1.42,0,2.57,1.15,2.57,2.57C1765.08,684.46,1763.92,685.62,1762.51,685.62L1762.51,685.62z
			 M1762.51,685.62"/>
		<path d="M1750.16,701.05c-5.39,0-9.77,4.38-9.77,9.77s4.38,9.77,9.77,9.77s9.77-4.38,9.77-9.77S1755.55,701.05,1750.16,701.05
			L1750.16,701.05z M1750.16,717.51c-3.16,0-5.81-2.2-6.51-5.14h7.53v-3.09h-7.53c0.7-2.95,3.35-5.14,6.51-5.14
			c3.69,0,6.69,3,6.69,6.69S1753.85,717.51,1750.16,717.51L1750.16,717.51z M1750.16,717.51"/>
		<path d="M1774.85,701.05c-5.39,0-9.77,4.38-9.77,9.77s4.38,9.77,9.77,9.77c5.39,0,9.77-4.38,9.77-9.77
			S1780.24,701.05,1774.85,701.05L1774.85,701.05z M1774.85,717.51c-3.69,0-6.69-3-6.69-6.69s3-6.69,6.69-6.69
			c3.16,0,5.81,2.2,6.51,5.14h-8.56v3.09h8.56C1780.66,715.31,1778.01,717.51,1774.85,717.51L1774.85,717.51z M1774.85,717.51"/>
		<path d="M1798,686.65h-6.17v-10.8c0-14.47-11.77-26.23-26.23-26.23h-6.17c-14.47,0-26.23,11.77-26.23,26.23v0.51h-6.17v13.37h6.17
			v5.14h-6.17v13.37h6.17v0.51c0,14.47,11.77,26.23,26.23,26.23h6.17c14.47,0,26.23-11.77,26.23-26.23v-8.74h6.17V686.65z
			 M1730.1,686.65v-7.2h3.09v7.2H1730.1z M1730.1,705.16v-7.2h3.09v7.2H1730.1z M1788.74,708.77c0,12.76-10.38,23.15-23.15,23.15
			h-1.54v-8.74h-3.09v8.74h-1.54c-12.76,0-23.15-10.38-23.15-23.15v-32.92c0-12.76,10.38-23.15,23.15-23.15h6.17
			c12.76,0,23.15,10.38,23.15,23.15V708.77z M1794.91,696.93h-3.09v-7.2h3.09V696.93z M1794.91,696.93"/>
	</g>
	<g>
		<path class="st12" d="M1342.88,97.73l6.06,22.73l-2.02,6.57h-8.08l-2.02-6.57L1342.88,97.73z M1342.88,97.73"/>
		<path class="st1" d="M1342.88,97.73l-6.06,22.73l2.02,6.57h8.08l2.02-6.57L1342.88,97.73z M1342.88,84.6
			c15.07,0,27.28,12.2,27.28,27.28s-12.2,27.28-27.28,27.28c-15.07,0-27.28-12.2-27.28-27.28S1327.8,84.6,1342.88,84.6L1342.88,84.6
			z M1342.88,84.6"/>
		<path class="st3" d="M1358.03,166.43v5.05h-30.31v-5.05c0-1.11,0.91-2.02,2.02-2.02h26.27
			C1357.12,164.41,1358.03,165.32,1358.03,166.43L1358.03,166.43z M1358.03,166.43"/>
		<path class="st2" d="M1378.24,111.88c0,18.17-13.7,33.1-31.32,35.12v17.42h-8.08v-17.42c-17.62-2.02-31.32-16.95-31.32-35.12
			c0-19.52,15.84-35.36,35.36-35.36C1362.4,76.52,1378.24,92.36,1378.24,111.88L1378.24,111.88z M1342.88,139.15
			c15.07,0,27.28-12.2,27.28-27.28s-12.2-27.28-27.28-27.28c-15.07,0-27.28,12.2-27.28,27.28S1327.8,139.15,1342.88,139.15
			L1342.88,139.15z M1342.88,139.15"/>
		<path d="M1371.67,111.88c0-15.88-12.92-28.79-28.79-28.79c-15.88,0-28.79,12.92-28.79,28.79s12.92,28.79,28.79,28.79
			C1358.75,140.67,1371.67,127.75,1371.67,111.88L1371.67,111.88z M1317.16,113.39h6.52v-3.03h-6.52
			c0.32-5.46,2.34-10.46,5.55-14.49l3.95,3.94l2.14-2.14l-4.06-4.06c4.32-4.3,10.16-7.07,16.63-7.45v6.52h1.29l-7.42,27.81
			l2.48,8.05h10.32l2.48-8.05l-7.42-27.81h1.29v-6.52c6.47,0.38,12.31,3.15,16.63,7.45l-4.06,4.06l2.14,2.14l3.95-3.94
			c3.2,4.03,5.23,9.03,5.55,14.49h-6.52v3.03h6.52c-0.79,13.5-12.02,24.25-25.72,24.25
			C1329.18,137.64,1317.95,126.89,1317.16,113.39L1317.16,113.39z M1342.88,103.61l4.49,16.82l-1.56,5.08h-5.84l-1.56-5.08
			L1342.88,103.61z M1342.88,103.61"/>
		<path d="M1379.75,111.88c0-20.33-16.54-36.88-36.88-36.88c-20.33,0-36.88,16.54-36.88,36.88c0,18.29,13.37,33.73,31.32,36.45
			v14.58h-7.58c-1.95,0-3.54,1.59-3.54,3.54v3.54h-8.59V173h50.52v-3.03h-8.59v-3.54c0-1.95-1.59-3.54-3.54-3.54h-7.58v-14.58
			C1366.38,145.6,1379.75,130.17,1379.75,111.88L1379.75,111.88z M1309.03,111.88c0-18.66,15.18-33.85,33.85-33.85
			c18.66,0,33.85,15.18,33.85,33.85c0,17.2-12.89,31.65-29.98,33.61l-1.34,0.15v17.25h-5.05v-17.25l-1.34-0.15
			C1321.92,143.53,1309.03,129.08,1309.03,111.88L1309.03,111.88z M1356.01,165.93c0.27,0,0.51,0.23,0.51,0.51v3.54h-27.28v-3.54
			c0-0.27,0.23-0.51,0.51-0.51H1356.01z M1356.01,165.93"/>
	</g>
	<g>
		<rect x="682.89" y="775.89" class="st1" width="61" height="10.76"/>
		<path class="st12" d="M693.65,752.57c1.97,0,3.59,1.61,3.59,3.59s-1.61,3.59-3.59,3.59s-3.59-1.61-3.59-3.59
			S691.68,752.57,693.65,752.57L693.65,752.57z M693.65,752.57"/>
		<path class="st12" d="M733.12,752.57c1.97,0,3.59,1.61,3.59,3.59s-1.61,3.59-3.59,3.59s-3.59-1.61-3.59-3.59
			S731.15,752.57,733.12,752.57L733.12,752.57z M733.12,752.57"/>
		<path class="st1" d="M693.65,752.57c-1.97,0-3.59,1.61-3.59,3.59s1.61,3.59,3.59,3.59s3.59-1.61,3.59-3.59
			S695.63,752.57,693.65,752.57L693.65,752.57z M709.8,751.67c0,8.92-7.23,16.15-16.15,16.15c-8.92,0-16.15-7.23-16.15-16.15
			c0-8.92,7.23-16.15,16.15-16.15C702.57,735.52,709.8,742.75,709.8,751.67L709.8,751.67z M709.8,751.67"/>
		<path class="st1" d="M733.12,752.57c-1.97,0-3.59,1.61-3.59,3.59s1.61,3.59,3.59,3.59s3.59-1.61,3.59-3.59
			S735.1,752.57,733.12,752.57L733.12,752.57z M749.27,751.67c0,8.92-7.23,16.15-16.15,16.15s-16.15-7.23-16.15-16.15
			c0-8.92,7.23-16.15,16.15-16.15S749.27,742.75,749.27,751.67L749.27,751.67z M749.27,751.67"/>
		<path class="st2" d="M682.89,775.89h-11.66v-43.96c0-1.97,1.61-3.59,3.59-3.59h77.15c1.97,0,3.59,1.61,3.59,3.59v43.96H682.89z
			 M733.12,767.82c8.92,0,16.15-7.23,16.15-16.15c0-8.92-7.23-16.15-16.15-16.15s-16.15,7.23-16.15,16.15
			C716.98,760.59,724.21,767.82,733.12,767.82L733.12,767.82z M693.65,767.82c8.92,0,16.15-7.23,16.15-16.15
			c0-8.92-7.23-16.15-16.15-16.15c-8.92,0-16.15,7.23-16.15,16.15C677.51,760.59,684.74,767.82,693.65,767.82L693.65,767.82z
			 M693.65,767.82"/>
		<path d="M756.9,731.93c0-2.72-2.21-4.93-4.93-4.93h-77.15c-2.72,0-4.93,2.21-4.93,4.93v45.3h11.66V788h63.69v-10.76h11.66V731.93z
			 M742.54,785.31h-58.31v-8.07h58.31V785.31z M754.21,774.54h-39.47v-9.42h-2.69v9.42h-39.47v-42.61c0-1.24,1.01-2.24,2.24-2.24
			h37.23v9.42h2.69v-9.42h37.23c1.24,0,2.24,1.01,2.24,2.24V774.54z M754.21,774.54"/>
		<path d="M693.65,734.18c-9.65,0-17.49,7.85-17.49,17.49c0,9.65,7.85,17.49,17.49,17.49c9.65,0,17.49-7.85,17.49-17.49
			C711.15,742.02,703.3,734.18,693.65,734.18L693.65,734.18z M693.65,766.47c-7.71,0-14.06-5.92-14.74-13.46h4.87v-2.69h-4.87
			c0.26-2.85,1.33-5.47,2.97-7.62l2.74,2.74l1.9-1.9l-2.82-2.82c2.32-2.11,5.31-3.49,8.6-3.79v4.87H695v-4.87
			c3.29,0.3,6.28,1.68,8.6,3.79l-3.72,3.72l1.9,1.9l3.64-3.64c1.65,2.15,2.71,4.77,2.97,7.62h-4.87v2.69h4.87
			C707.71,760.55,701.36,766.47,693.65,766.47L693.65,766.47z M693.65,766.47"/>
		<path d="M695,751.41v-6.02h-2.69v6.02c-2.07,0.59-3.59,2.49-3.59,4.75c0,2.72,2.21,4.93,4.93,4.93s4.93-2.21,4.93-4.93
			C698.59,753.9,697.07,752,695,751.41L695,751.41z M693.65,758.4c-1.24,0-2.24-1.01-2.24-2.24c0-1.24,1.01-2.24,2.24-2.24
			s2.24,1.01,2.24,2.24C695.9,757.39,694.89,758.4,693.65,758.4L693.65,758.4z M693.65,758.4"/>
		<path d="M733.12,734.18c-9.65,0-17.49,7.85-17.49,17.49c0,9.65,7.85,17.49,17.49,17.49s17.49-7.85,17.49-17.49
			C750.62,742.02,742.77,734.18,733.12,734.18L733.12,734.18z M733.12,766.47c-7.71,0-14.06-5.92-14.74-13.46h4.87v-2.69h-4.87
			c0.26-2.85,1.33-5.47,2.97-7.62l2.74,2.74l1.9-1.9l-2.82-2.82c2.32-2.11,5.31-3.49,8.6-3.79v4.87h2.69v-4.87
			c3.29,0.3,6.28,1.68,8.6,3.79l-3.72,3.72l1.9,1.9l3.64-3.64c1.65,2.15,2.71,4.77,2.97,7.62h-4.87v2.69h4.87
			C747.18,760.55,740.83,766.47,733.12,766.47L733.12,766.47z M733.12,766.47"/>
		<path d="M734.47,751.41v-6.02h-2.69v6.02c-2.07,0.59-3.59,2.49-3.59,4.75c0,2.72,2.21,4.93,4.93,4.93s4.93-2.21,4.93-4.93
			C738.06,753.9,736.54,752,734.47,751.41L734.47,751.41z M733.12,758.4c-1.24,0-2.24-1.01-2.24-2.24c0-1.24,1.01-2.24,2.24-2.24
			s2.24,1.01,2.24,2.24C735.37,757.39,734.36,758.4,733.12,758.4L733.12,758.4z M733.12,758.4"/>
		<rect x="687.38" y="779.93" width="23.32" height="2.69"/>
		<rect x="716.08" y="779.93" width="23.32" height="2.69"/>
	</g>
	<g>
		<rect x="1215.82" y="678.78" class="st18" width="22.36" height="12.2"/>
		<rect x="1219.89" y="595.44" class="st1" width="14.23" height="12.2"/>
		<path class="st1" d="M1238.18,678.78h-22.36v12.2h-11.18v-18.29h44.72v18.29h-11.18V678.78z M1238.18,678.78"/>
		<path class="st11" d="M1205.66,656.42h42.69l-5.08,10.16h-32.52L1205.66,656.42z M1205.66,656.42"/>
		<path class="st11" d="M1243.26,613.73l5.08,10.16h-42.69l5.08-10.16H1243.26z M1243.26,613.73"/>
		<rect x="1215.82" y="666.58" class="st2" width="22.36" height="6.1"/>
		<rect x="1215.82" y="607.64" class="st2" width="22.36" height="6.1"/>
		<path class="st2" d="M1256.47,650.32v4.07c0,1.12-0.91,2.03-2.03,2.03h-54.88c-1.12,0-2.03-0.91-2.03-2.03v-4.07
			c0-1.12,0.91-2.03,2.03-2.03h54.88C1255.56,648.29,1256.47,649.2,1256.47,650.32L1256.47,650.32z M1256.47,650.32"/>
		<path class="st2" d="M1253.42,625.93v4.07c0,1.12-0.91,2.03-2.03,2.03h-48.78c-1.12,0-2.03-0.91-2.03-2.03v-4.07
			c0-1.12,0.91-2.03,2.03-2.03h48.78C1252.51,623.9,1253.42,624.81,1253.42,625.93L1253.42,625.93z M1253.42,625.93"/>
		<path d="M1202.61,633.55h48.78c1.96,0,3.56-1.6,3.56-3.56v-4.07c0-1.96-1.6-3.56-3.56-3.56h-2.1l-5.08-10.16h-4.5v-6.1h-4.07
			v-9.14h10.67v-3.05h-38.62v3.05h10.67v9.14h-4.07v6.1h-4.5l-5.08,10.16h-2.1c-1.96,0-3.56,1.6-3.56,3.56v4.07
			C1199.05,631.96,1200.65,633.55,1202.61,633.55L1202.61,633.55z M1232.59,596.97v9.14h-11.17v-9.14H1232.59z M1217.35,609.16h19.3
			v3.04h-19.3V609.16z M1211.68,615.26h5.66v4.57h3.05v-4.57h5.08v4.57h3.05v-4.57h5.08v4.57h3.05v-4.57h5.66l3.55,7.11h-37.74
			L1211.68,615.26z M1202.1,625.93c0-0.27,0.23-0.51,0.51-0.51h48.78c0.27,0,0.51,0.23,0.51,0.51v4.07c0,0.27-0.23,0.5-0.51,0.5
			h-48.78c-0.27,0-0.51-0.23-0.51-0.5V625.93z M1202.1,625.93"/>
		<rect x="1223.95" y="600.01" width="6.1" height="3.05"/>
		<path d="M1254.44,646.76h-54.88c-1.96,0-3.56,1.6-3.56,3.56v4.07c0,1.96,1.6,3.56,3.56,3.56h5.15l5.08,10.16h4.5v3.04h-11.18
			v18.29h-5.59v3.05h58.95v-3.05h-5.59v-18.29h-11.18v-3.04h4.5l5.08-10.16h5.15c1.96,0,3.56-1.6,3.56-3.56v-4.07
			C1258,648.36,1256.4,646.76,1254.44,646.76L1254.44,646.76z M1236.65,689.44h-19.3v-9.14h19.3V689.44z M1247.83,689.44h-8.13
			v-12.2h-25.41v12.2h-8.13v-15.24h41.66V689.44z M1217.35,671.15v-3.04h19.3v3.04H1217.35z M1242.32,665.05h-5.66v-4.57h-3.05v4.57
			h-5.08v-4.57h-3.05v4.57h-5.08v-4.57h-3.05v4.57h-5.66l-3.55-7.11h37.74L1242.32,665.05z M1254.95,654.39
			c0,0.27-0.23,0.51-0.51,0.51h-54.88c-0.27,0-0.51-0.23-0.51-0.51v-4.07c0-0.27,0.23-0.51,0.51-0.51h54.88
			c0.27,0,0.51,0.23,0.51,0.51V654.39z M1254.95,654.39"/>
		<rect x="1223.95" y="683.35" width="6.1" height="3.05"/>
	</g>
	<g>
		<path class="st2" d="M1722.27,906.96v9.07c-5.01,0-9.07-4.06-9.07-9.07H1722.27z M1722.27,906.96"/>
		<path class="st2" d="M1722.27,906.96h9.07c0,5.01-4.06,9.07-9.07,9.07V906.96z M1722.27,906.96"/>
		<path class="st2" d="M1731.34,906.96h-9.07v-9.07C1727.28,897.89,1731.34,901.95,1731.34,906.96L1731.34,906.96z M1731.34,906.96"
			/>
		<path class="st2" d="M1722.27,897.89v9.07h-9.07C1713.2,901.95,1717.26,897.89,1722.27,897.89L1722.27,897.89z M1722.27,897.89"/>
		<path class="st1" d="M1737.69,889.72v34.47h-30.85v-34.47H1737.69z M1722.27,916.03c5.01,0,9.07-4.06,9.07-9.07
			s-4.06-9.07-9.07-9.07c-5.01,0-9.07,4.06-9.07,9.07S1717.26,916.03,1722.27,916.03L1722.27,916.03z M1722.27,916.03"/>
		<rect x="1715.92" y="864.32" class="st1" width="12.7" height="7.26"/>
		<path class="st12" d="M1722.27,844.36c2.5,0,4.54,2.03,4.54,4.54c0,2.5-2.03,4.54-4.54,4.54s-4.54-2.03-4.54-4.54
			C1717.73,846.39,1719.77,844.36,1722.27,844.36L1722.27,844.36z M1722.27,844.36"/>
		<rect x="1706.85" y="877.02" class="st5" width="30.85" height="7.26"/>
		<path class="st2" d="M1737.69,889.72h-30.85v34.47h30.85V889.72z M1737.69,884.28v-7.26h-30.85v7.26H1737.69z M1743.13,875.21
			v50.8c0,2-1.63,3.63-3.63,3.63h-34.47c-2,0-3.63-1.63-3.63-3.63v-50.8c0-2,1.63-3.63,3.63-3.63h34.47
			C1741.5,871.58,1743.13,873.21,1743.13,875.21L1743.13,875.21z M1743.13,875.21"/>
		<path class="st14" d="M1739.51,870.22h-9.53v-7.26h-6.35v-8.33c2.6-0.62,4.54-2.95,4.54-5.74c0-3.25-2.65-5.9-5.9-5.9
			s-5.9,2.65-5.9,5.9c0,2.78,1.94,5.12,4.54,5.74v8.33h-6.35v7.26h-9.53c-2.75,0-4.99,2.24-4.99,4.99v50.8
			c0,2.75,2.24,4.99,4.99,4.99h34.47c2.75,0,4.99-2.24,4.99-4.99v-50.8C1744.5,872.45,1742.26,870.22,1739.51,870.22L1739.51,870.22
			z M1719.09,848.9c0-1.75,1.42-3.18,3.18-3.18s3.18,1.42,3.18,3.18s-1.42,3.18-3.18,3.18S1719.09,850.65,1719.09,848.9
			L1719.09,848.9z M1717.28,865.68h9.98v4.54h-9.98V865.68z M1741.77,926.01c0,1.25-1.02,2.27-2.27,2.27h-34.47
			c-1.25,0-2.27-1.02-2.27-2.27v-50.8c0-1.25,1.02-2.27,2.27-2.27h34.47c1.25,0,2.27,1.02,2.27,2.27V926.01z M1741.77,926.01"/>
		<path class="st14" d="M1705.49,885.64h33.57v-9.98h-33.57V885.64z M1708.21,878.38h28.12v4.54h-28.12V878.38z M1708.21,878.38"/>
		<path class="st14" d="M1705.49,925.56h33.57v-37.2h-33.57V925.56z M1708.21,891.08h28.12v31.75h-28.12V891.08z M1708.21,891.08"/>
		<path class="st14" d="M1722.27,896.53c-5.75,0-10.43,4.68-10.43,10.43c0,5.75,4.68,10.43,10.43,10.43s10.43-4.68,10.43-10.43
			C1732.7,901.21,1728.02,896.53,1722.27,896.53L1722.27,896.53z M1729.86,905.6h-6.23v-6.23
			C1726.79,899.94,1729.29,902.44,1729.86,905.6L1729.86,905.6z M1720.91,899.37v6.23h-6.23
			C1715.25,902.44,1717.75,899.94,1720.91,899.37L1720.91,899.37z M1714.68,908.32h6.23v6.23
			C1717.75,913.98,1715.25,911.48,1714.68,908.32L1714.68,908.32z M1723.63,914.55v-6.23h6.23
			C1729.29,911.48,1726.79,913.98,1723.63,914.55L1723.63,914.55z M1723.63,914.55"/>
		<rect x="1710.47" y="893.8" class="st14" width="2.72" height="2.72"/>
		<rect x="1710.47" y="917.39" class="st14" width="2.72" height="2.72"/>
		<rect x="1731.34" y="917.39" class="st14" width="2.72" height="2.72"/>
		<rect x="1731.34" y="893.8" class="st14" width="2.72" height="2.72"/>
	</g>
	<g>
		<rect x="1519.47" y="914.2" class="st5" width="17.36" height="8.68"/>
		<rect x="1519.47" y="922.88" class="st5" width="17.36" height="10.61"/>
		<rect x="1519.47" y="933.5" class="st5" width="17.36" height="10.61"/>
		<rect x="1519.47" y="944.11" class="st5" width="17.36" height="8.68"/>
		<rect x="1500.18" y="944.11" class="st5" width="19.29" height="8.68"/>
		<rect x="1500.18" y="933.5" class="st5" width="19.29" height="10.61"/>
		<rect x="1500.18" y="922.88" class="st5" width="19.29" height="10.61"/>
		<rect x="1500.18" y="914.2" class="st5" width="19.29" height="8.68"/>
		<rect x="1480.88" y="914.2" class="st5" width="19.29" height="8.68"/>
		<rect x="1480.88" y="922.88" class="st5" width="19.29" height="10.61"/>
		<rect x="1480.88" y="933.5" class="st5" width="19.29" height="10.61"/>
		<rect x="1480.88" y="944.11" class="st5" width="19.29" height="8.68"/>
		<rect x="1463.52" y="944.11" class="st5" width="17.36" height="8.68"/>
		<rect x="1463.52" y="933.5" class="st5" width="17.36" height="10.61"/>
		<rect x="1463.52" y="922.88" class="st5" width="17.36" height="10.61"/>
		<rect x="1463.52" y="914.2" class="st5" width="17.36" height="8.68"/>
		<rect x="1495.35" y="959.54" class="st1" width="9.65" height="19.29"/>
		<rect x="1488.6" y="978.83" class="st2" width="23.15" height="7.72"/>
		<path class="st2" d="M1544.55,913.24v40.52c0,3.2-2.59,5.79-5.79,5.79h-77.17c-3.2,0-5.79-2.58-5.79-5.79v-40.52
			c0-3.2,2.58-5.79,5.79-5.79h77.17C1541.96,907.45,1544.55,910.04,1544.55,913.24L1544.55,913.24z M1536.83,952.79V914.2h-73.31
			v38.59H1536.83z M1536.83,952.79"/>
		<path class="st14" d="M1538.76,906h-77.17c-3.99,0-7.24,3.25-7.24,7.24v40.52c0,3.99,3.25,7.24,7.24,7.24h32.31v16.39h-6.75v7.72
			h-14.95v2.9h55.95v-2.9h-14.95v-7.72h-6.75v-16.39h32.31c3.99,0,7.24-3.25,7.24-7.24v-40.52C1546,909.25,1542.75,906,1538.76,906
			L1538.76,906z M1510.3,980.28v4.82h-20.25v-4.82H1510.3z M1496.8,977.38v-16.39h6.75v16.39H1496.8z M1543.1,953.75
			c0,2.39-1.95,4.34-4.34,4.34h-77.17c-2.39,0-4.34-1.95-4.34-4.34v-40.52c0-2.39,1.95-4.34,4.34-4.34h77.17
			c2.39,0,4.34,1.95,4.34,4.34V953.75z M1543.1,953.75"/>
		<path class="st14" d="M1462.07,954.24h76.21v-41.49h-76.21V954.24z M1464.97,945.56h14.46v5.78h-14.46V945.56z M1498.73,945.56
			v5.78h-16.39v-5.78H1498.73z M1482.33,942.66v-7.71h16.39v7.71H1482.33z M1501.63,945.56h16.39v5.78h-16.39V945.56z
			 M1501.63,942.66v-7.71h16.39v7.71H1501.63z M1520.92,934.95h14.46v7.71h-14.46V934.95z M1520.92,932.05v-7.71h14.46v7.71H1520.92
			z M1518.02,932.05h-16.39v-7.71h16.39V932.05z M1501.63,921.43v-5.78h16.39v5.78H1501.63z M1498.73,921.43h-16.39v-5.78h16.39
			V921.43z M1498.73,924.33v7.71h-16.39v-7.71H1498.73z M1479.43,932.05h-14.46v-7.71h14.46V932.05z M1479.43,934.95v7.71h-14.46
			v-7.71H1479.43z M1520.92,951.34v-5.78h14.46v5.78H1520.92z M1535.38,921.43h-14.46v-5.78h14.46V921.43z M1479.43,915.65v5.78
			h-14.46v-5.78H1479.43z M1479.43,915.65"/>
	</g>
	<g>
		<rect x="1319.73" y="272.12" class="st7" width="28.14" height="6.57"/>
		<rect x="1366.63" y="271.18" class="st1" width="9.38" height="16.89"/>
		<rect x="1326.29" y="291.82" class="st1" width="11.26" height="15.95"/>
		<rect x="1369.45" y="304.95" class="st7" width="28.14" height="20.64"/>
		<rect x="1319.73" y="278.69" class="st19" width="28.14" height="13.13"/>
		<path class="st19" d="M1388.21,271.18v33.77h-18.76v20.64h-15.01v-54.41h12.2v16.89h9.38v-16.89H1388.21z M1388.21,271.18"/>
		<rect x="1363.82" y="254.29" class="st7" width="24.39" height="16.89"/>
		<path class="st7" d="M1354.44,291.82v33.77h-45.03v-33.77h16.89v15.95h11.26v-15.95H1354.44z M1354.44,291.82"/>
		<path d="M1389.62,303.55v-50.66h-27.21v16.89h-9.38v20.64h-3.75v-19.7h-30.96v19.7H1308V327h91v-23.45H1389.62z M1365.23,255.7
			h21.58v14.07h-21.58V255.7z M1374.61,272.59v14.07h-6.57v-14.07H1374.61z M1321.13,290.41v-10.32h25.33v10.32H1321.13z
			 M1336.14,293.23v13.13h-8.44v-13.13H1336.14z M1346.46,273.53v3.75h-25.33v-3.75H1346.46z M1310.81,324.19v-30.96h14.07v15.95
			h14.07v-15.95h14.07v30.96H1310.81z M1355.85,324.19v-51.6h9.38v16.89h12.2v-16.89h9.38v30.96h-18.76v20.64H1355.85z
			 M1396.19,324.19h-25.33v-17.82h25.33V324.19z M1396.19,324.19"/>
		<rect x="1339.43" y="283.85" width="3.75" height="2.81"/>
		<rect x="1333.8" y="283.85" width="3.75" height="2.81"/>
		<rect x="1384.46" y="311.05" width="7.51" height="2.81"/>
		<rect x="1378.83" y="316.68" width="13.13" height="2.81"/>
		<rect x="1378.83" y="263.21" width="3.75" height="2.81"/>
		<rect x="1373.2" y="263.21" width="3.75" height="2.81"/>
	</g>
	<g>
		<rect x="1271.39" y="786.92" class="st1" width="6.85" height="10.27"/>
		<rect x="1298.77" y="821.14" class="st1" width="6.85" height="10.27"/>
		<path class="st19" d="M1286.79,793.76v13.69h-23.96v-20.54h8.56v10.27h6.85v-10.27h8.56V793.76z M1286.79,793.76"/>
		<path class="st19" d="M1314.17,821.14v20.54h-23.96v-20.54h8.56v10.27h6.85v-10.27H1314.17z M1314.17,821.14"/>
		<rect x="1286.79" y="793.76" class="st7" width="25.67" height="13.69"/>
		<rect x="1264.54" y="827.99" class="st7" width="25.67" height="13.69"/>
		<rect x="1254.28" y="807.45" class="st1" width="67.59" height="5.13"/>
		<rect x="1254.28" y="841.68" class="st1" width="67.59" height="5.13"/>
		<path class="st2" d="M1254.28,846.81v15.4h-5.99v-80.43h5.99V846.81z M1254.28,846.81"/>
		<rect x="1321.87" y="781.79" class="st2" width="6.85" height="80.43"/>
		<path d="M1320.58,780.5v25.67h-6.84v-13.69h-25.67v-6.85h-26.53v20.54h-5.98V780.5H1247v83h8.56v-15.4h65.02v15.4h9.42v-83
			H1320.58z M1288.07,795.05h23.1v11.12h-23.1V795.05z M1272.67,788.2h4.27v7.7h-4.27V788.2z M1264.12,788.2h5.98v10.27h9.42V788.2
			h5.98v17.96h-21.39V788.2z M1320.58,808.74v2.56h-65.02v-2.56H1320.58z M1288.93,819.86v6.85h-25.67v13.69h-7.7v-26.52h65.02
			v26.52h-5.13v-20.54H1288.93z M1291.5,822.43h5.98v10.27h9.42v-10.27h5.98v17.96h-21.39V822.43z M1300.05,830.13v-7.7h4.27v7.7
			H1300.05z M1288.93,829.27v11.12h-23.1v-11.12H1288.93z M1252.99,860.93h-3.42v-77.86h3.42L1252.99,860.93z M1255.56,845.53v-2.56
			h65.02v2.56H1255.56z M1327.43,860.93h-4.27v-77.86h4.27V860.93z M1327.43,860.93"/>
		<rect x="1303.05" y="799.32" width="5.13" height="2.57"/>
		<rect x="1292.78" y="799.32" width="8.56" height="2.57"/>
		<rect x="1280.8" y="833.55" width="5.13" height="2.57"/>
		<rect x="1270.53" y="833.55" width="8.56" height="2.57"/>
	</g>
	<g>
		<rect x="1439.15" y="530.22" class="st16" width="10.58" height="12.35"/>
		<rect x="1428.57" y="530.22" class="st16" width="10.58" height="12.35"/>
		<rect x="1387.11" y="531.98" class="st16" width="22.93" height="6.17"/>
		<rect x="1428.57" y="542.57" class="st1" width="21.17" height="22.93"/>
		<rect x="1378.29" y="546.1" class="st1" width="40.57" height="10.58"/>
		<rect x="1378.29" y="556.68" class="st2" width="40.57" height="15"/>
		<path class="st2" d="M1418.87,541.69v4.41h-40.57v-4.41c0-1.94,1.59-3.53,3.53-3.53h33.52
			C1417.28,538.16,1418.87,539.75,1418.87,541.69L1418.87,541.69z M1418.87,541.69"/>
		<rect x="1428.57" y="565.5" class="st2" width="21.17" height="6.17"/>
		<path class="st2" d="M1449.74,521.4v8.82h-21.17v-8.82c0-4.25,2.54-7.92,6.17-9.6v-6.28h8.82v6.28
			C1447.2,513.48,1449.74,517.15,1449.74,521.4L1449.74,521.4z M1449.74,521.4"/>
		<rect x="1408.28" y="562.42" width="3.53" height="2.65"/>
		<rect x="1402.99" y="562.42" width="3.53" height="2.65"/>
		<path d="M1451.06,570.35V521.4c0-4.33-2.4-8.32-6.17-10.41v-6.79h-4.41v-3.97c0-1.24-0.82-3.09-3.09-3.09h-25.58
			c-1.24,0-3.09,0.82-3.09,3.09v24.68c-0.02,0.46-0.25,0.46-0.44,0.46h-7.94c-1.85,0-3.09,0.89-3.09,2.21v3.09h-11.47v6.17h-3.97
			c-2.68,0-4.85,2.18-4.85,4.85v28.67H1373V573h86.44v-2.65H1451.06z M1443.01,513c3.28,1.51,5.41,4.81,5.41,8.39v7.5h-18.52v-7.5
			c0-3.59,2.12-6.88,5.41-8.39l0.77-0.36v-5.8h6.17v5.8L1443.01,513z M1429.89,531.54h7.94v9.7h-7.94V531.54z M1429.89,543.89h18.52
			v20.29h-18.52V543.89z M1440.48,541.25v-9.7h7.94v9.7H1440.48z M1388.44,533.31h20.29v3.53h-20.29V533.31z M1381.82,539.48h33.52
			c1.22,0,2.21,0.99,2.21,2.21v3.09h-37.93v-3.09C1379.62,540.47,1380.6,539.48,1381.82,539.48L1381.82,539.48z M1417.54,555.36
			h-37.93v-7.94h37.93V555.36z M1379.62,558.01h37.93v12.35h-37.93V558.01z M1420.19,570.35v-28.67c0-2.67-2.18-4.85-4.85-4.85
			h-3.97v-6.17h-11.47v-2.6c0.14-0.02,0.31-0.04,0.44-0.04h7.94c2.26,0,3.09-1.85,3.09-3.09v-24.7c0-0.19,0-0.42,0.46-0.44h25.56
			c0.19,0,0.42,0,0.44,0.46v3.95h-4.41v6.79c-3.78,2.08-6.17,6.08-6.17,10.41v48.95H1420.19z M1429.89,570.35v-3.53h18.52v3.53
			H1429.89z M1429.89,570.35"/>
	</g>
	<g>
		<rect x="643.72" y="923.41" class="st16" width="7.81" height="16.6"/>
		<rect x="630.05" y="901.92" class="st12" width="7.81" height="16.6"/>
		<path class="st1" d="M607.19,930.64c2.66,2.66,4.3,6.31,4.3,10.35c0,3.79-1.45,7.25-3.83,9.84l-0.08-0.08l-10.74-9.77
			L607.19,930.64z M607.19,930.64"/>
		<path class="st20" d="M596.84,940.99l10.74,9.77l0.08,0.08c-2.68,2.95-6.52,4.81-10.82,4.81c-8.09,0-14.65-6.56-14.65-14.65
			c0-8.09,6.56-14.65,14.65-14.65c4.04,0,7.7,1.64,10.35,4.3L596.84,940.99z M596.84,940.99"/>
		<rect x="577.3" y="896.06" class="st5" width="39.07" height="19.53"/>
		<path class="st1" d="M623.21,891.18v24.42h-6.84v-19.53H577.3v19.53h-6.84v-24.42c0-1.07,0.88-1.95,1.95-1.95h48.83
			C622.33,889.22,623.21,890.1,623.21,891.18L623.21,891.18z M623.21,891.18"/>
		<path class="st2" d="M570.47,915.6v47.86c0,1.07,0.88,1.95,1.95,1.95h48.83c1.07,0,1.95-0.88,1.95-1.95V915.6H570.47z
			 M607.66,950.83c-2.68,2.95-6.52,4.81-10.82,4.81c-8.09,0-14.65-6.56-14.65-14.65c0-8.09,6.56-14.65,14.65-14.65
			c4.04,0,7.7,1.64,10.35,4.3c2.66,2.66,4.3,6.31,4.3,10.35C611.49,944.78,610.04,948.24,607.66,950.83L607.66,950.83z
			 M607.66,950.83"/>
		<path class="st14" d="M617.35,942.46v-2.93h-4.46c-0.34-3.74-1.96-7.22-4.66-9.92c-2.7-2.7-6.18-4.32-9.92-4.66v-4.46h-2.93v4.46
			c-7.72,0.7-13.88,6.86-14.58,14.58h-4.46v2.93h4.46c0.7,7.72,6.86,13.88,14.58,14.58v4.46h2.93v-4.46
			c3.98-0.37,7.72-2.22,10.44-5.21c2.39-2.6,3.83-5.88,4.15-9.37H617.35z M583.65,940.99c0-7.27,5.91-13.18,13.18-13.18
			c3.02,0,5.89,1.02,8.22,2.89l-8.83,8.83h-7.21v2.93h7.25l9.26,8.42c-2.39,2.11-5.49,3.3-8.69,3.3
			C589.57,954.17,583.65,948.26,583.65,940.99L583.65,940.99z M607.51,948.71l-8.54-7.77l8.17-8.17c1.87,2.33,2.89,5.2,2.89,8.22
			C610.02,943.78,609.14,946.47,607.51,948.71L607.51,948.71z M607.51,948.71"/>
		<rect x="606.6" y="901.43" class="st14" width="5.86" height="2.93"/>
		<rect x="585.12" y="901.43" class="st14" width="19.53" height="2.93"/>
		<rect x="606.6" y="907.29" class="st14" width="5.86" height="2.93"/>
		<rect x="598.79" y="907.29" class="st14" width="5.86" height="2.93"/>
		<rect x="575.35" y="920.96" class="st14" width="3.91" height="2.93"/>
		<rect x="575.35" y="957.1" class="st14" width="3.91" height="2.93"/>
		<rect x="614.42" y="920.96" class="st14" width="3.91" height="2.93"/>
		<rect x="614.42" y="957.1" class="st14" width="3.91" height="2.93"/>
		<path class="st14" d="M653,921.94h-3.91v-7.32h-2.93v7.32h-3.91v19.54h3.91v37.6c0,0.21,0,0.46-0.51,0.49h-50.77
			c-0.21,0-0.46,0-0.49-0.51v-12.19h6.83v4.39c0,1.38,0.91,3.42,3.42,3.42H632c1.38,0,3.42-0.91,3.42-3.42v-51.27h3.91v-19.54h-3.91
			v-7.32h-2.93v7.32h-3.91v19.54h3.91v51.27c0,0.21,0,0.46-0.51,0.49h-27.33c-0.21,0-0.46,0-0.49-0.51v-4.37h17.09
			c1.89,0,3.42-1.54,3.42-3.42v-72.28c0-1.89-1.53-3.42-3.42-3.42h-48.83c-1.89,0-3.42,1.53-3.42,3.42v72.28
			c0,1.89,1.53,3.42,3.42,3.42h19.04v12.21c0,1.37,0.91,3.42,3.42,3.42h50.79c1.38,0,3.42-0.91,3.42-3.42v-37.6H653V921.94z
			 M631.51,903.39h4.88v13.67h-4.88V903.39z M572.42,890.69h48.83c0.26,0,0.49,0.22,0.49,0.49v22.95h-3.9v-19.53h-42v19.53h-3.9
			v-22.95C571.93,890.91,572.16,890.69,572.42,890.69L572.42,890.69z M614.9,897.53v16.6h-36.13v-16.6H614.9z M571.93,963.45v-46.39
			h49.81v46.39c0,0.26-0.22,0.49-0.49,0.49h-48.83C572.16,963.94,571.93,963.72,571.93,963.45L571.93,963.45z M650.07,938.55h-4.88
			v-13.67h4.88V938.55z M650.07,938.55"/>
	</g>
	<g>
		<rect x="146.28" y="784.4" class="st2" width="53.01" height="8.23"/>
		<rect x="146.28" y="773.44" class="st2" width="53.01" height="10.97"/>
		<rect x="146.28" y="762.47" class="st2" width="53.01" height="10.97"/>
		<rect x="146.28" y="754.24" class="st2" width="53.01" height="8.23"/>
		<rect x="187.41" y="741.45" class="st1" width="11.88" height="7.31"/>
		<rect x="172.78" y="741.45" class="st1" width="14.62" height="7.31"/>
		<rect x="159.99" y="741.45" class="st1" width="12.8" height="7.31"/>
		<rect x="146.28" y="741.45" class="st1" width="13.71" height="7.31"/>
		<path class="st5" d="M214.83,712.2v23.76h-84.09V712.2c0-1,0.82-1.83,1.83-1.83H213C214,710.37,214.83,711.19,214.83,712.2
			L214.83,712.2z M214.83,712.2"/>
		<path class="st16" d="M146.28,754.24v38.39h-9.14v-56.67h62.15v5.48h-53.01v7.31h53.01v5.48H146.28z M146.28,754.24"/>
		<rect x="199.29" y="735.96" class="st16" width="9.14" height="56.67"/>
		<path d="M200.66,740.08h-55.75v10.05h55.75V740.08z M174.16,742.82h11.88v4.57h-11.88V742.82z M171.41,747.39h-10.05v-4.57h10.05
			V747.39z M147.65,742.82h10.97v4.57h-10.97V742.82z M197.92,747.39h-9.14v-4.57h9.14V747.39z M197.92,747.39"/>
		<rect x="160.9" y="716.31" width="5.48" height="2.74"/>
		<rect x="179.18" y="716.31" width="5.48" height="2.74"/>
		<path d="M209.8,791.26v-53.92h6.4V712.2c0-1.76-1.44-3.2-3.2-3.2h-80.43c-1.76,0-3.2,1.44-3.2,3.2v25.13h6.4v53.92H128V794h89.57
			v-2.74H209.8z M132.11,719.05h15.99v-2.74h-15.99v-4.11c0-0.25,0.21-0.46,0.46-0.46h20.56v16.91h2.74v-16.91h15.54v16.91h2.74
			v-16.91h15.54v16.91h2.74v-16.91H213c0.25,0,0.46,0.21,0.46,0.46v4.11h-15.99v2.74h15.99v15.54h-81.34V719.05z M138.51,737.33
			h68.55v53.92h-6.4v-38.39h-55.75v38.39h-6.4V737.33z M197.92,761.1h-50.27v-5.48h50.27V761.1z M147.65,763.84h50.27v8.23h-50.27
			V763.84z M147.65,774.81h50.27v8.23h-50.27V774.81z M147.65,785.77h50.27v5.48h-50.27V785.77z M147.65,785.77"/>
	</g>
	<g>
		<path class="st5" d="M1098.77,955.19v14.72h-8.1v-11.26c2.01-1.05,4.35-2.03,7.09-2.92
			C1097.76,955.74,1098.14,955.54,1098.77,955.19L1098.77,955.19z M1098.77,955.19"/>
		<path class="st5" d="M1143.33,958.62v11.3h-8.1v-14.72c0.63,0.34,1.01,0.55,1.01,0.55
			C1138.97,956.61,1141.32,957.58,1143.33,958.62L1143.33,958.62z M1143.33,958.62"/>
		<path class="st2" d="M1087.63,975.99c0,1.11,0.91,2.03,2.03,2.03h-11.14v-5.06c0,0,0.14-8.12,12.15-14.3v11.26h-1.01
			c-1.11,0-2.03,0.91-2.03,2.03V975.99z M1087.63,975.99"/>
		<path class="st2" d="M1155.48,972.96v5.06h-11.14c1.11,0,2.03-0.91,2.03-2.03v-4.05c0-1.11-0.91-2.03-2.03-2.03h-1.01v-11.3
			C1155.44,964.77,1155.48,972.96,1155.48,972.96L1155.48,972.96z M1155.48,972.96"/>
		<path class="st2" d="M1135.23,955.19v14.72h-36.46v-14.72c1.98-1.09,6.42-3.65,8.1-5.53c0,0,4.17,5.06,10.13,5.06
			s10.13-5.06,10.13-5.06C1128.81,951.55,1133.24,954.1,1135.23,955.19L1135.23,955.19z M1135.23,955.19"/>
		<path class="st5" d="M1146.37,971.94v4.05c0,1.11-0.91,2.03-2.03,2.03h-54.68c-1.11,0-2.03-0.91-2.03-2.03v-4.05
			c0-1.11,0.91-2.03,2.03-2.03h54.68C1145.46,969.92,1146.37,970.83,1146.37,971.94L1146.37,971.94z M1146.37,971.94"/>
		<path class="st21" d="M1125.1,885.16v16.91h-16.2v-19.24h16.2V885.16z M1125.1,885.16"/>
		<path class="st22" d="M1141.3,902.07h-16.2v-16.91C1132.9,887.79,1138.99,894.13,1141.3,902.07L1141.3,902.07z M1141.3,902.07"/>
		<path class="st22" d="M1108.9,885.16v16.91h-16.2v-0.02C1095.01,894.11,1101.1,887.79,1108.9,885.16L1108.9,885.16z
			 M1108.9,885.16"/>
		<path class="st16" d="M1146.37,910.17h-58.73c0-2.23,1.82-8.1,4.05-8.1h50.63C1144.54,902.07,1146.37,907.94,1146.37,910.17
			L1146.37,910.17z M1146.37,910.17"/>
		<path class="st23" d="M1139.28,915.23c3.36,0,6.08,1.26,6.08,4.05c0,2.59-3.2,5.59-6.34,6.02c0.18-1.3,0.26-2.63,0.26-3.99V915.23
			z M1139.28,915.23"/>
		<path class="st23" d="M1094.72,921.31c0,1.36,0.08,2.69,0.26,3.99c-3.14-0.43-6.34-3.42-6.34-6.02c0-2.79,2.71-4.05,6.08-4.05
			V921.31z M1094.72,921.31"/>
		<path class="st23" d="M1106.87,943.22c2.96,1.54,6.36,2.39,10.13,2.39s7.17-0.85,10.13-2.39v6.44c0,0-4.17,5.06-10.13,5.06
			s-10.13-5.06-10.13-5.06V943.22z M1106.87,943.22"/>
		<path class="st23" d="M1106.87,943.22c-6.5-3.36-10.8-10.01-11.89-17.92c-0.18-1.3-0.26-2.63-0.26-3.99v-11.14h44.56v11.14
			c0,1.36-0.08,2.69-0.26,3.99c-1.09,7.92-5.39,14.56-11.89,17.92c-2.96,1.54-6.36,2.39-10.13,2.39S1109.83,944.76,1106.87,943.22
			L1106.87,943.22z M1106.87,943.22"/>
		<path class="st14" d="M1144.02,957.27c-2.13-1.1-4.55-2.08-7.19-2.93c-0.16-0.08-0.46-0.25-0.87-0.47
			c-3.38-1.86-6.04-3.62-7.32-4.82v-4.92c6.15-3.52,10.36-9.83,11.71-17.56c3.49-1,6.52-4.27,6.52-7.28c0-3.05-2.29-5.07-6.08-5.49
			v-2.11h7.09v-1.52c0-1.96-1.7-9.48-5.47-9.61c-2.55-7.56-8.35-13.6-15.8-16.46v-2.78h-19.24v2.78
			c-7.46,2.86-13.26,8.91-15.8,16.46c-3.77,0.14-5.46,7.66-5.46,9.61v1.52h7.09v2.11c-3.79,0.42-6.08,2.44-6.08,5.49
			c0,3.01,3.03,6.28,6.52,7.28c1.35,7.73,5.55,14.04,11.71,17.56v4.92c-1.28,1.2-3.94,2.96-7.31,4.82
			c-0.42,0.23-0.72,0.39-0.88,0.48c-2.72,0.89-5.14,1.89-7.19,2.97c-12.67,6.52-12.97,15.25-12.98,15.62v6.61h80v-6.59
			C1157,972.58,1156.81,963.76,1144.02,957.27L1144.02,957.27z M1141.81,959.56v8.84h-5.06v-10.89
			C1138.57,958.13,1140.27,958.81,1141.81,959.56L1141.81,959.56z M1100.29,956.09c1.98-1.12,4.7-2.76,6.53-4.29
			c1.75,1.65,5.42,4.45,10.18,4.45s8.43-2.8,10.18-4.45c1.83,1.53,4.55,3.17,6.53,4.29v12.31h-33.42V956.09z M1117,947.13
			c3.05,0,5.94-0.53,8.61-1.56v3.51c-1.04,1.09-4.33,4.13-8.61,4.13c-4.25,0-7.56-3.05-8.61-4.13v-3.5
			C1111.06,946.61,1113.95,947.13,1117,947.13L1117,947.13z M1143.84,919.28c0,1.24-1.34,2.93-3.09,3.86c0.03-0.6,0.05-6.3,0.05-6.3
			C1143.51,917.23,1143.84,918.63,1143.84,919.28L1143.84,919.28z M1139.19,900.55h-12.57v-13.17
			C1132.38,889.93,1136.91,894.67,1139.19,900.55L1139.19,900.55z M1110.42,884.35h13.16v16.2h-13.16V884.35z M1107.38,887.38v13.17
			h-12.57C1097.08,894.67,1101.61,889.93,1107.38,887.38L1107.38,887.38z M1091.72,903.59h50.56c0.7,0.27,1.92,2.88,2.38,5.06
			h-55.33C1089.8,906.47,1091.02,903.85,1091.72,903.59L1091.72,903.59z M1090.16,919.28c0-0.65,0.33-2.05,3.04-2.43
			c0,0,0.02,5.7,0.05,6.3C1091.51,922.21,1090.16,920.53,1090.16,919.28L1090.16,919.28z M1096.49,925.09
			c-0.16-1.17-0.25-2.44-0.25-3.78v-9.62h41.52v9.62c0,1.33-0.08,2.61-0.25,3.78c-1.04,7.56-5.08,13.68-11.09,16.78
			c-2.83,1.47-6,2.22-9.43,2.22s-6.6-0.75-9.43-2.22C1101.57,938.77,1097.53,932.66,1096.49,925.09L1096.49,925.09z M1097.25,957.51
			v10.89h-5.06v-8.81C1093.69,958.85,1095.39,958.16,1097.25,957.51L1097.25,957.51z M1080.04,972.98
			c0.02-0.42,0.44-6.42,9.11-11.73v7.19c-1.71,0.25-3.04,1.72-3.04,3.5v4.05c0,0.17,0.02,0.34,0.04,0.51h-6.12V972.98z
			 M1089.66,976.5c-0.27,0-0.51-0.23-0.51-0.51v-4.05c0-0.27,0.23-0.51,0.51-0.51h54.68c0.27,0,0.51,0.23,0.51,0.51v4.05
			c0,0.27-0.23,0.51-0.51,0.51H1089.66z M1153.96,976.5h-6.12c0.02-0.17,0.04-0.33,0.04-0.51v-4.05c0-1.78-1.32-3.26-3.04-3.5v-7.24
			c8.8,5.33,9.1,11.42,9.11,11.78V976.5z M1153.96,976.5"/>
		<path class="st14" d="M1117,932.96h4.05v-3.04h-2.53v-6.58h-3.04v8.1C1115.48,932.28,1116.16,932.96,1117,932.96L1117,932.96z
			 M1117,932.96"/>
	</g>
</g>
<g id="Layer_6">
	<g>
		<path class="st24" d="M103.46,631.33v-15.73l-14.65-26.37h9.6l9.42,17.97h0.2l9.45-17.97h9.45l-14.67,26.37v15.73H103.46z"/>
		<path class="st24" d="M174.04,610.3c0,13.39-7.85,21.76-20.31,21.76c-12.49,0-20.31-8.37-20.31-21.76
			c0-13.42,7.82-21.79,20.31-21.79C166.19,588.5,174.04,596.88,174.04,610.3z M142.41,610.3c0,8.81,4.41,14.38,11.32,14.38
			c6.89,0,11.29-5.57,11.29-14.38c0-8.84-4.41-14.44-11.29-14.44S142.41,601.46,142.41,610.3z"/>
		<path class="st24" d="M194.49,615.58c0,5.4,3.18,8.93,8.84,8.93c5.63,0,8.81-3.53,8.81-8.93v-26.34h8.81v27.22
			c0,9.28-6.86,15.61-17.62,15.61c-10.79,0-17.65-6.33-17.65-15.61v-27.22h8.81V615.58z"/>
		<path class="st24" d="M242.74,631.33h-8.81v-42.1h17.24c9.69,0,15.23,5.11,15.23,13.42c0,5.4-2.8,10.07-7.64,11.96l8.87,16.72
			h-9.98l-7.85-15.4h-7.06V631.33z M242.74,609.54h7.59c4.43,0,7.03-2.54,7.03-6.71c0-4.08-2.74-6.71-7.12-6.71h-7.5V609.54z"/>
		<path class="st24" d="M295.95,631.33v-42.1h8.81v42.1H295.95z"/>
		<path class="st24" d="M317.74,631.33v-42.1h7.35l19.66,27.42h0.23v-27.42h8.43v42.1h-7.29l-19.69-27.57h-0.26v27.57H317.74z"/>
		<path class="st24" d="M382.48,589.23c12.63,0,20.07,7.53,20.07,20.89s-7.44,21.21-20.07,21.21h-16.08v-42.1H382.48z
			 M375.22,624.04h6.21c7.88,0,12.14-4.78,12.14-13.89c0-8.81-4.38-13.65-12.14-13.65h-6.21V624.04z"/>
		<path class="st24" d="M423,615.58c0,5.4,3.18,8.93,8.84,8.93c5.63,0,8.81-3.53,8.81-8.93v-26.34h8.81v27.22
			c0,9.28-6.86,15.61-17.62,15.61c-10.79,0-17.65-6.33-17.65-15.61v-27.22H423V615.58z"/>
		<path class="st24" d="M469.36,619.34c0.41,3.47,4.03,5.75,8.69,5.75c4.7,0,7.91-2.25,7.91-5.34c0-2.74-2.01-4.26-7.09-5.4
			l-5.48-1.2c-7.76-1.66-11.58-5.6-11.58-11.76c0-7.76,6.71-12.9,16.1-12.9c9.8,0,15.96,5.05,16.1,12.66h-8.26
			c-0.29-3.56-3.41-5.72-7.82-5.72c-4.35,0-7.26,2.07-7.26,5.19c0,2.6,2.04,4.06,6.89,5.16l5.11,1.08
			c8.43,1.81,12.11,5.43,12.11,11.84c0,8.17-6.62,13.33-17.07,13.33c-10.12,0-16.57-4.81-16.83-12.72H469.36z"/>
		<path class="st24" d="M516.22,631.33V596.5h-12.17v-7.26h33.17v7.26h-12.2v34.83H516.22z"/>
		<path class="st24" d="M556.88,631.33h-8.81v-42.1h17.24c9.69,0,15.23,5.11,15.23,13.42c0,5.4-2.8,10.07-7.64,11.96l8.87,16.72
			h-9.98l-7.85-15.4h-7.06V631.33z M556.88,609.54h7.59c4.43,0,7.03-2.54,7.03-6.71c0-4.08-2.74-6.71-7.12-6.71h-7.5V609.54z"/>
		<path class="st24" d="M603.39,631.33v-15.73l-14.65-26.37h9.6l9.42,17.97h0.2l9.45-17.97h9.45l-14.67,26.37v15.73H603.39z"/>
		<path class="st24" d="M682.71,631.33v-17.74h-18.96v17.74h-8.81v-42.1h8.81v17.1h18.96v-17.1h8.81v42.1H682.71z"/>
		<path class="st24" d="M732.39,631.33H704.5v-42.1h27.89v7.26h-19.08v10.15h18v6.77h-18v10.62h19.08V631.33z"/>
		<path class="st24" d="M771.95,631.33h-27.22v-42.1h8.81v34.81h18.41V631.33z"/>
		<path class="st24" d="M800.28,589.23c8.64,0,14.59,5.75,14.59,14.41c0,8.64-6.16,14.41-15.02,14.41h-7.88v13.27h-8.81v-42.1
			H800.28z M791.97,611.17h5.95c5.05,0,7.99-2.68,7.99-7.5c0-4.79-2.92-7.47-7.96-7.47h-5.98V611.17z"/>
		<path class="st24" d="M853.93,631.33h-27.89v-42.1h27.89v7.26h-19.08v10.15h18v6.77h-18v10.62h19.08V631.33z"/>
		<path class="st24" d="M875.08,631.33h-8.81v-42.1h17.24c9.69,0,15.23,5.11,15.23,13.42c0,5.4-2.8,10.07-7.64,11.96l8.87,16.72
			h-9.98l-7.85-15.4h-7.06V631.33z M875.08,609.54h7.58c4.43,0,7.03-2.54,7.03-6.71c0-4.08-2.74-6.71-7.12-6.71h-7.5V609.54z"/>
	</g>
</g>
<g id="title">
	<g>
		<path class="st16" d="M90.29,160.35V86.48h15.46v73.87H90.29z"/>
		<path d="M139,160.35V86.48h12.9l34.5,48.12h0.41V86.48h14.79v73.87h-12.8l-34.56-48.38h-0.46v48.38H139z"/>
		<path d="M252.52,160.35V99.23h-21.35V86.48h58.21v12.75h-21.4v61.12H252.52z"/>
		<path d="M367.83,160.35h-48.94V86.48h48.94v12.75h-33.48v17.81h31.59v11.88h-31.59v18.63h33.48V160.35z"/>
		<path d="M447.72,160.35h-47.76V86.48h15.46v61.07h32.3V160.35z"/>
		<path d="M525.61,160.35h-47.76V86.48h15.46v61.07h32.3V160.35z"/>
		<path d="M555.73,160.35V86.48h15.46v73.87H555.73z"/>
		<path d="M637.72,161.63c-22.06,0-35.58-14.44-35.58-38.45c0-23.65,13.52-37.99,35.22-37.99c17.25,0,30.25,10.19,32.46,25.14
			h-15.51C652.05,102.6,645.76,98,637.41,98c-12.18,0-19.5,9.27-19.5,24.98c0,16.02,7.78,25.8,20.07,25.8
			c10.08,0,17.1-6.19,17.41-15.36l0.05-1.18h-16.07v-11.26h31.13v8.34C670.48,149.45,658.3,161.63,637.72,161.63z"/>
		<path d="M750.57,160.35h-48.94V86.48h48.94v12.75h-33.48v17.81h31.59v11.88h-31.59v18.63h33.48V160.35z"/>
		<path d="M782.69,160.35V86.48h12.9l34.5,48.12h0.41V86.48h14.79v73.87h-12.8l-34.56-48.38h-0.46v48.38H782.69z"/>
		<path d="M896.21,160.35V99.23h-21.35V86.48h58.21v12.75h-21.4v61.12H896.21z"/>
		<path class="st16" d="M154.75,286.15v-49.86h-0.41l-20.07,49.15h-9.73l-20.07-49.15h-0.41v49.86H90.29v-73.87h17.92l20.99,52.37
			h0.41l20.99-52.37h17.92v73.87H154.75z"/>
		<path d="M244.51,268.23h-25.96l-5.63,17.92h-15.87l25.65-73.87h18.17l25.7,73.87h-16.43L244.51,268.23z M221.88,256.66h19.3
			l-9.47-30.26h-0.36L221.88,256.66z"/>
		<path d="M295.06,286.15v-73.87h12.9l34.5,48.12h0.41v-48.12h14.79v73.87h-12.8l-34.56-48.38h-0.46v48.38H295.06z"/>
		<path d="M406.38,258.51c0,9.47,5.58,15.67,15.51,15.67c9.88,0,15.46-6.19,15.46-15.67v-46.23h15.46v47.76
			c0,16.28-12.03,27.39-30.92,27.39c-18.94,0-30.97-11.11-30.97-27.39v-47.76h15.46V258.51z"/>
		<path d="M486.06,286.15v-73.87h48.38v12.75h-32.92v19.81h30.05v12.24h-30.05v29.08H486.06z"/>
		<path d="M602.14,268.23h-25.96l-5.63,17.92h-15.87l25.65-73.87h18.17l25.7,73.87h-16.43L602.14,268.23z M579.51,256.66h19.3
			l-9.47-30.26h-0.36L579.51,256.66z"/>
		<path d="M646.8,249.19c0-23.81,13.57-38.19,34.97-38.19c17.76,0,31.28,11.26,32.46,27.8h-15.05c-1.43-9.06-8.4-15-17.41-15
			c-11.67,0-19.2,9.78-19.2,25.34c0,15.77,7.42,25.49,19.25,25.49c9.16,0,15.77-5.38,17.41-14.13h15.05
			c-1.74,16.48-14.39,26.93-32.51,26.93C660.26,287.43,646.8,273.05,646.8,249.19z"/>
		<path d="M760.11,286.15v-61.12h-21.35v-12.75h58.21v12.75h-21.4v61.12H760.11z"/>
		<path d="M841.94,258.51c0,9.47,5.58,15.67,15.51,15.67c9.88,0,15.46-6.19,15.46-15.67v-46.23h15.46v47.76
			c0,16.28-12.03,27.39-30.92,27.39c-18.94,0-30.97-11.11-30.97-27.39v-47.76h15.46V258.51z"/>
		<path d="M937.08,286.15h-15.46v-73.87h30.25c17,0,26.72,8.96,26.72,23.55c0,9.47-4.91,17.66-13.41,20.99l15.56,29.33h-17.51
			l-13.77-27.03h-12.39V286.15z M937.08,247.91h13.31c7.78,0,12.34-4.45,12.34-11.77c0-7.17-4.81-11.77-12.49-11.77h-13.16V247.91z"
			/>
		<path d="M1009.7,286.15v-73.87h15.46v73.87H1009.7z"/>
		<path d="M1058.41,286.15v-73.87h12.9l34.5,48.12h0.41v-48.12h14.79v73.87h-12.8l-34.56-48.38h-0.46v48.38H1058.41z"/>
		<path d="M1187.54,287.43c-22.06,0-35.58-14.44-35.58-38.45c0-23.65,13.51-37.99,35.22-37.99c17.25,0,30.25,10.19,32.46,25.14
			h-15.51c-2.25-7.73-8.55-12.34-16.89-12.34c-12.18,0-19.5,9.27-19.5,24.98c0,16.02,7.78,25.8,20.07,25.8
			c10.08,0,17.1-6.19,17.41-15.36l0.05-1.18h-16.08v-11.26h31.13v8.34C1220.3,275.25,1208.12,287.43,1187.54,287.43z"/>
		<path class="st16" d="M139.23,411.95H90.29v-73.87h48.94v12.75h-33.48v17.81h31.59v11.88h-31.59v18.63h33.48V411.95z"/>
		<path d="M190.86,374.94v-0.41l-23.29-36.45h18.17l15.67,26.62h0.41l15.82-26.62h17.25l-24.16,36.76v0.36l23.86,36.76h-17.61
			l-16.18-25.85h-0.41l-16.28,25.85h-16.69L190.86,374.94z"/>
		<path d="M313.13,411.95h-48.94v-73.87h48.94v12.75h-33.48v17.81h31.59v11.88h-31.59v18.63h33.48V411.95z"/>
		<path d="M342.95,374.99c0-23.81,13.57-38.19,34.97-38.19c17.76,0,31.28,11.26,32.46,27.8h-15.05c-1.43-9.06-8.4-15-17.41-15
			c-11.67,0-19.2,9.78-19.2,25.34c0,15.77,7.42,25.49,19.25,25.49c9.16,0,15.77-5.38,17.41-14.13h15.05
			c-1.74,16.48-14.39,26.93-32.51,26.93C356.42,413.23,342.95,398.85,342.95,374.99z"/>
		<path d="M456.37,384.31c0,9.47,5.58,15.67,15.51,15.67c9.88,0,15.46-6.19,15.46-15.67v-46.23h15.46v47.76
			c0,16.28-12.03,27.39-30.92,27.39c-18.94,0-30.97-11.11-30.97-27.39v-47.76h15.46V384.31z"/>
		<path d="M553.71,411.95v-61.12h-21.35v-12.75h58.21v12.75h-21.4v61.12H553.71z"/>
		<path d="M620.08,411.95v-73.87h15.46v73.87H620.08z"/>
		<path d="M737.75,375.04c0,23.5-13.77,38.19-35.63,38.19c-21.91,0-35.63-14.69-35.63-38.19c0-23.55,13.72-38.24,35.63-38.24
			C723.98,336.8,737.75,351.49,737.75,375.04z M682.25,375.04c0,15.46,7.73,25.24,19.86,25.24c12.08,0,19.81-9.78,19.81-25.24
			c0-15.51-7.73-25.34-19.81-25.34C690.03,349.7,682.25,359.53,682.25,375.04z"/>
		<path d="M768.64,411.95v-73.87h12.9l34.5,48.12h0.41v-48.12h14.79v73.87h-12.8l-34.56-48.38h-0.46v48.38H768.64z"/>
		<path class="st16" d="M102.43,516.71c0.72,6.09,7.06,10.08,15.26,10.08c8.24,0,13.87-3.94,13.87-9.37c0-4.81-3.53-7.47-12.44-9.47
			l-9.62-2.1c-13.62-2.92-20.32-9.83-20.32-20.63c0-13.62,11.77-22.63,28.26-22.63c17.2,0,28,8.86,28.26,22.22H131.2
			c-0.51-6.25-5.99-10.03-13.72-10.03c-7.63,0-12.75,3.63-12.75,9.11c0,4.56,3.58,7.12,12.08,9.06l8.96,1.89
			c14.79,3.17,21.25,9.52,21.25,20.78c0,14.33-11.62,23.4-29.95,23.4c-17.76,0-29.08-8.45-29.54-22.32H102.43z"/>
		<path d="M196.39,537.75v-27.59l-25.7-46.28h16.84l16.54,31.54h0.36l16.59-31.54h16.59l-25.75,46.28v27.59H196.39z"/>
		<path d="M276.17,516.71c0.72,6.09,7.06,10.08,15.26,10.08c8.24,0,13.87-3.94,13.87-9.37c0-4.81-3.53-7.47-12.44-9.47l-9.62-2.1
			c-13.62-2.92-20.32-9.83-20.32-20.63c0-13.62,11.77-22.63,28.26-22.63c17.2,0,28,8.86,28.26,22.22h-14.49
			c-0.51-6.25-5.99-10.03-13.72-10.03c-7.63,0-12.75,3.63-12.75,9.11c0,4.56,3.58,7.12,12.08,9.06l8.96,1.89
			c14.79,3.17,21.25,9.52,21.25,20.78c0,14.33-11.62,23.4-29.95,23.4c-17.76,0-29.08-8.45-29.54-22.32H276.17z"/>
		<path d="M368.85,537.75v-61.12h-21.35v-12.75h58.21v12.75h-21.4v61.12H368.85z"/>
		<path d="M484.16,537.75h-48.94v-73.87h48.94v12.75h-33.48v17.81h31.59v11.88h-31.59v18.63h33.48V537.75z"/>
		<path d="M580.74,537.75v-49.86h-0.41l-20.07,49.15h-9.73l-20.07-49.15h-0.41v49.86h-13.77v-73.87h17.92l20.99,52.37h0.41
			l20.99-52.37h17.92v73.87H580.74z"/>
	</g>
</g>
<g id="Layer_5">
	<g>
	</g>
	<g>
	</g>
	<g>
	</g>
	<g>
	</g>
	<g>
	</g>
	<g>
	</g>
	<g>
	</g>
	<g>
	</g>
	<g>
	</g>
	<g>
	</g>
	<g>
	</g>
	<g>
	</g>
	<g>
	</g>
	<g>
	</g>
	<g>
	</g>
</g>
</svg>
