<?xml version="1.0" encoding="utf-8"?>
<!-- Generator: Adobe Illustrator 21.1.0, SVG Export Plug-In . SVG Version: 6.00 Build 0)  -->
<svg version="1.1" id="Layer_1" xmlns="http://www.w3.org/2000/svg" xmlns:xlink="http://www.w3.org/1999/xlink" x="0px" y="0px"
	 viewBox="0 0 1500 1500" style="enable-background:new 0 0 1500 1500;" xml:space="preserve">
<style type="text/css">
	.st0{fill:#F6D9B7;}
	.st1{fill:#E2BCA5;}
	.st2{fill:#CCA092;}
	.st3{fill:#E0E4E4;}
	.st4{fill:#FCFDFF;}
	.st5{fill:#808184;}
	.st6{fill:#E39D3A;}
	.st7{fill:#6D7374;}
	.st8{fill:#979D9F;}
	.st9{fill:#7C8082;}
	.st10{fill:#D3D3D3;}
	.st11{fill:#536276;}
	.st12{fill:#5E6D7D;}
	.st13{fill:#E2E4E5;}
	.st14{fill:#A7ABAC;}
	.st15{fill:#F1F1F2;}
	.st16{fill:#705465;}
	.st17{fill:#D68E31;}
	.st18{fill:#C5DAE6;}
	.st19{fill:#FBB456;}
	.st20{fill:#D49B6E;}
	.st21{fill:#FBBB80;}
	.st22{fill:#753D37;}
	.st23{fill:#F6C9A3;}
	.st24{opacity:0.2;fill:#404041;}
	.st25{fill:#250920;}
	.st26{fill:#40363B;}
	.st27{fill:#4E444A;}
	.st28{fill:#BBBDBF;}
	.st29{fill:#929497;}
	.st30{fill:#D0D2D3;}
	.st31{fill:#3A3D3F;}
	.st32{fill:#3C3E4A;}
	.st33{fill:#838383;}
	.st34{fill:#A4A7A9;}
	.st35{fill:#808080;}
	.st36{fill:#32343F;}
	.st37{fill:#70565D;}
	.st38{enable-background:new    ;}
	.st39{fill:#4F565B;}
	.st40{fill:#E6E7E8;}
	.st41{fill-rule:evenodd;clip-rule:evenodd;fill:#F1F1F2;}
	.st42{fill:#F6921E;}
	.st43{fill:#96999B;}
	.st44{opacity:0.2;fill:#FFFFFF;}
	.st45{fill:#E5E2E6;}
	.st46{fill:#D8D2D6;}
	.st47{fill:#F1F1F1;}
	.st48{fill:#00ADEE;}
</style>
<g>
	<g>
		<polygon class="st0" points="795.3,1355.9 1453.8,975.2 704.7,542.6 46.2,923.2 		"/>
		<polygon class="st1" points="795,1356 795,1376.8 1454,995.8 1454,975 		"/>
		<polygon class="st2" points="46,923.2 46,944 795,1376.6 795,1355.8 		"/>
	</g>
	<polygon class="st2" points="217.7,824.1 787.9,1155.8 683.7,1216.5 113.1,884.5 	"/>
	<polygon class="st2" points="1271.6,869.9 679.9,1214.3 784.1,1274.9 1376.2,930.4 	"/>
	<polygon class="st2" points="1058.6,747 783.6,906.2 997,1029.7 1271.8,869.8 	"/>
	<g>
		<g>
			<path class="st3" d="M739,213.5v415.8c0,7.4-13.2,13.5-29.5,13.5c-16.3,0-29.5-6-29.5-13.5V213.5H739z"/>
			<ellipse class="st4" cx="709.6" cy="213.2" rx="29.3" ry="13.5"/>
			<ellipse class="st5" cx="709.6" cy="213.2" rx="21.7" ry="8.3"/>
		</g>
		<path class="st6" d="M709.5,426.5c-13.9,0-25.6-4.2-29.5-10v-140c0,7.5,13.2,13.5,29.5,13.5c16.3,0,29.5-6.1,29.5-13.5v140
			C735.1,422.3,723.4,426.5,709.5,426.5z"/>
	</g>
	<g>
		<polygon class="st7" points="408,824 267,742 267,795.8 408,877.8 		"/>
		<polygon class="st8" points="613.8,543.1 267.5,742 408.4,824 755.4,623.2 		"/>
		<polygon class="st9" points="755,623.3 408,824 408,877.8 755,677.1 		"/>
	</g>
	<g>
		<polygon class="st10" points="408,692 267,609.2 267,742 408,824.1 		"/>
		<polygon class="st4" points="541.4,449.8 267.5,609.3 408.4,692 683,532.2 		"/>
		<polygon class="st3" points="683,532 408,692 408,824.2 683,665 		"/>
	</g>
	<g>
		<polygon class="st10" points="352,590 298,558.3 298,591.5 352,622.9 		"/>
		<polygon class="st4" points="453.1,468.6 298.2,558 352.7,590 507.9,500.5 		"/>
		<polygon class="st3" points="508,500.5 353,590 353,623.2 508,534 		"/>
	</g>
	<g>
		<polygon class="st7" points="784,852.2 572,729.2 572,783.1 784,906.1 		"/>
		<polygon class="st8" points="846.2,572.2 572.2,729.3 784,852.2 1058.6,693.2 		"/>
		<polygon class="st9" points="1059,693 784,852.2 784,906.1 1059,746.9 		"/>
	</g>
	<g>
		<polygon class="st10" points="784,720.2 572,596.4 572,729.3 784,852.3 		"/>
		<polygon class="st4" points="846.1,437.2 572.2,596.6 783.9,720.2 1058.6,560.4 		"/>
		<polygon class="st3" points="1059,560.2 784,720.2 784,852.4 1059,693.1 		"/>
	</g>
	<g>
		<polygon class="st10" points="784,642.5 572,518.8 572,557.9 784,680.9 		"/>
		<polygon class="st4" points="846.1,359.5 572.1,518.9 783.9,642.5 1058.5,482.7 		"/>
		<polygon class="st3" points="1059,482.6 784,642.6 784,680.9 1059,521.7 		"/>
	</g>
	<g>
		<polygon class="st11" points="784,680.8 588,567.1 588,596 784,709.7 		"/>
		<polygon class="st12" points="1038,533.7 784,680.7 784,709.6 1038,561.7 		"/>
	</g>
	<polygon class="st4" points="842.5,367.9 600.7,508.6 787.6,617.6 1029.9,476.6 	"/>
	<polygon class="st13" points="600.7,508.6 572.1,518.9 783.9,642.5 787.6,617.6 	"/>
	<polygon class="st10" points="787.6,617.6 783.9,642.5 1058.5,482.7 1029.9,476.6 	"/>
	<polygon class="st13" points="1029.9,476.6 1058.5,482.7 846.1,359.5 842.5,367.9 	"/>
	<polygon class="st10" points="572.1,518.9 600.7,508.6 842.5,367.9 846.1,359.5 	"/>
	<polygon class="st8" points="702.8,871.2 759.7,838.1 656.7,778.3 599.8,811.5 	"/>
	<polygon class="st14" points="547.1,1015.7 702.8,871.2 599.8,811.5 444.3,955.9 	"/>
	<polygon class="st9" points="760,892 547.4,1015.7 703.1,871.2 760,838.1 	"/>
	<g>
		<polygon class="st15" points="755,826.4 664.7,773.9 656.9,778.3 755,835.4 		"/>
		<polygon class="st16" points="665,773.8 665,695.6 755,747.6 755,826.1 		"/>
		<polygon class="st3" points="657,689.5 657,779.7 665,775.1 665,694.2 		"/>
	</g>
	<polygon class="st10" points="657,712.2 675.5,701.6 657,690.9 	"/>
	<polygon class="st10" points="755,769.2 741,739.5 755,747.6 	"/>
	<g>
		<polygon class="st6" points="1167,806.3 1167,874.2 1220,843.6 1220,775.7 		"/>
		<polygon class="st17" points="1166,806.2 1166,874.5 1003,780.4 1003,712.1 		"/>
		<polygon class="st18" points="1150,809.9 1150,831.2 1099,801.8 1099,780.4 		"/>
		<polygon class="st18" points="1150,839.9 1150,854.6 1115,834.3 1115,819.7 		"/>
		<polygon class="st19" points="1219.7,775.4 1166.4,806.2 1003.3,712 1056.6,681.2 		"/>
	</g>
	<g>
		<polygon class="st6" points="1083,855.1 1083,923 1136,892.4 1136,824.5 		"/>
		<polygon class="st17" points="1083,855 1083,923.3 920,829.2 920,760.8 		"/>
		<polygon class="st18" points="1066,858.6 1066,880 1015,850.6 1015,829.2 		"/>
		<polygon class="st18" points="1066,888.7 1066,903.3 1031,883.1 1031,868.5 		"/>
		<polygon class="st19" points="1135.9,824.2 1082.6,855 919.5,760.8 972.8,730 		"/>
	</g>
	<g>
		<polygon class="st12" points="537,672.3 537,646.3 557,634.7 557,660.5 		"/>
		<polygon class="st10" points="557,634.7 552,637.5 552,657.6 557,660.4 		"/>
		<polygon class="st4" points="552.2,657.8 537,666.5 537,672.5 557.3,660.6 		"/>
	</g>
	<g>
		<polygon class="st12" points="500,694 500,668.1 520,656.5 520,682.3 		"/>
		<polygon class="st10" points="520,656.4 515,659.3 515,679.3 520,682.1 		"/>
		<polygon class="st4" points="515.2,679.5 500,688.3 500,694.3 520.3,682.4 		"/>
	</g>
	<g>
		<polygon class="st12" points="463,715.8 463,689.9 483,678.3 483,704 		"/>
		<polygon class="st10" points="483,678.2 478,681.1 478,701.1 483,703.9 		"/>
		<polygon class="st4" points="478.2,701.3 463,710.1 463,716.1 483.3,704.1 		"/>
	</g>
	<g>
		<polygon class="st12" points="426,737.6 426,711.7 446,700 446,725.8 		"/>
		<polygon class="st10" points="446,700 441,702.8 441,722.9 446,725.7 		"/>
		<polygon class="st4" points="440.2,723.1 425,731.9 425,737.9 445.3,725.9 		"/>
	</g>
	<g>
		<polygon class="st12" points="310,687.3 310,661.4 290,649.8 290,675.6 		"/>
		<polygon class="st3" points="290,649.7 295,652.6 295,672.6 290,675.4 		"/>
		<polygon class="st4" points="294.8,672.8 310,681.6 310,687.6 289.7,675.7 		"/>
	</g>
	<g>
		<polygon class="st12" points="347,709.1 347,683.2 327,671.6 327,697.3 		"/>
		<polygon class="st3" points="327,671.5 332,674.4 332,694.4 327,697.2 		"/>
		<polygon class="st4" points="332.8,694.6 348,703.4 348,709.4 327.7,697.4 		"/>
	</g>
	<g>
		<polygon class="st12" points="385,730.9 385,704.9 365,693.3 365,719.1 		"/>
		<polygon class="st3" points="364,693.3 369,696.1 369,716.2 364,719 		"/>
		<polygon class="st4" points="369.8,716.4 385,725.2 385,731.2 364.7,719.2 		"/>
	</g>
	<g>
		<polygon class="st20" points="261,803.6 261,835.7 286,821.3 286,789.2 		"/>
		<polygon class="st21" points="260,803.6 260,835.6 230,818.3 230,786.3 		"/>
		<polygon class="st22" points="257,805.9 257,815.1 248,809.9 248,800.7 		"/>
		<polygon class="st23" points="285.7,788.9 260.4,803.5 229.9,785.9 255.2,771.3 		"/>
	</g>
	<g>
		<polygon class="st20" points="303,828.6 303,860.7 328,846.2 328,814.2 		"/>
		<polygon class="st21" points="303,828.6 303,860.6 273,843.2 273,811.3 		"/>
		<polygon class="st22" points="300,830.9 300,840 291,834.8 291,825.7 		"/>
		<polygon class="st23" points="328.2,813.9 302.9,828.5 272.4,810.9 297.7,796.3 		"/>
	</g>
	<g>
		<polygon class="st20" points="346,853.6 346,885.6 371,871.2 371,839.2 		"/>
		<polygon class="st21" points="345,853.6 345,885.6 315,868.2 315,836.3 		"/>
		<polygon class="st22" points="342,855.9 342,865 333,859.8 333,850.7 		"/>
		<polygon class="st23" points="370.7,838.9 345.4,853.5 314.9,835.9 340.2,821.2 		"/>
	</g>
	<g>
		<g>
			<path class="st5" d="M367.3,547.4c7.8,4.5,7.9,11.9,0.1,16.4c-7.8,4.5-20.5,4.5-28.3,0c-7.8-4.5-7.9-11.9-0.1-16.4
				C346.8,542.9,359.4,542.9,367.3,547.4z"/>
		</g>
		<path class="st10" d="M339,550.4c7.8-4.5,20.4-4.5,28.3,0c3.3,1.9,5.2,4.3,5.7,6.7c0.8-3.5-1.1-7.1-5.7-9.7
			c-7.8-4.5-20.5-4.5-28.3,0c-4.5,2.6-6.4,6.2-5.6,9.7C333.9,554.7,335.8,552.3,339,550.4z"/>
	</g>
	<g>
		<g>
			<path class="st5" d="M418.3,520.1c7.8,4.5,7.9,11.9,0.1,16.4c-7.8,4.5-20.5,4.5-28.3,0c-7.8-4.5-7.9-11.9-0.1-16.4
				C397.8,515.6,410.5,515.6,418.3,520.1z"/>
		</g>
		<path class="st10" d="M390.1,523.1c7.8-4.5,20.4-4.5,28.3,0c3.3,1.9,5.2,4.3,5.7,6.7c0.8-3.5-1.1-7.1-5.7-9.7
			c-7.8-4.5-20.5-4.5-28.3,0c-4.5,2.6-6.4,6.2-5.6,9.7C385,527.3,386.8,525,390.1,523.1z"/>
	</g>
	<g>
		<g>
			<path class="st5" d="M468.2,492.5c7.8,4.5,7.9,11.9,0.1,16.4c-7.8,4.5-20.5,4.5-28.3,0c-7.8-4.5-7.9-11.9-0.1-16.4
				C447.7,488,460.4,488,468.2,492.5z"/>
		</g>
		<path class="st10" d="M439.9,495.6c7.8-4.5,20.4-4.5,28.3,0c3.3,1.9,5.2,4.3,5.7,6.7c0.8-3.5-1.1-7.1-5.7-9.7
			c-7.8-4.5-20.5-4.5-28.3,0c-4.5,2.6-6.4,6.2-5.6,9.7C434.8,499.8,436.7,497.4,439.9,495.6z"/>
	</g>
	<g>
		<path class="st3" d="M142,857.5h-40v73.9c-0.1,0.3-0.1,0.6-0.1,0.9c0,0.1,0,0.1,0,0.2c0,0.6,0,1.3,0.2,1.9c0,0,0,0,0,0l0,0
			c0.6,2.5,2.5,4.8,5.7,6.7c7.9,4.5,20.6,4.5,28.4,0c3.2-1.9,5.1-4.2,5.6-6.7l0,0l0,0l0,0h0.2V857.5z"/>
		<g>
			<g>
				<path class="st4" d="M135.9,850c7.8,4.5,7.9,11.9,0.1,16.4c-7.8,4.5-20.5,4.5-28.3,0c-7.8-4.5-7.9-11.9-0.1-16.4
					C115.4,845.5,128.1,845.5,135.9,850z"/>
			</g>
			<path class="st10" d="M107.6,853.1c7.8-4.5,20.4-4.5,28.3,0c3.3,1.9,5.2,4.3,5.7,6.7c0.8-3.5-1.1-7.1-5.7-9.7
				c-7.8-4.5-20.5-4.5-28.3,0c-4.5,2.6-6.4,6.2-5.6,9.7C102.6,857.3,104.4,854.9,107.6,853.1z"/>
		</g>
		<path class="st6" d="M140.6,896.5c-1,1.4-2.4,2.8-4.4,3.9c-7.8,4.5-20.6,4.5-28.4,0c-3.3-1.9-5.2-4.3-5.7-6.7v-0.1v27.9
			c0.6,2.5,2.5,4.8,5.8,6.7c7.9,4.5,20.7,4.5,28.6,0c3.2-1.9,5.1-4.2,5.7-6.7v0c0,0,0,0,0,0c0.1-0.6,0.2-1.3,0.2-1.9
			c0,0,0-0.1,0-0.1c0,0,0,0,0,0H142v-26C142,894.7,140.6,896.5,140.6,896.5L140.6,896.5z"/>
	</g>
	<g>
		<path class="st3" d="M191,886.5h-40v73.9c-0.1,0.3-0.1,0.6-0.1,0.9c0,0.1,0,0.1,0,0.2c0,0.6,0,1.3,0.2,1.9h0l0,0
			c0.6,2.5,2.5,4.8,5.7,6.7c7.9,4.5,20.6,4.5,28.4,0c3.2-1.9,5.1-4.2,5.6-6.7l0,0l0,0l0,0h0.2V886.5z"/>
		<g>
			<g>
				<path class="st4" d="M185.2,878.6c7.8,4.5,7.9,11.9,0.1,16.4c-7.8,4.5-20.5,4.5-28.3,0c-7.8-4.5-7.9-11.9-0.1-16.4
					C164.7,874,177.4,874,185.2,878.6z"/>
			</g>
			<path class="st10" d="M157,881.6c7.8-4.5,20.4-4.5,28.3,0c3.3,1.9,5.2,4.3,5.7,6.7c0.8-3.5-1.1-7.1-5.7-9.7
				c-7.8-4.5-20.5-4.5-28.3,0c-4.5,2.6-6.4,6.2-5.6,9.7C151.9,885.8,153.8,883.4,157,881.6z"/>
		</g>
		<path class="st6" d="M189.6,925.5c-1,1.4-2.4,2.8-4.4,3.9c-7.8,4.5-20.6,4.5-28.4,0c-3.3-1.9-5.2-4.3-5.7-6.7l0,0v27.8
			c0.6,2.5,2.5,4.8,5.7,6.7c7.9,4.5,20.6,4.5,28.4,0c3.2-1.9,5.1-4.2,5.6-6.6l0,0l0,0c0.1-0.6,0.2-1.3,0.2-1.9c0,0,0-0.1,0-0.1
			c0,0,0,0,0,0h0v-26C191,923.7,189.6,925.5,189.6,925.5L189.6,925.5z"/>
	</g>
	<g>
		<path class="st3" d="M241,914.5h-40v73.9c-0.1,0.3-0.1,0.6-0.1,0.9c0,0.1,0,0.1,0,0.2c0,0.6,0,1.3,0.2,1.9v0h0
			c0.6,2.5,2.5,4.9,5.7,6.7c7.9,4.5,20.6,4.5,28.4,0c3.2-1.9,5.1-4.2,5.6-6.7l0,0l0,0l0,0h0.2V914.5z"/>
		<g>
			<g>
				<path class="st4" d="M234.6,907.1c7.8,4.5,7.9,11.9,0.1,16.4c-7.8,4.5-20.5,4.5-28.3,0c-7.8-4.5-7.9-11.9-0.1-16.4
					C214.1,902.5,226.7,902.5,234.6,907.1z"/>
			</g>
			<path class="st10" d="M206.3,910.1c7.8-4.5,20.4-4.5,28.3,0c3.3,1.9,5.2,4.3,5.7,6.7c0.8-3.5-1.1-7.1-5.7-9.7
				c-7.8-4.5-20.5-4.5-28.3,0c-4.5,2.6-6.4,6.2-5.6,9.7C201.2,914.3,203.1,911.9,206.3,910.1z"/>
		</g>
		<path class="st6" d="M239.6,953.5c-1,1.4-2.4,2.8-4.4,3.9c-7.8,4.5-20.6,4.5-28.4,0c-3.3-1.9-5.2-4.3-5.7-6.7l0,0v27.8
			c0.6,2.5,2.5,4.8,5.7,6.7c7.9,4.5,20.6,4.5,28.4,0c3.2-1.9,5.1-4.2,5.6-6.6l0,0c0,0,0,0,0,0c0.1-0.6,0.2-1.3,0.2-1.9
			c0,0,0-0.1,0-0.1c0,0,0,0,0,0h0v-26C241,951.7,239.6,953.5,239.6,953.5L239.6,953.5z"/>
	</g>
	<g>
		<g>
			<polygon class="st24" points="686.5,1071.4 623.7,1034.3 766.9,950.9 829.7,988 			"/>
			<g>
				<polygon class="st25" points="729,1028.3 821,975.9 816,972 729,1023.9 				"/>
				<polygon class="st25" points="824,979.9 815.1,974.2 824,969 				"/>
				<g>
					<g>
						<path class="st26" d="M798.8,1008.6c0,0-0.1-0.1-0.1-0.1c-0.1-0.1-0.2-0.2-0.3-0.3c0,0,0,0,0,0c-0.1-0.1-0.2-0.2-0.3-0.3
							c0,0-0.1-0.1-0.1-0.1c-0.1-0.1-0.1-0.2-0.2-0.3c0,0-0.1-0.1-0.1-0.1c-0.1-0.1-0.1-0.2-0.2-0.3c0,0,0-0.1-0.1-0.1
							c-0.1-0.1-0.2-0.3-0.3-0.4c-0.1-0.2-0.2-0.3-0.2-0.5c0,0,0-0.1,0-0.1c-0.1-0.1-0.1-0.3-0.2-0.4c0,0,0-0.1,0-0.1
							c0-0.1-0.1-0.2-0.1-0.2c0-0.1-0.1-0.3-0.1-0.4c0-0.1-0.1-0.2-0.1-0.3c0-0.1-0.1-0.2-0.1-0.3c0-0.1,0-0.2-0.1-0.3
							c0-0.1,0-0.2-0.1-0.3c0-0.1,0-0.2-0.1-0.3c0-0.1,0-0.2,0-0.3c0-0.1,0-0.3,0-0.4c0-0.1,0-0.2,0-0.3c0-0.2,0-0.3,0-0.5
							c0-0.1,0-0.1,0-0.2c0-0.2,0-0.5,0-0.7c0-0.2,0-0.5,0-0.7c0-0.1,0-0.2,0-0.2c0-0.2,0-0.3,0-0.5c0-0.1,0-0.2,0-0.2
							c0-0.2,0-0.3,0.1-0.5c0-0.1,0-0.1,0-0.2c0-0.2,0.1-0.5,0.1-0.7c0,0,0-0.1,0-0.1c0-0.2,0.1-0.4,0.1-0.6c0-0.1,0-0.2,0.1-0.3
							c0-0.2,0.1-0.3,0.1-0.5c0-0.1,0-0.2,0.1-0.3c0-0.2,0.1-0.3,0.1-0.5c0-0.1,0-0.2,0.1-0.3c0-0.2,0.1-0.3,0.1-0.5
							c0-0.1,0-0.2,0.1-0.2c0.1-0.2,0.2-0.5,0.2-0.7c0,0,0,0,0-0.1c0.1-0.2,0.2-0.5,0.2-0.7c0-0.1,0.1-0.1,0.1-0.2
							c0.1-0.2,0.1-0.3,0.2-0.5c0-0.1,0.1-0.2,0.1-0.2c0.1-0.2,0.1-0.4,0.2-0.5c0-0.1,0.1-0.1,0.1-0.2c0.1-0.2,0.2-0.5,0.3-0.7
							c0-0.1,0.1-0.1,0.1-0.2c0.1-0.2,0.2-0.4,0.3-0.5c0.1-0.1,0.1-0.3,0.2-0.4c0.1-0.1,0.1-0.2,0.2-0.4c0.2-0.3,0.4-0.7,0.5-1
							c0.1-0.1,0.1-0.2,0.2-0.3c0.1-0.1,0.2-0.3,0.2-0.4c0.1-0.1,0.1-0.2,0.2-0.4c0.1-0.1,0.2-0.3,0.2-0.4c0.1-0.1,0.1-0.2,0.2-0.2
							c0.2-0.3,0.5-0.7,0.7-1c0,0,0,0,0,0c0.2-0.2,0.4-0.5,0.5-0.7c0.1-0.2,0.3-0.4,0.4-0.5c0,0,0.1-0.1,0.1-0.1
							c0.2-0.2,0.3-0.4,0.5-0.6c0.1-0.1,0.1-0.1,0.2-0.2c0.1-0.1,0.3-0.3,0.4-0.4c0.1-0.1,0.1-0.2,0.2-0.2c0.1-0.1,0.2-0.2,0.3-0.3
							c0.1-0.1,0.2-0.2,0.2-0.2c0.1-0.1,0.2-0.2,0.3-0.3c0.1-0.1,0.2-0.2,0.3-0.2c0.1-0.1,0.2-0.2,0.3-0.3c0.1-0.1,0.2-0.2,0.3-0.2
							c0.1-0.1,0.2-0.2,0.3-0.3c0.1-0.1,0.2-0.1,0.3-0.2c0.1-0.1,0.2-0.2,0.4-0.3c0.1-0.1,0.2-0.1,0.2-0.2c0.1-0.1,0.3-0.2,0.4-0.3
							c0.1,0,0.1-0.1,0.2-0.1c0.2-0.1,0.4-0.3,0.6-0.4c0,0,0,0,0,0c0.2-0.1,0.4-0.3,0.6-0.4c0.2-0.1,0.4-0.2,0.6-0.3
							c0.1,0,0.1-0.1,0.2-0.1c0.1-0.1,0.3-0.1,0.4-0.2c0.1,0,0.1-0.1,0.2-0.1c0.2-0.1,0.4-0.2,0.6-0.2c0.2-0.1,0.4-0.2,0.6-0.2
							c0.1,0,0.1,0,0.2-0.1c0.1,0,0.3-0.1,0.4-0.1c0.1,0,0.1,0,0.2-0.1c0.1,0,0.2-0.1,0.4-0.1c0.1,0,0.2,0,0.2,0
							c0.1,0,0.2,0,0.3-0.1c0.1,0,0.2,0,0.3,0c0.1,0,0.2,0,0.3,0c0.1,0,0.2,0,0.3,0c0.1,0,0.2,0,0.3,0c0.1,0,0.2,0,0.3,0
							c0.1,0,0.3,0,0.4,0c0,0,0,0,0,0c0.1,0,0.3,0,0.4,0c0,0,0.1,0,0.1,0c0.2,0,0.3,0,0.5,0.1c0,0,0.1,0,0.1,0
							c0.1,0,0.2,0.1,0.4,0.1c0.1,0,0.1,0,0.2,0.1c0.1,0,0.2,0.1,0.3,0.1c0.1,0,0.2,0.1,0.3,0.1c0.1,0,0.1,0,0.2,0.1
							c0.2,0.1,0.3,0.2,0.5,0.2c0,0-12.1-7.1-12.1-7.1c-0.2-0.1-0.3-0.2-0.5-0.2c-0.1,0-0.1,0-0.2-0.1c-1.8-0.8-3.9-0.6-5.7,0
							c-1.8,0.6-3.6,1.6-5,2.8c0,0-0.1,0.1-0.1,0.1c-0.1,0.1-0.2,0.1-0.3,0.2c-5.5,4.5-9.4,11.6-9.9,18.7c-0.2,2.4,0.1,5.2,1.4,7.3
							c0,0,0,0,0,0c0,0,0,0.1,0.1,0.1c0.1,0.1,0.1,0.2,0.2,0.3c0,0,0.1,0.1,0.1,0.1c0.1,0.1,0.1,0.2,0.2,0.3c0,0,0.1,0.1,0.1,0.1
							c0.1,0.1,0.2,0.2,0.3,0.3c0,0,0,0,0,0c0.1,0.1,0.2,0.2,0.3,0.3c0,0,0.1,0.1,0.1,0.1c0.1,0.1,0.2,0.1,0.3,0.2
							c0,0,0.1,0.1,0.1,0.1c0.1,0.1,0.2,0.2,0.4,0.2l12.1,7.1c-0.1-0.1-0.3-0.2-0.4-0.2c0,0-0.1-0.1-0.1-0.1
							C799,1008.8,798.9,1008.7,798.8,1008.6z"/>
						<g>
							<path class="st27" d="M808.6,979c-7,4.1-12.7,13.9-12.7,22c0,8.1,5.7,11.3,12.8,7.3c7-4.1,12.7-13.9,12.7-22
								C821.3,978.2,815.6,975,808.6,979z"/>
						</g>
					</g>
					<g>
						<g>
							<path class="st28" d="M809,984.7c-4.3,2.5-7.9,8.4-8.3,13.5c0,0.3,0,0.6,0,0.9c0,5.3,3.8,7.4,8.4,4.8
								c4.6-2.7,8.3-9.1,8.3-14.4c0-0.3,0-0.6,0-0.9C816.9,984,813.3,982.2,809,984.7z"/>
						</g>
						<g>
							<path class="st29" d="M809,987.3c-3.2,1.8-5.7,6.1-6,9.8c0,0.2,0,0.4,0,0.7c0,3.8,2.7,5.4,6.1,3.5c3.3-1.9,6.1-6.6,6-10.5
								c0-0.2,0-0.4,0-0.6C814.8,986.8,812.2,985.5,809,987.3z"/>
						</g>
						<path class="st30" d="M815.1,990.1c-0.2-2.8-2.1-4.1-4.5-3.5c1.9,0,3.2,1.3,3.4,3.6c0,0.2,0,0.4,0,0.6c0,3.8-2.7,8.5-6,10.5
							c-0.5,0.3-1.1,0.5-1.6,0.7c0.8,0,1.7-0.3,2.6-0.8c3.3-1.9,6.1-6.6,6-10.5C815.1,990.6,815.1,990.3,815.1,990.1z"/>
						<g>
							<path class="st31" d="M811.3,995c0.2-0.1,0.3-0.1,0.5,0c0.3,0.2,0.3,0.6,0,1.1c-0.1,0.2-0.3,0.4-0.5,0.5
								c-0.2,0.1-0.3,0.1-0.5,0c-0.3-0.2-0.3-0.6,0-1.1C811,995.3,811.1,995.1,811.3,995z"/>
							<path class="st31" d="M808.6,992.5c0.9-0.5,1.5-0.1,1.6,0.9c0,1-0.7,2.2-1.5,2.7c-0.9,0.5-1.5,0.1-1.6-0.9
								C807.1,994.2,807.8,993,808.6,992.5z"/>
							<path class="st31" d="M808.6,997.8c0.4-0.2,0.7,0,0.7,0.4c0,0.4-0.3,1-0.7,1.2c-0.4,0.2-0.7,0-0.7-0.4
								C808,998.6,808.3,998,808.6,997.8z"/>
							<path class="st31" d="M806,998.1c0.2-0.1,0.3-0.1,0.5,0c0.3,0.2,0.3,0.6,0,1.1c-0.1,0.2-0.3,0.4-0.5,0.5
								c-0.2,0.1-0.3,0.1-0.5,0.1c-0.3-0.2-0.3-0.6,0-1.1C805.6,998.4,805.8,998.2,806,998.1z"/>
							<path class="st31" d="M811.3,988.9c0.2-0.1,0.3-0.1,0.5,0c0.3,0.2,0.3,0.6,0,1.1c-0.1,0.2-0.3,0.4-0.5,0.5
								c-0.2,0.1-0.3,0.1-0.5,0c-0.3-0.2-0.3-0.6,0-1.1C810.9,989.2,811.1,989,811.3,988.9z"/>
							<path class="st31" d="M808.6,990.7c-0.4,0.2-0.7,0-0.7-0.4c0-0.4,0.3-1,0.7-1.2c0.4-0.2,0.7,0,0.7,0.4
								C809.3,990,809,990.5,808.6,990.7z"/>
							<path class="st31" d="M806,993.5c-0.2,0.1-0.4,0.1-0.5,0.1c-0.3-0.2-0.3-0.6,0-1.1c0.1-0.2,0.3-0.4,0.5-0.5
								c0.2-0.1,0.3-0.1,0.5,0c0.3,0.2,0.3,0.6,0,1.1C806.3,993.3,806.1,993.4,806,993.5z"/>
							<path class="st31" d="M811.7,992.5c0-0.4,0.3-1,0.7-1.2c0.4-0.2,0.7,0,0.7,0.4c0,0.4-0.3,1-0.7,1.2
								C812,993.1,811.7,992.9,811.7,992.5z"/>
							<path class="st31" d="M804.9,995.7c0.4-0.2,0.7,0,0.7,0.4c0,0.4-0.3,1-0.7,1.2c-0.4,0.2-0.7,0-0.7-0.4
								C804.2,996.4,804.5,995.9,804.9,995.7z"/>
						</g>
					</g>
				</g>
				<polygon class="st32" points="722.7,1020 676.7,993.9 783.7,931.9 829.7,957.9 				"/>
				<g>
					<path class="st33" d="M730.1,1019.8C730.1,1019.7,730.1,1019.7,730.1,1019.8C730.2,1019.7,730.2,1019.7,730.1,1019.8
						c0.1,0,0.1-0.1,0.1-0.1c0,0,0,0,0.1,0c0,0,0,0,0,0c0,0,0,0,0,0c0,0,0,0,0.1,0c0,0,0,0,0,0c0,0,0,0,0.1,0c0,0,0,0,0,0
						c0,0,0,0,0.1,0c0,0,0,0,0,0c0,0,0.1,0,0.1,0c0,0,0,0,0,0c0,0,0,0,0.1,0c0,0,0,0,0,0c0,0,0.1,0,0.1,0c0,0,0.1,0,0.1,0
						c0,0,0,0,0,0c0,0,0.1,0,0.1,0c0,0,0,0,0,0c0,0,0,0,0.1,0c0,0,0,0,0.1,0c0,0,0,0,0.1,0c0,0,0,0,0.1,0c0,0,0,0,0.1,0
						c0,0,0,0,0.1,0c0,0,0,0,0.1,0c0,0,0,0,0.1,0c0,0,0,0,0,0c0,0,0,0,0.1,0c0,0,0,0,0,0c0,0,0,0,0.1,0c0,0,0,0,0,0c0,0,0.1,0,0.1,0
						c0,0,0,0,0,0c0,0,0.1,0,0.1,0c0,0,0,0,0,0c0,0,0.1,0,0.1,0c0,0,0,0,0,0c0,0,0,0,0.1,0c0,0,0,0,0,0c0,0,0,0,0.1,0c0,0,0,0,0,0
						c0,0,0.1,0,0.1,0c0,0,0,0,0,0c0,0,0.1,0,0.1,0c0,0,0,0,0,0c0,0,0.1,0,0.1,0c0,0,0,0,0,0c0,0,0.1,0,0.1,0c0,0,0,0,0,0
						c0,0,0.1,0,0.1,0.1c0,0,0,0,0,0c0,0,0.1,0,0.1,0.1c0,0,0,0,0,0c0,0,0.1,0,0.1,0.1l24.3-14.1c0,0-0.1,0-0.1-0.1c0,0,0,0,0,0
						c0,0,0,0,0,0c0,0-0.1,0-0.1,0l0,0c0,0-0.1,0-0.1,0c0,0,0,0,0,0c0,0,0,0,0,0c0,0-0.1,0-0.1,0c0,0,0,0,0,0c0,0,0,0,0,0
						c0,0,0,0-0.1,0c0,0,0,0,0,0c0,0-0.1,0-0.1,0c0,0,0,0,0,0c0,0,0,0,0,0c0,0-0.1,0-0.1,0c0,0,0,0,0,0c0,0,0,0,0,0c0,0,0,0,0,0
						c0,0,0,0,0,0c0,0-0.1,0-0.1,0c0,0,0,0,0,0c0,0,0,0,0,0c0,0,0,0-0.1,0c0,0,0,0,0,0c0,0-0.1,0-0.1,0c0,0,0.4,0,0.4,0s0,0,0,0
						c0,0-0.1,0-0.1,0c0,0,0,0,0,0c0,0,0,0,0,0c0,0,0,0,0,0c0,0,0,0-0.1,0c0,0,0,0-0.1,0c0,0,0,0-0.1,0c0,0,0,0,0,0c0,0,0,0,0,0
						c0,0,0,0-0.1,0c0,0,0,0-0.1,0c0,0,0,0-0.1,0c0,0,0,0,0,0c0,0,0,0,0,0c0,0,0,0-0.1,0c0,0-0.1-0.9-0.1-0.9h-0.1h0h0
						c0,0.9-0.1,0.9-0.1,0.9c0,0,0,0,0,0c0,0-0.1,0.1-0.1,0.1H755c0,0-0.1,0-0.1,0c0,0,0,0,0,0c0,0,0,0-0.1,0c0,0,0,0,0,0
						c0,0-0.1,0-0.1,0c0,0,0,0,0,0c0,0,0,0,0,0c0,0,0,0-0.1,0c0,0,0,0,0,0c0,0,0,0-0.1,0c0,0,0,0,0,0c0,0,0,0-0.1,0c0,0,0,0,0,0
						c0,0,0,0,0,0c0,0,0,0,0,0c0,0,0,0-0.1,0c0,0,0,0,0,0c0,0,0,0-0.1,0c0,0,0,0,0,0c0,0,0,0-0.1,0c0,0,0,0,0,0c0,0-0.1,0-0.1,0l0,0
						l-24.1,14C730,1019.8,730,1019.8,730.1,1019.8C730,1019.8,730,1019.8,730.1,1019.8C730.1,1019.8,730.1,1019.8,730.1,1019.8z"/>
					<g>
						<polygon class="st34" points="733,1020.7 758,1006.1 761,1007.9 736,1022.5 						"/>
					</g>
					<path class="st30" d="M766,1016.3C766,1016.3,766,1016.3,766,1016.3C766,1016.3,766,1016.3,766,1016.3c0-0.1-1-0.1-1-0.1v0
						c0,0,1-0.1,1-0.1c0,0,0,0,0,0v0c0,0,0-0.1,0-0.1c0,0,0,0,0,0c0,0,0,0,0-0.1c0,0,0,0,0,0c0,0,0,0,0,0c0,0,0-0.1,0-0.1
						c0,0,0,0,0,0c0,0,0,0,0,0c0,0,0-0.1,0-0.1c0,0,0,0,0,0c0,0,0-0.1,0-0.1c0,0,0,0,0,0c0,0,0,0,0,0c0,0,0-0.1,0-0.1c0,0,0,0,0,0
						c0,0,0,0,0,0c0,0,0,0,0,0c0,0,0,0,0-0.1c0,0,0-0.1,0-0.1c0,0,0,0,0,0c0,0,0,0,0,0c0,0,0-0.1,0-0.1c0,0,0,0,0,0c0,0,0-0.1,0-0.1
						c0,0,0,0,0,0c0,0,0,0,0,0c0,0,0-0.1,0-0.1c0,0,0,0,0-0.1c0,0,0,0,0-0.1c0,0,0,0,0,0c0,0,0,0,0-0.1c0,0,0-0.1,0-0.1
						c0,0,0,0,0-0.1c0,0,0,0,0,0c0,0,0-0.1,0-0.1c0,0,0,0,0,0c0,0,0-0.1,0-0.1l0,0c0,0,0,0,0,0c0,0,0-0.1,0-0.1c0,0,0,0,0,0
						c0,0,0,0,0-0.1c0,0,0,0,0,0c0,0,0,0,0-0.1c0,0,0-0.1,0-0.1c0,0,0,0,0,0c0,0,0,0,0,0c0,0,0-0.1-0.1-0.1c0,0,0,0,0,0
						c0,0,0-0.1,0-0.1c0,0,0,0,0,0c0-0.1-0.1-0.1-0.1-0.2c0,0,0,0,0,0c0,0,0,0,0,0c0-0.1-0.1-0.1-0.1-0.2c0,0,0,0,0,0c0,0,0,0,0,0
						c0,0,0,0,0,0c0,0,0-0.1,0-0.1c0,0,0,0,0-0.1c0,0,0,0,0-0.1c0,0,0,0,0,0c0,0,0,0,0-0.1c0,0,0-0.1,0-0.1c0,0,0,0,0-0.1
						c0,0,0,0,0,0c0,0,0,0,0,0c0-0.1-0.1-0.1-0.1-0.2c0,0,0,0,0,0c0-0.1-0.1-0.1-0.1-0.2c0,0,0,0,0,0c0,0,0,0,0,0c0,0,0-0.1,0-0.1
						c0,0,0,0,0-0.1c0,0,0-0.1,0-0.1c0,0,0,0,0-0.1c0,0,0-0.1,0-0.1c0,0,0,0,0-0.1c0,0,0-0.1-0.1-0.1c0,0,0,0,0,0c0,0,0,0,0,0
						c0-0.1-0.1-0.1-0.1-0.2c0,0,0,0,0,0c0-0.1-0.1-0.1-0.1-0.2c0,0,0,0,0,0c0,0,0,0,0,0c0,0,0-0.1-0.1-0.1c0,0,0,0,0-0.1
						c0,0,0-0.1-0.1-0.1c0,0,0,0,0,0c0,0,0,0,0-0.1c0,0,0,0,0-0.1c0,0,0-0.1-0.1-0.1c0,0,0,0,0,0c0,0,0,0,0,0c0,0-0.4-0.1-0.4-0.1
						s0-0.2,0-0.2c0,0-0.1-0.1-0.1-0.1c0,0,0,0,0,0c0,0,0,0,0,0c0,0,0-0.1-0.1-0.1c0,0,0,0,0,0c0,0,0,0,0,0c0,0,0,0,0,0c0,0,0,0,0,0
						c0,0,0,0-0.1-0.1c0,0,0,0,0,0c0,0,0,0,0,0c0,0,0,0,0,0c0,0,0,0,0,0c0,0,0,0-0.1-0.1c0,0,0,0,0,0c0,0,0,0,0,0c0,0,0,0,0,0
						c0,0,0,0,0,0c0,0,0,0-0.1-0.1c0,0,0,0,0,0c0,0,0,0,0,0c0,0,0,0-0.1-0.1c0,0,0,0,0,0c0,0-0.1-0.1-0.1-0.1c0,0,0,0,0,0h0
						c0,0-0.1-0.1-0.1-0.1c0,0,0,0,0,0c0,0,0,0-0.1-0.1c0,0,0,0,0,0c0,0,0,0,0,0c0,0,0,0-0.1-0.1c0,0,0,0,0,0c0,0,0,0,0,0
						c0,0,0,0,0,0c0,0,0,0,0,0c0,0,0,0-0.1-0.1c0,0,0,0,0,0c0,0,0,0,0,0c0,0,0,0-0.1,0c0,0,0,0,0,0c0,0-0.1-0.1-0.1-0.1l0,0
						c0,0,0,0,0,0c0,0-0.1,0-0.1-0.1c0,0,0,0,0,0c0,0,0,0-0.1,0c0,0,0,0,0,0l-24.7,14.6c0,0,0.1,0,0.1,0.1c0,0,0,0,0,0
						c0,0,0.1,0,0.1,0.1c0,0,0,0,0,0c0,0,0.1,0,0.1,0.1c0,0,0,0,0,0c0,0,0.1,0,0.1,0.1c0,0,0,0,0,0c0,0,0,0,0.1,0.1c0,0,0,0,0,0
						c0,0,0,0,0.1,0.1c0,0,0,0,0,0c0,0,0,0,0.1,0.1c0,0,0,0,0,0c0,0,0.1,0,0.1,0.1c0,0,0,0,0,0c0,0,0.1,0.1,0.1,0.1c0,0,0,0,0,0
						c0,0,0.1,0.1,0.1,0.1c0,0,0,0,0,0c0,0,0,0,0.1,0.1c0,0,0,0,0,0c0,0,0,0,0.1,0.1c0,0,0,0,0,0c0,0,0,0,0.1,0.1c0,0,0,0,0,0
						c0,0,0,0,0.1,0.1c0,0,0,0,0,0c0,0,0,0,0.1,0.1c0,0,0,0,0,0c0,0,0,0,0.1,0.1c0,0,0,0,0,0c0,0,0,0,0.1,0.1c0,0,0,0,0,0
						c0,0,0,0.1,0.1,0.1c0,0,0,0,0,0c0,0,0.1,0.1,0.1,0.1l0,0c0,0,0.1,0.1,0.1,0.1c0,0,0,0,0,0c0,0,0,0.1,0.1,0.1c0,0,0,0,0,0
						c0,0,0,0,0.1,0.1c0,0,0,0.1,0.1,0.1c0,0,0,0,0,0.1c0,0,0,0.1,0.1,0.1c0,0,0,0,0,0c0,0.1,0.1,0.1,0.1,0.2c0,0,0,0,0,0
						c0,0.1,0.1,0.1,0.1,0.2c0,0,0,0,0,0.1c0,0,0,0.1,0.1,0.1c0,0,0,0,0,0.1c0,0,0,0.1,0,0.1c0,0,0,0,0,0.1c0,0,0,0.1,0,0.1
						c0,0,0,0,0,0.1c0,0,0,0.1,0,0.1c0,0,0,0,0,0.1c0,0.1,0.1,0.1,0.1,0.2c0,0,0,0,0,0c0,0.1,0.1,0.1,0.1,0.2c0,0,0,0,0,0.1
						c0,0,0,0.1,0,0.1c0,0,0,0,0,0.1c0,0,0,0,0,0.1c0,0,0,0.1,0,0.1c0,0,0,0,0,0.1c0,0,0,0.1,0,0.1c0,0,0,0,0,0c0,0,0,0,0,0
						c0,0.1,0.1,0.1,0.1,0.2c0,0,0,0,0,0c0,0.1,0.1,0.1,0.1,0.2c0,0,0,0.1,0,0.1c0,0,0,0,0,0c0,0,0,0.1,0.1,0.1c0,0,0,0,0,0
						c0,0,0,0.1,0,0.1c0,0,0,0,0,0c0,0,0,0.1,0,0.1c0,0,0,0,0,0.1c0,0,0,0.1,0,0.1c0,0,0,0,0,0c0,0,0,0.1,0,0.1c0,0,0,0,0,0
						c0,0,0,0.1,0,0.1c0,0,0,0,0,0.1c0,0,0,0.1,0,0.1c0,0,0,0,0,0.1c0,0,0,0.1,0,0.1c0,0,0,0,0,0.1c0,0,0,0.1,0,0.1c0,0,0,0,0,0
						c0,0,0,0.1,0,0.1c0,0,0,0,0,0c0,0,0,0.1,0,0.1c0,0,0,0,0,0c0,0,0,0.1,0,0.1c0,0,0,0,0,0.1c0,0,0,0.1,0,0.1c0,0,0,0,0,0
						c0,0,0,0.1,0,0.1c0,0,0,0,0,0c0,0,0,0.1,0,0.1c0,0,0,0,0,0c0,0,0,0.1,0,0.1c0,0,0,0,0,0c0,0,0,0.1,0,0.1c0,0,0,0,0,0
						c0,0,0,0.1,0,0.1c0,0,0,0,0,0c0,0,0,0.1,0,0.1c0,0,0,0,0,0c0,0,0,0.1,0,0.1c0,0,0,0,0,0c0,0,0,0.1,0,0.1c0,0,0,0,0,0
						c0,0,0,0.1,0,0.1c0,0,0,0.1,0,0.1c0,0,0,0,0,0c0,0,0,0.1,0,0.1c0,0,0,0,0,0c0,0,0,0.1,0,0.1c0,0,0,0,0,0c0,0,0,0,0,0.1
						c0,0,0,0,0,0c0,0,0,0.1,0,0.1c0,0,0,0,0,0c0,0,0,0.1,0,0.1c0,0,0,0,0,0c0,0,0,0.1,0,0.1c0,0,0,0,0,0c0,0,0,0.1,0,0.1
						c0,0,0,0,0,0c0,0,0,0,0,0.1c0,0,0,0.1,0,0.1c0,0,0,0,0,0c0,0,0,0.1,0,0.1c0,0,0,0,0,0c0,0,0,0.1,0,0.1c0,0,0,0,0,0
						c0,0,0,0.1,0,0.1c0,0,0,0,0,0c0,0,0,0.1,0,0.1c0,0,0,0,0,0c0,0,0,0.1-0.1,0.1c0,0,0,0,0,0.1c0,0,0,0,0,0c0,0,0,0.1,0,0.1
						c0,0,0,0,0,0c0,0,0,0,0,0.1c0,0,0,0,0,0c0,0,0,0,0,0.1c0,0,0,0,0,0c0,0,0,0,0,0.1c0,0,0,0,0,0c0,0,0,0,0,0.1c0,0,0,0,0,0
						c0,0,0,0-0.1,0.1c0,0,0,0,0,0c0,0,0,0,0,0c0,0,0,0,0,0c0,0,0,0,0,0c0,0,0,0,0,0c0,0,0,0-0.1,0.1c0,0,0,0,0,0c0,0,0,0,0,0
						c0,0,0,0,0,0c0,0,0,0,0,0c0,0,0,0,0,0c0,0,0,0-0.1,0.1c0,0,0,0,0,0c0,0,0,0-0.1,0c0,0,0,0,0,0c0,0,0,0-0.1,0c0,0,0,0,0,0
						c0,0,0,0-0.1,0l0,0l24.2-14.1c0,0,0,0,0.1,0c0,0,0,0,0,0c0,0,0,0,0.1,0c0,0,0,0,0,0c0,0,0,0,0.1,0c0,0,0,0,0,0c0,0,0,0,0.1-0.1
						c0,0,0,0,0,0c0,0,0,0,0,0c0,0,0,0,0,0c0,0,0,0,0,0c0,0,0,0,0,0c0,0,0,0,0.1-0.1c0,0,0,0,0,0c0,0,0,0,0-0.1c0,0,0,0,0,0
						c0,0,0,0,0,0c0,0,0,0,0,0c0,0,0,0,0.1-0.1c0,0,0,0,0,0c0,0,0,0,0-0.1c0,0,0,0,0,0c0,0,0,0,0-0.1c0,0,0,0,0,0c0,0,0,0,0,0
						c0,0,0,0,0,0c0,0,0,0,0,0c0,0,0,0,0-0.1c0,0,0,0,0,0c0,0,0-0.1,0-0.1c0,0,0,0,0,0c0,0,0,0,0-0.1c0,0,0,0,0,0c0,0,0-0.1,0.1-0.1
						c0,0,0,0,0,0c0,0,0-0.1,0-0.1c0,0,0,0,0,0c0,0,0,0,0,0c0,0,0-0.1,0-0.1c0,0,0,0,0,0c0,0,0-0.1,0-0.1c0,0,0,0,0,0v-0.3
						c0,0,0.8-0.1,0.8-0.1c0,0,0,0,0,0c0,0,0.2-0.1,0.2-0.1v0c0,0-0.1-0.1-0.1-0.1c0,0,0,0,0,0c0,0,0-0.1,0-0.1c0,0-0.9,0-0.9,0v0
						c0,0,0.9-0.1,0.9-0.1c0,0,0,0,0,0c0,0,0,0,0-0.1l0,0c0,0,0,0,0,0c0,0,0-0.1,0-0.1c0,0,0,0,0-0.1c0,0,0,0,0,0c0,0,0,0,0,0
						c0,0,0,0,0,0c0,0,0-0.1,0-0.1c0,0,0,0,0,0c0,0,0,0,0,0c0,0,0-0.1,0-0.1c0,0,0,0,0,0c0,0,0-0.1,0-0.1v0V1016.3z"/>
					<g>
						<path class="st35" d="M736,1022.5c2.7,1.6,5,5.4,4.9,8.6c0,3.1-2.3,4.4-5,2.8l-3-1.8c-2.7-1.6-5-5.4-4.9-8.6
							c0-3.1,2.2-4.4,5-2.8L736,1022.5z"/>
					</g>
				</g>
				<polygon class="st36" points="830,976.4 829.9,957.9 723,1020 723,1038.4 729,1034.9 729,1023.9 824,969 824,979.9 				"/>
			</g>
			<g>
				<polygon class="st4" points="675.6,934.7 725.3,963.6 831.1,902.3 781.6,873.4 				"/>
				<polygon class="st10" points="725,963.6 725,1019.2 675,990.1 675,934.5 				"/>
				<polygon class="st3" points="831,902.2 725,963.7 725,1019.1 831,957.6 				"/>
			</g>
			<g>
				<g>
					<path class="st26" d="M696.7,1067.6c0,0-0.1-0.1-0.1-0.1c-0.1-0.1-0.2-0.2-0.3-0.3c0,0,0,0,0,0c-0.1-0.1-0.2-0.2-0.3-0.3
						c0,0-0.1-0.1-0.1-0.1c-0.1-0.1-0.1-0.2-0.2-0.3c0,0-0.1-0.1-0.1-0.1c-0.1-0.1-0.1-0.2-0.2-0.3c0,0,0-0.1-0.1-0.1
						c-0.1-0.1-0.2-0.3-0.3-0.4c-0.1-0.2-0.2-0.3-0.2-0.5c0,0,0-0.1,0-0.1c-0.1-0.1-0.1-0.3-0.2-0.4c0,0,0-0.1,0-0.1
						c0-0.1-0.1-0.2-0.1-0.3c0-0.1-0.1-0.3-0.1-0.4c0-0.1-0.1-0.2-0.1-0.3c0-0.1-0.1-0.2-0.1-0.3c0-0.1,0-0.2-0.1-0.3
						c0-0.1,0-0.2-0.1-0.3c0-0.1,0-0.2-0.1-0.3c0-0.1,0-0.2,0-0.3c0-0.1,0-0.3,0-0.4c0-0.1,0-0.2,0-0.3c0-0.2,0-0.3,0-0.5
						c0-0.1,0-0.1,0-0.2c0-0.2,0-0.5,0-0.7c0-0.2,0-0.5,0-0.7c0-0.1,0-0.2,0-0.2c0-0.2,0-0.3,0-0.5c0-0.1,0-0.2,0-0.2
						c0-0.2,0-0.3,0.1-0.5c0-0.1,0-0.1,0-0.2c0-0.2,0.1-0.5,0.1-0.7c0,0,0-0.1,0-0.1c0-0.2,0.1-0.4,0.1-0.6c0-0.1,0-0.2,0.1-0.3
						c0-0.2,0.1-0.3,0.1-0.5c0-0.1,0-0.2,0.1-0.3c0-0.2,0.1-0.3,0.1-0.5c0-0.1,0-0.2,0.1-0.3c0-0.2,0.1-0.3,0.1-0.5
						c0-0.1,0-0.2,0.1-0.2c0.1-0.2,0.2-0.5,0.2-0.7c0,0,0,0,0-0.1c0.1-0.2,0.2-0.5,0.2-0.7c0-0.1,0.1-0.1,0.1-0.2
						c0.1-0.2,0.1-0.3,0.2-0.5c0-0.1,0.1-0.2,0.1-0.2c0.1-0.2,0.1-0.4,0.2-0.5c0-0.1,0.1-0.1,0.1-0.2c0.1-0.2,0.2-0.5,0.3-0.7
						c0-0.1,0.1-0.1,0.1-0.2c0.1-0.2,0.2-0.4,0.3-0.5c0.1-0.1,0.1-0.3,0.2-0.4c0.1-0.1,0.1-0.2,0.2-0.4c0.2-0.3,0.4-0.7,0.6-1
						c0.1-0.1,0.1-0.2,0.2-0.3c0.1-0.1,0.2-0.3,0.2-0.4c0.1-0.1,0.1-0.2,0.2-0.3c0.1-0.1,0.2-0.3,0.3-0.4c0.1-0.1,0.1-0.2,0.2-0.2
						c0.2-0.3,0.5-0.7,0.7-1c0,0,0,0,0,0c0.2-0.2,0.4-0.5,0.5-0.7c0.1-0.2,0.3-0.4,0.4-0.5c0,0,0.1-0.1,0.1-0.1
						c0.2-0.2,0.3-0.4,0.5-0.6c0-0.1,0.1-0.1,0.2-0.2c0.1-0.1,0.2-0.3,0.4-0.4c0.1-0.1,0.1-0.2,0.2-0.2c0.1-0.1,0.2-0.2,0.3-0.3
						c0.1-0.1,0.2-0.2,0.2-0.2c0.1-0.1,0.2-0.2,0.3-0.3c0.1-0.1,0.2-0.2,0.3-0.2c0.1-0.1,0.2-0.2,0.3-0.3c0.1-0.1,0.2-0.2,0.3-0.2
						c0.1-0.1,0.2-0.2,0.3-0.3c0.1-0.1,0.2-0.1,0.3-0.2c0.1-0.1,0.2-0.2,0.4-0.3c0.1-0.1,0.2-0.1,0.2-0.2c0.1-0.1,0.3-0.2,0.4-0.3
						c0.1,0,0.1-0.1,0.2-0.1c0.2-0.1,0.4-0.3,0.6-0.4c0,0,0,0,0,0c0.2-0.1,0.4-0.3,0.6-0.4c0.2-0.1,0.4-0.2,0.6-0.3
						c0.1,0,0.1-0.1,0.2-0.1c0.1-0.1,0.3-0.1,0.4-0.2c0.1,0,0.1-0.1,0.2-0.1c0.2-0.1,0.4-0.2,0.6-0.3c0.2-0.1,0.4-0.1,0.6-0.2
						c0.1,0,0.1,0,0.2-0.1c0.1,0,0.3-0.1,0.4-0.1c0.1,0,0.1,0,0.2-0.1c0.1,0,0.2-0.1,0.4-0.1c0.1,0,0.1,0,0.2,0c0.1,0,0.2,0,0.3-0.1
						c0.1,0,0.2,0,0.3,0c0.1,0,0.2,0,0.3,0c0.1,0,0.2,0,0.3,0c0.1,0,0.2,0,0.3,0c0.1,0,0.2,0,0.3,0c0.1,0,0.3,0,0.4,0c0,0,0,0,0,0
						c0.1,0,0.3,0,0.4,0c0,0,0.1,0,0.1,0c0.2,0,0.3,0,0.5,0.1c0,0,0.1,0,0.1,0c0.1,0,0.2,0.1,0.4,0.1c0.1,0,0.1,0,0.2,0.1
						c0.1,0,0.2,0.1,0.3,0.1c0.1,0,0.2,0.1,0.3,0.1c0.1,0,0.1,0,0.2,0.1c0.2,0.1,0.3,0.2,0.5,0.2c0,0-9.4-5.5-9.4-5.5
						c-0.2-0.1-0.3-0.2-0.5-0.2c-0.1,0-0.1,0-0.2-0.1c-1.8-0.8-3.9-0.6-5.7,0c-1.8,0.6-3.6,1.6-5,2.8c0,0-0.1,0.1-0.1,0.1
						c-0.1,0.1-0.2,0.1-0.3,0.2c-5.5,4.5-9.4,11.6-9.9,18.7c-0.2,2.4,0.1,5.2,1.4,7.3c0,0,0,0,0,0c0,0,0,0.1,0.1,0.1
						c0.1,0.1,0.1,0.2,0.2,0.3c0,0,0.1,0.1,0.1,0.1c0.1,0.1,0.1,0.2,0.2,0.3c0,0,0.1,0.1,0.1,0.1c0.1,0.1,0.2,0.2,0.3,0.3
						c0,0,0,0,0,0c0.1,0.1,0.2,0.2,0.3,0.3c0,0,0.1,0.1,0.1,0.1c0.1,0.1,0.2,0.1,0.3,0.2c0,0,0.1,0.1,0.1,0.1
						c0.1,0.1,0.2,0.2,0.4,0.2l9.4,5.5c-0.1-0.1-0.3-0.2-0.4-0.2c0,0-0.1-0.1-0.1-0.1C696.9,1067.7,696.8,1067.7,696.7,1067.6z"/>
					<g>
						<path class="st27" d="M706.4,1038c-7,4.1-12.7,13.9-12.7,22c0,8.1,5.7,11.3,12.8,7.3c7-4.1,12.7-13.9,12.7-22
							C719.1,1037.2,713.4,1033.9,706.4,1038z"/>
					</g>
				</g>
				<g>
					<g>
						<path class="st28" d="M706.8,1043.7c-4.3,2.5-7.9,8.4-8.3,13.5c0,0.3,0,0.6,0,0.9c0,5.3,3.8,7.4,8.4,4.8
							c4.6-2.7,8.3-9.1,8.3-14.4c0-0.3,0-0.6,0-0.9C714.8,1042.9,711.2,1041.2,706.8,1043.7z"/>
					</g>
					<g>
						<path class="st29" d="M706.9,1046.3c-3.2,1.8-5.7,6.1-6,9.8c0,0.2,0,0.5,0,0.7c0,3.8,2.7,5.4,6.1,3.5c3.3-1.9,6-6.6,6-10.5
							c0-0.2,0-0.4,0-0.6C712.6,1045.7,710,1044.5,706.9,1046.3z"/>
					</g>
					<path class="st30" d="M712.9,1049.1c-0.2-2.8-2.1-4.1-4.5-3.5c1.9,0,3.2,1.3,3.4,3.7c0,0.2,0,0.4,0,0.6c0,3.8-2.7,8.5-6,10.5
						c-0.5,0.3-1.1,0.5-1.6,0.7c0.8,0,1.7-0.3,2.6-0.8c3.3-1.9,6-6.6,6-10.5C712.9,1049.5,712.9,1049.3,712.9,1049.1z"/>
					<g>
						<path class="st31" d="M709.1,1054c0.2-0.1,0.3-0.1,0.5,0c0.3,0.2,0.3,0.6,0,1.1c-0.1,0.2-0.3,0.4-0.5,0.5
							c-0.2,0.1-0.3,0.1-0.5,0c-0.3-0.2-0.3-0.6,0-1.1C708.8,1054.3,709,1054.1,709.1,1054z"/>
						<path class="st31" d="M706.5,1051.5c0.9-0.5,1.5-0.1,1.6,0.9c0,1-0.7,2.2-1.5,2.7c-0.9,0.5-1.5,0.1-1.6-0.9
							C704.9,1053.1,705.6,1052,706.5,1051.5z"/>
						<path class="st31" d="M706.5,1056.8c0.4-0.2,0.7,0,0.7,0.4c0,0.4-0.3,1-0.7,1.2c-0.4,0.2-0.7,0-0.7-0.4
							C705.8,1057.5,706.1,1057,706.5,1056.8z"/>
						<path class="st31" d="M703.8,1057c0.2-0.1,0.3-0.1,0.5,0c0.3,0.2,0.3,0.6,0,1.1c-0.1,0.2-0.3,0.4-0.5,0.5
							c-0.2,0.1-0.3,0.1-0.5,0c-0.3-0.2-0.3-0.6,0-1.1C703.5,1057.3,703.7,1057.1,703.8,1057z"/>
						<path class="st31" d="M709.1,1047.9c0.2-0.1,0.3-0.1,0.5,0c0.3,0.2,0.3,0.6,0,1.1c-0.1,0.2-0.3,0.4-0.5,0.5
							c-0.2,0.1-0.3,0.1-0.5,0c-0.3-0.2-0.3-0.6,0-1.1C708.8,1048.1,709,1048,709.1,1047.9z"/>
						<path class="st31" d="M706.5,1049.7c-0.4,0.2-0.7,0-0.7-0.4c0-0.4,0.3-1,0.7-1.2c0.4-0.2,0.7,0,0.7,0.4
							C707.2,1049,706.9,1049.5,706.5,1049.7z"/>
						<path class="st31" d="M703.8,1052.5c-0.2,0.1-0.3,0.1-0.5,0c-0.3-0.2-0.3-0.6,0-1.1c0.1-0.2,0.3-0.4,0.5-0.5
							c0.2-0.1,0.3-0.1,0.5,0c0.3,0.2,0.3,0.6,0,1.1C704.2,1052.2,704,1052.4,703.8,1052.5z"/>
						<path class="st31" d="M709.6,1051.5c0-0.4,0.3-1,0.7-1.2c0.4-0.2,0.7,0,0.7,0.4c0,0.4-0.3,1-0.7,1.2
							C709.9,1052.1,709.6,1051.9,709.6,1051.5z"/>
						<path class="st31" d="M702.7,1054.6c0.4-0.2,0.7,0,0.7,0.4c0,0.4-0.3,1-0.7,1.2c-0.4,0.2-0.7,0-0.7-0.4
							C702,1055.4,702.3,1054.8,702.7,1054.6z"/>
					</g>
				</g>
			</g>
			<polygon class="st17" points="685.1,1060 639,1033.9 638.9,1006 685,1032.1 			"/>
			<polygon class="st37" points="685.4,1032.1 639.3,1006 645.5,978.8 691.7,1005 			"/>
			<polygon class="st19" points="691.7,1005 645.5,978.8 676.5,961 722.7,987.1 			"/>
			<path class="st6" d="M645.5,978.8l-6.3,27.1l46.2,26.1l6.3-27.1L645.5,978.8z M684.2,1029.3l-42.9-24.3l5.4-23.4l42.9,24.2
				L684.2,1029.3z"/>
			<g id="XMLID_120_">
				<g id="XMLID_121_" class="st38">
					<g id="XMLID_122_">
						<polygon id="XMLID_123_" class="st39" points="647,1015.7 647,1033.8 677,1051.1 677,1033.1 						"/>
					</g>
				</g>
			</g>
			<g>
				<polygon class="st30" points="683,1055 683,1061.3 637,1034.9 637,1028.6 				"/>
				<polygon class="st28" points="683,1055 683,1061.3 685,1060 685,1053.7 				"/>
				<polygon class="st40" points="637.3,1028.6 683.2,1055 685.5,1053.7 639.6,1027.3 				"/>
			</g>
			<g>
				<polygon class="st41" points="685,1047.3 678,1043.3 678,1047.5 685,1051.5 				"/>
			</g>
			<g>
				<polygon class="st41" points="646,1024.9 639,1020.9 639,1025.1 646,1029.1 				"/>
			</g>
			<path class="st6" d="M722.9,987.4l-30.7,17.7L686,1032l0.1,27.7l6.6-3.8c1.7-7.9,7.2-16.1,13.7-19.8c6.5-3.8,12-1.9,13.7,3.9
				l2.9-1.7V1020L722.9,987.4z"/>
			<g>
				<path class="st37" d="M710.4,996.5c0.3-0.2,0.6,0,0.6,0.3l0,16.2c0,0.4-0.3,0.8-0.6,1l-20.5,11.9c-0.4,0.2-0.7-0.1-0.6-0.6
					l3.6-18.3c0.1-0.3,0.3-0.6,0.6-0.8L710.4,996.5z"/>
			</g>
			<polygon class="st42" points="682,1056.6 682,1059.7 676,1056.2 676,1053.2 			"/>
			<polygon class="st42" points="644,1034.6 644,1037.7 638,1034.3 638,1031.2 			"/>
			<polygon class="st28" points="788,989.9 788,1000.1 769,1010.9 769,1000.9 			"/>
			<polygon class="st43" points="769,1011.6 765,1009.4 765,1002.8 769,1000.5 			"/>
			<polygon class="st44" points="689.6,1005.5 641.3,1004.7 646.8,981.3 			"/>
		</g>
		<g>
			<polygon class="st6" points="782,974.4 787,971.3 787,935.1 782,938.2 			"/>
			<polygon class="st6" points="806,954.3 799,958.3 799,928.1 794,931.3 794,961.4 794,967.5 799,964.4 799,964.3 811,957.4 
				811,950 811,922.4 806,925.3 			"/>
			<polygon class="st6" points="818,917.4 818,953.6 823,950.5 823,914.3 			"/>
		</g>
	</g>
	<g id="XMLID_101_">
		<polygon id="XMLID_115_" class="st45" points="924,1214.7 790,1292.2 790,1285.9 924,1208.4 		"/>
		<polygon id="XMLID_114_" class="st46" points="924,1208.4 924,1214.8 946,1227.5 946,1221.1 		"/>
		<g id="XMLID_110_">
			<g id="XMLID_111_" class="st38">
				<g id="XMLID_112_">
					<polygon id="XMLID_113_" class="st10" points="780,1285.5 780,1310.8 807,1326.4 807,1301.1 					"/>
				</g>
			</g>
		</g>
		<g id="XMLID_106_">
			<g id="XMLID_107_" class="st38">
				<g id="XMLID_108_">
					<polygon id="XMLID_109_" class="st3" points="951,1217.8 951,1243 807,1326.2 807,1301 					"/>
				</g>
			</g>
		</g>
		<path id="XMLID_103_" class="st47" d="M779.9,1285.5l26.9,15.5l144.3-83.4l-26.9-15.5L779.9,1285.5z M806.7,1295.2l-16.2-9.4
			l133.6-77.3l16.2,9.4L806.7,1295.2z"/>
		<polygon id="XMLID_102_" class="st48" points="924.1,1214.8 934.9,1221.1 806.7,1295.2 795.9,1288.9 		"/>
	</g>
	<g id="XMLID_86_">
		<polygon id="XMLID_100_" class="st45" points="1154,1081.8 1020,1159.3 1020,1153 1154,1075.6 		"/>
		<polygon id="XMLID_99_" class="st46" points="1153,1075.5 1153,1081.9 1175,1094.6 1175,1088.2 		"/>
		<g id="XMLID_95_">
			<g id="XMLID_96_" class="st38">
				<g id="XMLID_97_">
					<polygon id="XMLID_98_" class="st10" points="1009,1152.6 1009,1177.9 1036,1193.5 1036,1168.2 					"/>
				</g>
			</g>
		</g>
		<g id="XMLID_91_">
			<g id="XMLID_92_" class="st38">
				<g id="XMLID_93_">
					<polygon id="XMLID_94_" class="st3" points="1180,1084.9 1180,1110.1 1036,1193.4 1036,1168.1 					"/>
				</g>
			</g>
		</g>
		<path id="XMLID_88_" class="st47" d="M1009.4,1152.7l26.9,15.5l144.3-83.4l-26.9-15.5L1009.4,1152.7z M1036.2,1162.3l-16.2-9.4
			l133.6-77.3l16.2,9.4L1036.2,1162.3z"/>
		<polygon id="XMLID_87_" class="st48" points="1153.6,1081.9 1164.4,1088.2 1036.2,1162.3 1025.4,1156.1 		"/>
	</g>
	<g id="XMLID_63_">
		<polygon id="XMLID_85_" class="st45" points="1383,948.9 1249,1026.4 1249,1020.2 1383,942.7 		"/>
		<polygon id="XMLID_84_" class="st46" points="1383,942.6 1383,949 1405,961.7 1405,955.3 		"/>
		<g id="XMLID_72_">
			<g id="XMLID_81_" class="st38">
				<g id="XMLID_82_">
					<polygon id="XMLID_83_" class="st10" points="1239,1019.7 1239,1045 1266,1060.6 1266,1035.3 					"/>
				</g>
			</g>
		</g>
		<g id="XMLID_68_">
			<g id="XMLID_69_" class="st38">
				<g id="XMLID_70_">
					<polygon id="XMLID_71_" class="st3" points="1410,952 1410,977.2 1266,1060.5 1266,1035.2 					"/>
				</g>
			</g>
		</g>
		<path id="XMLID_65_" class="st47" d="M1238.9,1019.8l26.9,15.5l144.3-83.4l-26.9-15.5L1238.9,1019.8z M1265.7,1029.4l-16.2-9.4
			l133.6-77.3l16.2,9.4L1265.7,1029.4z"/>
		<polygon id="XMLID_64_" class="st48" points="1383.1,949 1393.9,955.3 1265.7,1029.4 1254.9,1023.2 		"/>
	</g>
</g>
</svg>
