<?xml version="1.0" encoding="utf-8"?>
<!-- Generator: Adobe Illustrator 21.1.0, SVG Export Plug-In . SVG Version: 6.00 Build 0)  -->
<svg version="1.1" id="Layer_1" xmlns="http://www.w3.org/2000/svg" xmlns:xlink="http://www.w3.org/1999/xlink" x="0px" y="0px"
	 viewBox="0 0 1500 1500" style="enable-background:new 0 0 1500 1500;" xml:space="preserve">
<style type="text/css">
	.st0{fill:#F6D9B7;}
	.st1{fill:#E2BCA5;}
	.st2{fill:#CCA092;}
	.st3{fill:#E0E4E4;}
	.st4{fill:#FCFDFF;}
	.st5{fill:#808184;}
	.st6{fill:#587ABB;}
	.st7{fill:#D3D3D3;}
	.st8{fill:#938B99;}
	.st9{fill:#536276;}
	.st10{fill:#5E6D7D;}
	.st11{fill:#E2E4E5;}
	.st12{fill:#F1F1F2;}
	.st13{fill:#6D7374;}
	.st14{fill:#9B7371;}
	.st15{fill:#807689;}
	.st16{fill:#776179;}
	.st17{fill:#C5DAE6;}
	.st18{opacity:0.2;fill:#404041;}
	.st19{fill:#250920;}
	.st20{fill:#40363B;}
	.st21{fill:#4E444A;}
	.st22{fill:#BBBDBF;}
	.st23{fill:#929497;}
	.st24{fill:#D0D2D3;}
	.st25{fill:#3A3D3F;}
	.st26{fill:#3C3E4A;}
	.st27{fill:#838383;}
	.st28{fill:#A4A7A9;}
	.st29{fill:#808080;}
	.st30{fill:#32343F;}
	.st31{fill:#526AA7;}
	.st32{fill:#70565D;}
	.st33{enable-background:new    ;}
	.st34{fill:#4F565B;}
	.st35{fill:#E6E7E8;}
	.st36{fill-rule:evenodd;clip-rule:evenodd;fill:#F1F1F2;}
	.st37{fill:#496198;}
	.st38{fill:#F6921E;}
	.st39{fill:#96999B;}
	.st40{opacity:0.2;fill:#FFFFFF;}
	.st41{fill:#C28D85;}
	.st42{fill:#BBBCBC;}
	.st43{fill:#383A45;}
	.st44{opacity:0.3;}
	.st45{fill:#404041;}
	.st46{fill:#A01623;}
	.st47{fill:#FAAF40;}
	.st48{fill:#FFC940;}
	.st49{fill:#5D525B;}
</style>
<g>
	<g>
		<polygon class="st0" points="807,1417.1 1474.8,1031.1 715.1,592.4 47.4,978.4 		"/>
		<polygon class="st1" points="807,1417.1 807,1438.2 1474.8,1052.1 1474.8,1031.1 		"/>
		<polygon class="st2" points="47.4,978.4 47.4,999.4 807,1438.2 807,1417.1 		"/>
	</g>
	<polygon class="st2" points="976,935.6 1306.9,1128.1 1186.7,1197.6 856,1005.2 	"/>
	<polygon class="st2" points="1122.6,850.1 1454.1,1043 1333.9,1112.5 1002.7,919.8 	"/>
	<g>
		<g>
			<path class="st3" d="M762.1,108.3v488c0,7.5-13.3,13.7-29.7,13.7c-16.4,0-29.7-6.1-29.7-13.7v-488H762.1z"/>
			<ellipse class="st4" cx="732.4" cy="108.3" rx="29.7" ry="13.7"/>
			<ellipse class="st5" cx="732.4" cy="108.3" rx="22" ry="8.4"/>
		</g>
		<path class="st6" d="M732.4,324.1c-14,0-25.8-4.2-29.7-10V172.9c0,7.5,13.3,13.7,29.7,13.7c16.4,0,29.7-6.1,29.7-13.7v141.2
			C758.2,319.9,746.4,324.1,732.4,324.1z"/>
	</g>
	<g>
		<g>
			<path class="st3" d="M663.4,165.4v488c0,7.5-13.3,13.7-29.7,13.7c-16.4,0-29.7-6.1-29.7-13.7v-488H663.4z"/>
			<ellipse class="st4" cx="633.7" cy="165.4" rx="29.7" ry="13.7"/>
			<ellipse class="st5" cx="633.7" cy="165.4" rx="22" ry="8.4"/>
		</g>
		<path class="st6" d="M633.7,381.2c-14,0-25.8-4.2-29.7-10V230c0,7.5,13.3,13.7,29.7,13.7c16.4,0,29.7-6.1,29.7-13.7v141.2
			C659.5,377,647.7,381.2,633.7,381.2z"/>
	</g>
	<g>
		<g>
			<path class="st3" d="M564.7,222.5v488c0,7.5-13.3,13.7-29.7,13.7c-16.4,0-29.7-6.1-29.7-13.7v-488H564.7z"/>
			<ellipse class="st4" cx="535" cy="222.5" rx="29.7" ry="13.7"/>
			<ellipse class="st5" cx="535" cy="222.5" rx="22" ry="8.4"/>
		</g>
		<path class="st6" d="M535,438.3c-14,0-25.8-4.2-29.7-10V287.1c0,7.5,13.3,13.7,29.7,13.7c16.4,0,29.7-6.1,29.7-13.7v141.2
			C560.8,434.1,549,438.3,535,438.3z"/>
	</g>
	<g>
		<polygon class="st7" points="665.5,931.3 314.4,726.2 314.4,911.8 665.5,1116.1 		"/>
		<polygon class="st8" points="789.8,448.7 314.4,726.2 665.5,931.4 1141.8,653.3 		"/>
		<polygon class="st3" points="1141.8,653.3 665.5,931.4 665.5,1116.1 1141.8,839 		"/>
	</g>
	<g>
		<g>
			<polygon class="st7" points="529.1,777.6 314.4,652.2 314.4,728.4 529.1,852.9 			"/>
			<polygon class="st4" points="592.2,490.6 314.3,652.3 529.1,777.6 807.6,615.6 			"/>
			<polygon class="st3" points="807.6,615.6 529.1,777.6 529.1,852.9 807.6,691.7 			"/>
		</g>
		<g>
			<polygon class="st7" points="529,698.8 314.3,573.5 314.3,613.1 529,737.7 			"/>
			<polygon class="st4" points="592.1,411.8 314.3,573.5 529,698.9 807.5,536.8 			"/>
			<polygon class="st3" points="807.5,536.8 529,698.9 529,737.7 807.5,576.4 			"/>
		</g>
		<g>
			<polygon class="st9" points="529,737.7 330.2,622.3 330.2,651.6 529,767 			"/>
			<polygon class="st10" points="786.9,588.4 529,737.7 529,767 786.9,616.9 			"/>
		</g>
		<g>
			<polygon class="st4" points="588.4,420.3 343.2,563 532.7,673.6 778.5,530.6 			"/>
			<polygon class="st11" points="343.2,563 314.3,573.5 529,698.9 532.7,673.6 			"/>
			<polygon class="st7" points="532.7,673.6 529,698.9 807.5,536.8 778.5,530.6 			"/>
			<polygon class="st11" points="778.5,530.6 807.5,536.8 592.1,411.8 588.4,420.3 			"/>
			<polygon class="st7" points="314.3,573.5 343.2,563 588.4,420.3 592.1,411.8 			"/>
		</g>
	</g>
	<g>
		<polygon class="st12" points="1002.9,908.8 1113.2,844.7 1122.7,850.1 1002.9,919.8 		"/>
		<polygon class="st13" points="1113.2,844.7 1113.2,748.8 1002.9,812.5 1002.9,908.8 		"/>
		<polygon class="st7" points="1122.7,743.4 1122.7,850.1 1113.2,844.7 1113.2,748.8 		"/>
	</g>
	<g>
		<polygon class="st12" points="856,994.2 966.4,930 975.8,935.5 856,1005.2 		"/>
		<polygon class="st14" points="966.4,930 966.4,834.2 856,897.9 856,994.2 		"/>
		<polygon class="st7" points="975.8,828.8 975.8,935.5 966.4,930 966.4,834.2 		"/>
	</g>
	<g>
		<polygon class="st15" points="388.8,973.6 388.8,1042.9 442.9,1011.7 442.9,942.4 		"/>
		<polygon class="st16" points="388.8,973.6 388.8,1042.9 223.4,947.4 223.4,878.1 		"/>
		<polygon class="st17" points="371.7,977.3 371.7,998.9 320.2,969.1 320.2,947.6 		"/>
		<polygon class="st17" points="371.7,1007.7 371.7,1022.5 336.4,1002.2 336.4,987.4 		"/>
		<polygon class="st8" points="442.9,942.4 388.8,973.6 223.4,878.1 277.5,846.9 		"/>
	</g>
	<g>
		<polygon class="st15" points="301.5,1024.5 301.5,1093.8 355.5,1062.6 355.5,993.3 		"/>
		<polygon class="st16" points="301.5,1024.5 301.5,1093.8 136.1,998.3 136.1,929 		"/>
		<polygon class="st17" points="284.3,1028.2 284.3,1049.8 232.8,1020 232.8,998.5 		"/>
		<polygon class="st17" points="284.3,1058.6 284.3,1073.4 249.1,1053.1 249.1,1038.3 		"/>
		<polygon class="st8" points="355.5,993.3 301.5,1024.5 136.1,929 190.1,897.8 		"/>
	</g>
	<g>
		<polygon class="st10" points="386,842 386,815.3 345.3,791.8 345.3,818.3 		"/>
		<polygon class="st3" points="345.3,791.8 350.5,794.7 350.5,815.4 345.3,818.3 		"/>
		<polygon class="st4" points="350.5,815.4 386,835.9 386,842 345.3,818.3 		"/>
	</g>
	<g>
		<polygon class="st10" points="447,877.5 447,850.8 406.4,827.3 406.4,853.9 		"/>
		<polygon class="st3" points="406.4,827.3 411.5,830.3 411.5,851 406.4,853.9 		"/>
		<polygon class="st4" points="411.5,851 447,871.4 447,877.5 406.4,853.9 		"/>
	</g>
	<g>
		<polygon class="st10" points="508,913.1 508,886.4 467.4,862.9 467.4,889.4 		"/>
		<polygon class="st3" points="467.4,862.9 472.5,865.8 472.5,886.5 467.4,889.4 		"/>
		<polygon class="st4" points="472.5,886.5 508,907 508,913.1 467.4,889.4 		"/>
	</g>
	<g>
		<polygon class="st10" points="569,948.6 569,921.9 528.4,898.5 528.4,925 		"/>
		<polygon class="st3" points="528.4,898.5 533.5,901.4 533.5,922.1 528.4,925 		"/>
		<polygon class="st4" points="533.5,922.1 569,942.5 569,948.6 528.4,925 		"/>
	</g>
	<g>
		<polygon class="st10" points="630,984.2 630,957.5 589.4,934 589.4,960.5 		"/>
		<polygon class="st3" points="589.4,934 594.5,937 594.5,957.7 589.4,960.5 		"/>
		<polygon class="st4" points="594.5,957.7 630,978.1 630,984.2 589.4,960.5 		"/>
	</g>
	<g>
		<g>
			<polygon class="st18" points="916,1178.3 979.7,1140.7 834.5,1056.1 770.8,1093.7 			"/>
			<g>
				<polygon class="st19" points="876.5,1132.1 783.2,1079 788.3,1075 876.5,1127.6 				"/>
				<polygon class="st19" points="780.4,1083 789.4,1077.2 780.4,1072 				"/>
				<g>
					<g>
						<path class="st20" d="M805.6,1112.2c0,0,0.1-0.1,0.1-0.1c0.1-0.1,0.2-0.2,0.3-0.3c0,0,0,0,0,0c0.1-0.1,0.2-0.2,0.3-0.3
							c0,0,0.1-0.1,0.1-0.1c0.1-0.1,0.2-0.2,0.2-0.3c0,0,0.1-0.1,0.1-0.1c0.1-0.1,0.1-0.2,0.2-0.3c0,0,0-0.1,0.1-0.1
							c0.1-0.1,0.2-0.3,0.3-0.5c0.1-0.2,0.2-0.3,0.2-0.5c0,0,0-0.1,0-0.1c0.1-0.1,0.1-0.3,0.2-0.4c0,0,0-0.1,0-0.1
							c0-0.1,0.1-0.2,0.1-0.3c0-0.1,0.1-0.3,0.1-0.4c0-0.1,0.1-0.2,0.1-0.3c0-0.1,0.1-0.2,0.1-0.4c0-0.1,0-0.2,0.1-0.3
							c0-0.1,0-0.2,0.1-0.3c0-0.1,0-0.2,0.1-0.3c0-0.1,0-0.2,0-0.3c0-0.1,0-0.3,0-0.4c0-0.1,0-0.2,0-0.3c0-0.2,0-0.3,0-0.5
							c0-0.1,0-0.1,0-0.2c0-0.2,0-0.5,0-0.7c0-0.2,0-0.5,0-0.7c0-0.1,0-0.2,0-0.2c0-0.2,0-0.3,0-0.5c0-0.1,0-0.2,0-0.2
							c0-0.2,0-0.3-0.1-0.5c0-0.1,0-0.1,0-0.2c0-0.2-0.1-0.5-0.1-0.7c0,0,0-0.1,0-0.1c0-0.2-0.1-0.4-0.1-0.6c0-0.1,0-0.2-0.1-0.3
							c0-0.2-0.1-0.3-0.1-0.5c0-0.1,0-0.2-0.1-0.3c0-0.2-0.1-0.3-0.1-0.5c0-0.1,0-0.2-0.1-0.3c0-0.2-0.1-0.3-0.1-0.5
							c0-0.1,0-0.2-0.1-0.2c-0.1-0.2-0.2-0.5-0.2-0.7c0,0,0,0,0-0.1c-0.1-0.2-0.2-0.5-0.2-0.7c0-0.1-0.1-0.1-0.1-0.2
							c-0.1-0.2-0.1-0.3-0.2-0.5c0-0.1-0.1-0.2-0.1-0.2c-0.1-0.2-0.1-0.4-0.2-0.5c0-0.1-0.1-0.1-0.1-0.2c-0.1-0.2-0.2-0.5-0.3-0.7
							c0-0.1-0.1-0.1-0.1-0.2c-0.1-0.2-0.2-0.4-0.3-0.5c-0.1-0.1-0.1-0.3-0.2-0.4c-0.1-0.1-0.1-0.2-0.2-0.4c-0.2-0.3-0.4-0.7-0.6-1
							c-0.1-0.1-0.1-0.2-0.2-0.3c-0.1-0.1-0.2-0.3-0.2-0.4c-0.1-0.1-0.1-0.2-0.2-0.4c-0.1-0.1-0.2-0.3-0.3-0.4
							c-0.1-0.1-0.1-0.2-0.2-0.2c-0.2-0.4-0.5-0.7-0.7-1c0,0,0,0,0,0c-0.2-0.2-0.4-0.5-0.5-0.7c-0.1-0.2-0.3-0.4-0.4-0.5
							c0,0-0.1-0.1-0.1-0.1c-0.2-0.2-0.3-0.4-0.5-0.6c-0.1-0.1-0.1-0.1-0.2-0.2c-0.1-0.1-0.3-0.3-0.4-0.4c-0.1-0.1-0.1-0.2-0.2-0.2
							c-0.1-0.1-0.2-0.2-0.3-0.3c-0.1-0.1-0.2-0.2-0.2-0.2c-0.1-0.1-0.2-0.2-0.3-0.3c-0.1-0.1-0.2-0.2-0.3-0.2
							c-0.1-0.1-0.2-0.2-0.3-0.3c-0.1-0.1-0.2-0.2-0.3-0.2c-0.1-0.1-0.2-0.2-0.3-0.3c-0.1-0.1-0.2-0.1-0.3-0.2
							c-0.1-0.1-0.2-0.2-0.4-0.3c-0.1-0.1-0.2-0.1-0.2-0.2c-0.1-0.1-0.3-0.2-0.4-0.3c-0.1,0-0.1-0.1-0.2-0.1
							c-0.2-0.1-0.4-0.3-0.6-0.4c0,0,0,0,0,0c-0.2-0.1-0.4-0.3-0.6-0.4c-0.2-0.1-0.4-0.2-0.6-0.3c-0.1,0-0.1-0.1-0.2-0.1
							c-0.1-0.1-0.3-0.1-0.4-0.2c-0.1,0-0.1-0.1-0.2-0.1c-0.2-0.1-0.4-0.2-0.6-0.3c-0.2-0.1-0.4-0.1-0.6-0.2c-0.1,0-0.1,0-0.2-0.1
							c-0.1,0-0.3-0.1-0.4-0.1c-0.1,0-0.2,0-0.2-0.1c-0.1,0-0.2-0.1-0.4-0.1c-0.1,0-0.2,0-0.2-0.1c-0.1,0-0.2,0-0.3-0.1
							c-0.1,0-0.2,0-0.3,0c-0.1,0-0.2,0-0.3,0c-0.1,0-0.2,0-0.3,0c-0.1,0-0.2,0-0.3,0c-0.1,0-0.2,0-0.3,0c-0.2,0-0.3,0-0.4,0
							c0,0,0,0,0,0c-0.1,0-0.3,0-0.4,0c0,0-0.1,0-0.1,0c-0.2,0-0.3,0-0.5,0.1c0,0-0.1,0-0.1,0c-0.1,0-0.2,0.1-0.4,0.1
							c-0.1,0-0.1,0-0.2,0.1c-0.1,0-0.2,0.1-0.3,0.1c-0.1,0-0.2,0.1-0.3,0.1c-0.1,0-0.1,0-0.2,0.1c-0.2,0.1-0.3,0.2-0.5,0.2
							c0,0,12.3-7.1,12.3-7.2c0.2-0.1,0.3-0.2,0.5-0.2c0.1,0,0.1,0,0.2-0.1c1.8-0.8,3.9-0.6,5.8,0c1.8,0.6,3.6,1.6,5.1,2.8
							c0,0,0.1,0.1,0.1,0.1c0.1,0.1,0.2,0.1,0.3,0.2c5.5,4.6,9.5,11.8,10,19c0.2,2.5-0.1,5.3-1.5,7.4c0,0,0,0,0,0c0,0,0,0.1-0.1,0.1
							c-0.1,0.1-0.1,0.2-0.2,0.3c0,0-0.1,0.1-0.1,0.1c-0.1,0.1-0.1,0.2-0.2,0.3c0,0-0.1,0.1-0.1,0.1c-0.1,0.1-0.2,0.2-0.3,0.3
							c0,0,0,0,0,0c-0.1,0.1-0.2,0.2-0.3,0.3c0,0-0.1,0.1-0.1,0.1c-0.1,0.1-0.2,0.1-0.3,0.2c0,0-0.1,0.1-0.1,0.1
							c-0.1,0.1-0.3,0.2-0.4,0.2l-12.3,7.2c0.1-0.1,0.3-0.2,0.4-0.2c0,0,0.1-0.1,0.1-0.1C805.5,1112.3,805.5,1112.2,805.6,1112.2z"
							/>
						<g>
							<path class="st21" d="M795.8,1082.2c7.1,4.1,12.9,14.1,12.9,22.3c0,8.2-5.8,11.5-12.9,7.4c-7.1-4.1-12.9-14.1-12.9-22.3
								C782.9,1081.3,788.7,1078,795.8,1082.2z"/>
						</g>
					</g>
					<g>
						<g>
							<path class="st22" d="M795.3,1087.9c4.4,2.5,8,8.5,8.4,13.6c0,0.3,0,0.6,0,0.9c0,5.4-3.8,7.5-8.5,4.8
								c-4.7-2.7-8.4-9.2-8.4-14.6c0-0.3,0-0.6,0-0.9C787.3,1087.1,790.9,1085.4,795.3,1087.9z"/>
						</g>
						<g>
							<path class="st23" d="M795.3,1090.6c3.2,1.8,5.8,6.2,6.1,9.9c0,0.2,0,0.5,0,0.7c0,3.9-2.8,5.5-6.2,3.5
								c-3.4-2-6.1-6.7-6.1-10.6c0-0.2,0-0.4,0-0.6C789.5,1090,792.1,1088.7,795.3,1090.6z"/>
						</g>
						<path class="st24" d="M789.2,1093.4c0.2-2.8,2.1-4.2,4.5-3.5c-1.9,0-3.3,1.3-3.5,3.7c0,0.2,0,0.4,0,0.6
							c0,3.9,2.7,8.6,6.1,10.6c0.5,0.3,1.1,0.5,1.6,0.7c-0.8,0-1.7-0.3-2.7-0.8c-3.4-2-6.1-6.7-6.1-10.6
							C789.2,1093.8,789.2,1093.6,789.2,1093.4z"/>
						<g>
							<path class="st25" d="M793,1098.4c-0.2-0.1-0.4-0.1-0.5,0c-0.3,0.2-0.3,0.7,0,1.1c0.1,0.2,0.3,0.4,0.5,0.5
								c0.2,0.1,0.4,0.1,0.5,0.1c0.3-0.2,0.3-0.7,0-1.1C793.3,1098.6,793.2,1098.5,793,1098.4z"/>
							<path class="st25" d="M795.7,1095.8c-0.9-0.5-1.6-0.1-1.6,0.9c0,1,0.7,2.2,1.6,2.7c0.9,0.5,1.6,0.1,1.6-0.9
								C797.3,1097.5,796.6,1096.3,795.7,1095.8z"/>
							<path class="st25" d="M795.7,1101.2c-0.4-0.2-0.7,0-0.7,0.4c0,0.4,0.3,1,0.7,1.2c0.4,0.2,0.7,0,0.7-0.4
								C796.4,1102,796.1,1101.4,795.7,1101.2z"/>
							<path class="st25" d="M798.4,1101.5c-0.2-0.1-0.4-0.1-0.5,0c-0.3,0.2-0.3,0.7,0,1.1c0.1,0.2,0.3,0.4,0.5,0.5
								c0.2,0.1,0.4,0.1,0.5,0c0.3-0.2,0.3-0.7,0-1.1C798.7,1101.8,798.6,1101.6,798.4,1101.5z"/>
							<path class="st25" d="M793,1092.2c-0.2-0.1-0.4-0.1-0.5,0c-0.3,0.2-0.3,0.7,0,1.1c0.1,0.2,0.3,0.4,0.5,0.5
								c0.2,0.1,0.4,0.1,0.5,0.1c0.3-0.2,0.3-0.7,0-1.1C793.4,1092.5,793.2,1092.3,793,1092.2z"/>
							<path class="st25" d="M795.7,1094c0.4,0.2,0.7,0,0.7-0.4c0-0.4-0.3-1-0.7-1.2c-0.4-0.2-0.7,0-0.7,0.4
								C795,1093.3,795.3,1093.8,795.7,1094z"/>
							<path class="st25" d="M798.4,1096.9c0.2,0.1,0.4,0.1,0.5,0c0.3-0.2,0.3-0.7,0-1.1c-0.1-0.2-0.3-0.4-0.5-0.5
								c-0.2-0.1-0.4-0.1-0.5,0c-0.3,0.2-0.3,0.7,0,1.1C798,1096.6,798.2,1096.8,798.4,1096.9z"/>
							<path class="st25" d="M792.6,1095.8c0-0.4-0.3-1-0.7-1.2c-0.4-0.2-0.7,0-0.7,0.4c0,0.4,0.3,1,0.7,1.2
								C792.3,1096.4,792.6,1096.3,792.6,1095.8z"/>
							<path class="st25" d="M799.5,1099c-0.4-0.2-0.7,0-0.7,0.4c0,0.4,0.3,1,0.7,1.2c0.4,0.2,0.7,0,0.7-0.4
								C800.2,1099.8,799.9,1099.2,799.5,1099z"/>
						</g>
					</g>
				</g>
				<polygon class="st26" points="882.8,1123.7 929.4,1097.3 821,1034.3 774.4,1060.8 				"/>
				<g>
					<path class="st27" d="M875.8,1124C875.8,1124,875.8,1124,875.8,1124C875.8,1123.9,875.7,1123.9,875.8,1124
						c-0.1-0.1-0.1-0.1-0.1-0.1c0,0,0,0-0.1,0c0,0,0,0,0,0c0,0,0,0,0,0c0,0,0,0-0.1,0c0,0,0,0,0,0c0,0,0,0-0.1,0c0,0,0,0,0,0
						c0,0,0,0-0.1,0c0,0,0,0,0,0c0,0-0.1,0-0.1,0c0,0,0,0,0,0c0,0-0.1,0-0.1,0c0,0,0,0,0,0c0,0-0.1,0-0.1,0c0,0-0.1,0-0.1,0
						c0,0,0,0,0,0c0,0-0.1,0-0.1,0c0,0,0,0,0,0c0,0,0,0-0.1,0c0,0,0,0-0.1,0c0,0,0,0-0.1,0c0,0,0,0-0.1,0c0,0,0,0-0.1,0
						c0,0,0,0-0.1,0c0,0,0,0-0.1,0c0,0,0,0-0.1,0c0,0,0,0-0.1,0c0,0,0,0-0.1,0c0,0,0,0-0.1,0c0,0,0,0-0.1,0c0,0,0,0,0,0
						c0,0-0.1,0-0.1,0c0,0,0,0,0,0c0,0-0.1,0-0.1,0c0,0,0,0,0,0c0,0-0.1,0-0.1,0c0,0,0,0,0,0c0,0-0.1,0-0.1,0c0,0,0,0,0,0
						c0,0-0.1,0-0.1,0c0,0,0,0,0,0c0,0-0.1,0-0.1,0c0,0,0,0,0,0c0,0-0.1,0-0.1,0c0,0,0,0,0,0c0,0-0.1,0-0.1,0c0,0,0,0,0,0
						c0,0-0.1,0-0.1,0c0,0,0,0,0,0c0,0-0.1,0-0.1,0.1c0,0,0,0,0,0c0,0-0.1,0-0.1,0.1c0,0,0,0,0,0c0,0-0.1,0-0.1,0.1l-25.4-14.8
						c0,0,0.1,0,0.1-0.1c0,0,0,0,0,0c0,0,0,0,0,0c0,0,0.1,0,0.1-0.1c0,0,0,0,0,0c0,0,0.1,0,0.1-0.1c0,0,0,0,0,0c0,0,0,0,0,0
						c0,0,0.1,0,0.1,0c0,0,0,0,0,0c0,0,0,0,0,0c0,0,0,0,0.1,0c0,0,0,0,0,0c0,0,0.1,0,0.1,0c0,0,0,0,0,0c0,0,0,0,0,0c0,0,0.1,0,0.1,0
						c0,0,0,0,0,0c0,0,0,0,0,0c0,0,0,0,0,0c0,0,0,0,0,0c0,0,0.1,0,0.1,0c0,0,0,0,0,0c0,0,0,0,0,0c0,0,0,0,0.1,0c0,0,0,0,0,0
						c0,0,0.1,0,0.1,0c0,0,0,0,0,0c0,0,0,0,0,0c0,0,0.1,0,0.1,0c0,0,0,0,0,0c0,0,0,0,0,0c0,0,0,0,0,0c0,0,0,0,0.1,0c0,0,0,0,0.1,0
						c0,0,0,0,0.1,0c0,0,0,0,0,0c0,0,0,0,0,0c0,0,0,0,0.1,0c0,0,0,0,0.1,0c0,0,0,0,0.1,0c0,0,0,0,0,0c0,0,0,0,0,0c0,0,0,0,0.1,0
						c0,0,0,0,0.1,0c0,0,0,0,0.1,0c0,0,0,0,0,0c0,0,0,0,0,0c0,0,0.1,0,0.1,0c0,0,0,0,0,0c0,0,0.1,0,0.1,0h0c0,0,0.1,0,0.1,0
						c0,0,0,0,0,0c0,0,0,0,0.1,0c0,0,0,0,0,0c0,0,0.1,0,0.1,0c0,0,0,0,0,0c0,0,0,0,0,0c0,0,0,0,0.1,0c0,0,0,0,0,0c0,0,0,0,0.1,0
						c0,0,0,0,0,0c0,0,0,0,0.1,0c0,0,0,0,0,0c0,0,0,0,0,0c0,0,0,0,0,0c0,0,0,0,0.1,0c0,0,0,0,0,0c0,0,0,0,0.1,0c0,0,0,0,0,0
						c0,0,0,0,0.1,0c0,0,0,0,0,0c0,0,0.1,0,0.1,0.1v0l25.4,14.8C876,1124,875.9,1124,875.8,1124C875.9,1124,875.9,1124,875.8,1124
						C875.9,1124,875.8,1124,875.8,1124z"/>
					<g>
						<polygon class="st28" points="872.4,1124.4 847,1109.6 844,1111.4 869.3,1126.2 						"/>
					</g>
					<path class="st24" d="M838.9,1120C838.9,1120,838.9,1119.9,838.9,1120C838.9,1119.9,838.9,1119.9,838.9,1120c0-0.1,0-0.1,0-0.1
						c0,0,0,0,0,0c0,0,0-0.1,0-0.1c0,0,0,0,0,0v0c0,0,0-0.1,0-0.1c0,0,0,0,0,0c0,0,0,0,0-0.1c0,0,0,0,0,0c0,0,0,0,0,0
						c0,0,0-0.1,0-0.1c0,0,0,0,0,0c0,0,0,0,0,0c0,0,0-0.1,0-0.1c0,0,0,0,0,0c0,0,0-0.1,0-0.1v0c0,0,0,0,0,0c0,0,0-0.1,0-0.1
						c0,0,0,0,0-0.1s0,0,0,0c0,0,0,0,0,0c0,0,0,0,0-0.1c0,0,0-0.1,0-0.1c0,0,0,0,0,0c0,0,0,0,0,0c0,0,0-0.1,0-0.1c0,0,0,0,0,0
						c0,0,0-0.1,0-0.1l0,0c0,0,0,0,0,0c0,0,0-0.1,0-0.1c0,0,0,0,0-0.1c0,0,0,0,0-0.1c0,0,0,0,0,0c0,0,0,0,0-0.1c0,0,0-0.1,0-0.1
						c0,0,0,0,0-0.1c0,0,0,0,0,0c0,0,0-0.1,0-0.1c0,0,0,0,0,0c0,0,0-0.1,0-0.1l0,0c0,0,0,0,0,0c0,0,0-0.1,0-0.1c0,0,0,0,0-0.1
						c0,0,0,0,0-0.1c0,0,0,0,0,0c0,0,0,0,0,0c0,0,0-0.1,0-0.1c0,0,0,0,0,0c0,0,0,0,0,0c0,0,0-0.1,0.1-0.1c0,0,0,0,0,0
						c0,0,0-0.1,0-0.1c0,0,0,0,0,0c0-0.1,0.1-0.1,0.1-0.2c0,0,0,0,0,0c0,0,0,0,0,0c0-0.1,0.1-0.1,0.1-0.2c0,0,0,0,0,0c0,0,0,0,0,0
						c0,0,0,0,0,0c0,0,0-0.1,0-0.1c0,0,0,0,0-0.1c0,0,0,0,0-0.1c0,0,0,0,0,0c0,0,0,0,0-0.1c0,0,0-0.1,0-0.1c0,0,0-0.1,0-0.1
						c0,0,0,0,0,0c0,0,0,0,0,0c0-0.1,0.1-0.1,0.1-0.2c0,0,0,0,0,0c0-0.1,0.1-0.1,0.1-0.2c0,0,0,0,0,0c0,0,0,0,0,0c0,0,0-0.1,0-0.1
						c0,0,0,0,0-0.1c0,0,0-0.1,0-0.1c0,0,0,0,0-0.1c0,0,0-0.1,0.1-0.1c0,0,0,0,0-0.1c0,0,0-0.1,0.1-0.1c0,0,0,0,0,0c0,0,0,0,0,0
						c0-0.1,0.1-0.1,0.1-0.2c0,0,0,0,0,0c0-0.1,0.1-0.1,0.1-0.2l0,0c0,0,0,0,0,0c0,0,0.1-0.1,0.1-0.1c0,0,0,0,0-0.1
						c0,0,0-0.1,0.1-0.1c0,0,0,0,0,0c0,0,0,0,0-0.1c0,0,0,0,0-0.1c0,0,0-0.1,0.1-0.1c0,0,0,0,0,0c0,0,0,0,0,0c0,0,0.1-0.1,0.1-0.1
						c0,0,0,0,0,0c0,0,0.1-0.1,0.1-0.1c0,0,0,0,0,0c0,0,0,0,0,0c0,0,0-0.1,0.1-0.1c0,0,0,0,0,0c0,0,0,0,0,0c0,0,0,0,0,0c0,0,0,0,0,0
						c0,0,0,0,0.1-0.1c0,0,0,0,0,0c0,0,0,0,0,0c0,0,0,0,0,0c0,0,0,0,0,0c0,0,0,0,0.1-0.1c0,0,0,0,0,0c0,0,0,0,0,0c0,0,0,0,0,0
						c0,0,0,0,0,0c0,0,0,0,0.1-0.1c0,0,0,0,0,0c0,0,0,0,0,0c0,0,0,0,0.1-0.1c0,0,0,0,0,0c0,0,0.1-0.1,0.1-0.1c0,0,0,0,0,0l0,0
						c0,0,0.1-0.1,0.1-0.1c0,0,0,0,0,0c0,0,0,0,0.1-0.1c0,0,0,0,0,0c0,0,0,0,0,0c0,0,0.1,0,0.1-0.1c0,0,0,0,0,0c0,0,0,0,0,0
						c0,0,0,0,0,0c0,0,0,0,0,0c0,0,0,0,0.1-0.1c0,0,0,0,0,0c0,0,0,0,0,0c0,0,0,0,0.1,0c0,0,0,0,0,0c0,0,0.1-0.1,0.1-0.1l0,0
						c0,0,0,0,0,0c0,0,0.1,0,0.1-0.1c0,0,0,0,0,0c0,0,0,0,0.1,0c0,0,0,0,0,0l25.4,14.8c0,0-0.1,0-0.1,0.1c0,0,0,0,0,0
						c0,0-0.1,0-0.1,0.1c0,0,0,0,0,0c0,0-0.1,0.1-0.1,0.1c0,0,0,0,0,0c0,0-0.1,0-0.1,0.1c0,0,0,0,0,0c0,0,0,0-0.1,0.1c0,0,0,0,0,0
						c0,0,0,0-0.1,0.1c0,0,0,0,0,0c0,0-0.1,0-0.1,0.1c0,0,0,0,0,0c0,0-0.1,0-0.1,0.1c0,0,0,0,0,0c0,0-0.1,0.1-0.1,0.1c0,0,0,0,0,0
						c0,0-0.1,0.1-0.1,0.1c0,0,0,0,0,0c0,0,0,0-0.1,0.1c0,0,0,0,0,0c0,0,0,0-0.1,0.1c0,0,0,0,0,0c0,0,0,0-0.1,0.1c0,0,0,0,0,0
						c0,0,0,0-0.1,0.1c0,0,0,0,0,0c0,0,0,0-0.1,0.1c0,0,0,0,0,0c0,0,0,0-0.1,0.1c0,0,0,0,0,0c0,0,0,0-0.1,0.1c0,0,0,0,0,0
						c0,0,0,0.1-0.1,0.1c0,0,0,0,0,0c0,0-0.1,0.1-0.1,0.1c0,0,0,0,0,0c0,0-0.1,0.1-0.1,0.1c0,0,0,0,0,0c0,0,0,0.1-0.1,0.1
						c0,0,0,0,0,0.1c0,0,0,0-0.1,0.1c0,0,0,0.1-0.1,0.1c0,0,0,0,0,0.1c0,0-0.1,0.1-0.1,0.1c0,0,0,0,0,0c0,0.1-0.1,0.1-0.1,0.2
						c0,0,0,0,0,0c0,0.1-0.1,0.1-0.1,0.2c0,0,0,0,0,0.1c0,0,0,0.1-0.1,0.1c0,0,0,0,0,0.1c0,0,0,0.1-0.1,0.1c0,0,0,0,0,0.1
						c0,0,0,0.1,0,0.1c0,0,0,0,0,0.1c0,0,0,0.1,0,0.1c0,0,0,0,0,0.1c0,0.1-0.1,0.1-0.1,0.2c0,0,0,0,0,0c0,0.1-0.1,0.1-0.1,0.2
						c0,0,0,0,0,0.1c0,0,0,0.1,0,0.1c0,0,0,0.1,0,0.1c0,0,0,0.1,0,0.1c0,0,0,0.1,0,0.1c0,0,0,0,0,0.1c0,0,0,0.1,0,0.1c0,0,0,0,0,0
						c0,0,0,0,0,0c0,0.1-0.1,0.1-0.1,0.2c0,0,0,0,0,0c0,0.1-0.1,0.1-0.1,0.2c0,0,0,0.1,0,0.1c0,0,0,0,0,0c0,0,0,0.1-0.1,0.1
						c0,0,0,0,0,0c0,0,0,0.1,0,0.1c0,0,0,0,0,0c0,0,0,0.1,0,0.1c0,0,0,0,0,0.1c0,0,0,0.1,0,0.1c0,0,0,0,0,0c0,0,0,0.1,0,0.1
						c0,0,0,0,0,0c0,0,0,0.1,0,0.1c0,0,0,0,0,0.1c0,0,0,0.1,0,0.1c0,0,0,0,0,0.1c0,0,0,0.1,0,0.1c0,0,0,0,0,0.1c0,0,0,0.1,0,0.1
						c0,0,0,0,0,0c0,0,0,0.1,0,0.1c0,0,0,0,0,0c0,0,0,0.1,0,0.1c0,0,0,0,0,0c0,0,0,0.1,0,0.1c0,0,0,0,0,0.1c0,0,0,0.1,0,0.1
						c0,0,0,0,0,0.1c0,0,0,0.1,0,0.1c0,0,0,0,0,0c0,0,0,0.1,0,0.1c0,0,0,0,0,0c0,0,0,0.1,0,0.1c0,0,0,0,0,0c0,0,0,0.1,0,0.1
						c0,0,0,0,0,0c0,0,0,0.1,0,0.1c0,0,0,0,0,0c0,0,0,0.1,0,0.1c0,0,0,0,0,0c0,0,0,0.1,0,0.1c0,0,0,0,0,0c0,0,0,0.1,0,0.1
						c0,0,0,0,0,0c0,0,0,0.1,0,0.1c0,0,0,0.1,0,0.1c0,0,0,0,0,0c0,0,0,0.1,0,0.1c0,0,0,0,0,0c0,0,0,0.1,0,0.1c0,0,0,0,0,0
						c0,0,0,0.1,0,0.1c0,0,0,0,0,0.1c0,0,0,0.1,0,0.1c0,0,0,0,0,0c0,0,0,0.1,0,0.1c0,0,0,0,0,0c0,0,0,0.1,0,0.1c0,0,0,0,0,0
						c0,0,0,0.1,0,0.1c0,0,0,0,0,0c0,0,0,0.1,0,0.1c0,0,0,0.1,0,0.1c0,0,0,0,0,0c0,0,0,0.1,0,0.1c0,0,0,0,0,0c0,0,0,0.1,0,0.1
						c0,0,0,0,0,0c0,0,0,0.1,0,0.1c0,0,0,0,0,0c0,0,0,0.1,0,0.1c0,0,0,0,0,0c0,0,0,0.1,0.1,0.1c0,0,0,0.1,0,0.1c0,0,0,0,0,0
						c0,0,0,0.1,0,0.1c0,0,0,0,0,0c0,0,0,0,0,0.1c0,0,0,0,0,0c0,0,0,0,0,0.1c0,0,0,0,0,0c0,0,0,0,0,0.1c0,0,0,0,0,0c0,0,0,0,0,0.1
						c0,0,0,0,0,0c0,0,0,0,0.1,0.1c0,0,0,0,0,0c0,0,0,0,0,0.1c0,0,0,0,0,0c0,0,0,0,0,0.1c0,0,0,0,0,0c0,0,0,0,0.1,0.1c0,0,0,0,0,0
						c0,0,0,0,0.1,0c0,0,0,0,0,0c0,0,0,0,0,0c0,0,0,0,0,0c0,0,0,0,0.1,0.1c0,0,0,0,0,0c0,0,0,0,0.1,0c0,0,0,0,0,0c0,0,0,0,0.1,0
						c0,0,0,0,0,0c0,0,0,0,0.1,0l0,0l-25.4-14.8c0,0-0.1,0-0.1,0c0,0,0,0,0,0c0,0,0,0-0.1,0c0,0,0,0,0,0c0,0,0,0-0.1,0c0,0,0,0,0,0
						c0,0,0,0-0.1-0.1c0,0,0,0,0,0c0,0,0,0-0.1,0c0,0,0,0,0,0c0,0,0,0,0,0c0,0,0,0,0,0c0,0,0,0-0.1-0.1c0,0,0,0,0,0c0,0,0,0,0-0.1
						c0,0,0,0,0,0c0,0,0,0,0-0.1c0,0,0,0,0,0c0,0,0,0-0.1-0.1c0,0,0,0,0,0c0,0,0,0-0.1-0.1c0,0,0,0,0,0c0,0,0,0,0-0.1c0,0,0,0,0,0
						c0,0,0,0,0,0c0,0,0,0,0,0c0,0,0,0,0,0c0,0,0,0,0-0.1c0,0,0,0,0,0c0,0,0-0.1,0-0.1c0,0,0,0,0,0c0,0,0,0,0-0.1l0,0
						c0,0,0-0.1-0.1-0.1c0,0,0,0,0,0c0,0,0-0.1,0-0.1c0,0,0,0,0,0c0,0,0,0,0,0c0,0,0-0.1,0-0.1c0,0,0,0,0,0c0,0,0-0.1,0-0.1
						c0,0,0,0,0,0c0,0,0,0,0,0c0,0,0-0.1,0-0.1c0,0,0,0,0,0c0,0,0-0.1,0-0.1l0,0c0,0,0-0.1,0-0.1c0,0,0,0,0,0c0,0,0-0.1,0-0.1
						c0,0,0,0,0,0l0,0c0,0,0-0.1,0-0.1c0,0,0,0,0,0c0,0,0,0,0-0.1c0,0,0,0,0,0c0,0,0,0,0,0c0,0,0-0.1,0-0.1c0,0,0,0,0-0.1
						c0,0,0,0,0,0c0,0,0,0,0,0c0,0,0,0,0,0c0,0,0-0.1,0-0.1c0,0,0,0,0,0c0,0,0,0,0,0c0,0,0-0.1,0-0.1c0,0,0,0,0,0c0,0,0-0.1,0-0.1v0
						C838.9,1120.1,838.9,1120,838.9,1120z"/>
					<g>
						<path class="st29" d="M869.3,1126.2c-2.8,1.6-5,5.5-5,8.7c0,3.2,2.3,4.5,5,2.9l3.1-1.8c2.8-1.6,5-5.5,5-8.7
							c0-3.2-2.3-4.5-5-2.9L869.3,1126.2z"/>
					</g>
				</g>
				<polygon class="st30" points="774.3,1079.5 774.4,1060.8 882.8,1123.7 882.8,1142.4 876.5,1138.8 876.5,1127.6 780.4,1072 
					780.4,1083 				"/>
			</g>
			<g>
				<polygon class="st4" points="930.6,1037.2 880.2,1066.6 772.9,1004.3 823.1,975.1 				"/>
				<polygon class="st7" points="880.2,1066.6 880.2,1122.7 930.6,1093.3 930.6,1037.2 				"/>
				<polygon class="st3" points="772.9,1004.3 880.2,1066.6 880.2,1122.7 772.9,1060.4 				"/>
			</g>
			<g>
				<g>
					<path class="st20" d="M909.2,1172c0,0,0.1-0.1,0.1-0.1c0.1-0.1,0.2-0.2,0.3-0.3c0,0,0,0,0,0c0.1-0.1,0.2-0.2,0.3-0.3
						c0,0,0.1-0.1,0.1-0.1c0.1-0.1,0.2-0.2,0.2-0.3c0,0,0.1-0.1,0.1-0.1c0.1-0.1,0.1-0.2,0.2-0.3c0,0,0-0.1,0.1-0.1
						c0.1-0.1,0.2-0.3,0.3-0.5c0.1-0.2,0.2-0.3,0.2-0.5c0,0,0-0.1,0-0.1c0.1-0.1,0.1-0.3,0.2-0.4c0,0,0-0.1,0-0.1
						c0-0.1,0.1-0.2,0.1-0.3c0-0.1,0.1-0.3,0.1-0.4c0-0.1,0.1-0.2,0.1-0.3c0-0.1,0.1-0.2,0.1-0.4c0-0.1,0-0.2,0.1-0.3
						c0-0.1,0-0.2,0.1-0.3c0-0.1,0-0.2,0.1-0.3c0-0.1,0-0.2,0-0.3c0-0.1,0-0.3,0-0.4c0-0.1,0-0.2,0-0.3c0-0.2,0-0.3,0-0.5
						c0-0.1,0-0.1,0-0.2c0-0.2,0-0.5,0-0.7c0-0.2,0-0.5,0-0.7c0-0.1,0-0.2,0-0.2c0-0.2,0-0.3,0-0.5c0-0.1,0-0.2,0-0.2
						c0-0.2,0-0.3-0.1-0.5c0-0.1,0-0.1,0-0.2c0-0.2-0.1-0.5-0.1-0.7c0,0,0-0.1,0-0.1c0-0.2-0.1-0.4-0.1-0.6c0-0.1,0-0.2-0.1-0.3
						c0-0.2-0.1-0.3-0.1-0.5c0-0.1,0-0.2-0.1-0.3c0-0.2-0.1-0.3-0.1-0.5c0-0.1,0-0.2-0.1-0.3c0-0.2-0.1-0.3-0.1-0.5
						c0-0.1,0-0.2-0.1-0.2c-0.1-0.2-0.2-0.5-0.2-0.7c0,0,0,0,0-0.1c-0.1-0.2-0.2-0.5-0.2-0.7c0-0.1-0.1-0.1-0.1-0.2
						c-0.1-0.2-0.1-0.3-0.2-0.5c0-0.1-0.1-0.2-0.1-0.2c-0.1-0.2-0.1-0.4-0.2-0.5c0-0.1-0.1-0.1-0.1-0.2c-0.1-0.2-0.2-0.5-0.3-0.7
						c0-0.1-0.1-0.1-0.1-0.2c-0.1-0.2-0.2-0.4-0.3-0.6c-0.1-0.1-0.1-0.3-0.2-0.4c-0.1-0.1-0.1-0.2-0.2-0.4c-0.2-0.3-0.4-0.7-0.6-1
						c-0.1-0.1-0.1-0.2-0.2-0.3c-0.1-0.1-0.2-0.3-0.2-0.4c-0.1-0.1-0.1-0.2-0.2-0.4c-0.1-0.1-0.2-0.3-0.3-0.4
						c-0.1-0.1-0.1-0.2-0.2-0.2c-0.2-0.4-0.5-0.7-0.7-1c0,0,0,0,0,0c-0.2-0.2-0.4-0.5-0.5-0.7c-0.1-0.2-0.3-0.4-0.4-0.5
						c0,0-0.1-0.1-0.1-0.1c-0.2-0.2-0.3-0.4-0.5-0.6c-0.1-0.1-0.1-0.1-0.2-0.2c-0.1-0.1-0.3-0.3-0.4-0.4c-0.1-0.1-0.1-0.2-0.2-0.2
						c-0.1-0.1-0.2-0.2-0.3-0.3c-0.1-0.1-0.2-0.2-0.2-0.2c-0.1-0.1-0.2-0.2-0.3-0.3c-0.1-0.1-0.2-0.2-0.3-0.2
						c-0.1-0.1-0.2-0.2-0.3-0.3c-0.1-0.1-0.2-0.2-0.3-0.2c-0.1-0.1-0.2-0.2-0.3-0.3c-0.1-0.1-0.2-0.1-0.3-0.2
						c-0.1-0.1-0.2-0.2-0.4-0.3c-0.1-0.1-0.2-0.1-0.2-0.2c-0.1-0.1-0.3-0.2-0.4-0.3c-0.1,0-0.1-0.1-0.2-0.1
						c-0.2-0.1-0.4-0.3-0.6-0.4c0,0,0,0,0,0c-0.2-0.1-0.4-0.3-0.6-0.4c-0.2-0.1-0.4-0.2-0.6-0.3c-0.1,0-0.1-0.1-0.2-0.1
						c-0.1-0.1-0.3-0.1-0.4-0.2c-0.1,0-0.1-0.1-0.2-0.1c-0.2-0.1-0.4-0.2-0.6-0.3c-0.2-0.1-0.4-0.2-0.6-0.2c-0.1,0-0.1,0-0.2-0.1
						c-0.1,0-0.3-0.1-0.4-0.1c-0.1,0-0.2,0-0.2-0.1c-0.1,0-0.2-0.1-0.4-0.1c-0.1,0-0.2,0-0.2-0.1c-0.1,0-0.2,0-0.3-0.1
						c-0.1,0-0.2,0-0.3,0c-0.1,0-0.2,0-0.3,0c-0.1,0-0.2,0-0.3,0c-0.1,0-0.2,0-0.3,0c-0.1,0-0.2,0-0.3,0c-0.2,0-0.3,0-0.4,0
						c0,0,0,0,0,0c-0.1,0-0.3,0-0.4,0c0,0-0.1,0-0.1,0c-0.2,0-0.3,0-0.5,0.1c0,0-0.1,0-0.1,0c-0.1,0-0.2,0.1-0.4,0.1
						c-0.1,0-0.1,0-0.2,0.1c-0.1,0-0.2,0.1-0.3,0.1c-0.1,0-0.2,0.1-0.3,0.1c-0.1,0-0.1,0-0.2,0.1c-0.2,0.1-0.3,0.2-0.5,0.3
						c0,0,9.5-5.6,9.5-5.6c0.2-0.1,0.3-0.2,0.5-0.2c0.1,0,0.1,0,0.2-0.1c1.8-0.8,3.9-0.6,5.8,0c1.8,0.6,3.6,1.6,5.1,2.8
						c0,0,0.1,0.1,0.1,0.1c0.1,0.1,0.2,0.1,0.3,0.2c5.5,4.6,9.5,11.8,10,19c0.2,2.5-0.1,5.3-1.5,7.5c0,0,0,0,0,0c0,0,0,0.1-0.1,0.1
						c-0.1,0.1-0.1,0.2-0.2,0.3c0,0-0.1,0.1-0.1,0.1c-0.1,0.1-0.1,0.2-0.2,0.3c0,0-0.1,0.1-0.1,0.1c-0.1,0.1-0.2,0.2-0.3,0.3
						c0,0,0,0,0,0c-0.1,0.1-0.2,0.2-0.3,0.3c0,0-0.1,0.1-0.1,0.1c-0.1,0.1-0.2,0.1-0.3,0.2c0,0-0.1,0.1-0.1,0.1
						c-0.1,0.1-0.3,0.2-0.4,0.2l-9.5,5.6c0.1-0.1,0.3-0.2,0.4-0.2c0,0,0.1-0.1,0.1-0.1C909,1172.1,909.1,1172,909.2,1172z"/>
					<g>
						<path class="st21" d="M899.4,1141.9c7.1,4.1,12.9,14.1,12.9,22.3c0,8.2-5.8,11.5-12.9,7.4c-7.1-4.1-12.9-14.1-12.9-22.3
							C886.4,1141.1,892.2,1137.8,899.4,1141.9z"/>
					</g>
				</g>
				<g>
					<g>
						<path class="st22" d="M898.9,1147.7c4.4,2.5,8,8.5,8.4,13.6c0,0.3,0,0.6,0,0.9c0,5.4-3.8,7.5-8.5,4.8
							c-4.7-2.7-8.4-9.2-8.4-14.6c0-0.3,0-0.6,0-0.9C890.9,1146.9,894.5,1145.2,898.9,1147.7z"/>
					</g>
					<g>
						<path class="st23" d="M898.9,1150.3c3.2,1.8,5.8,6.2,6.1,9.9c0,0.2,0,0.5,0,0.7c0,3.9-2.8,5.5-6.2,3.5
							c-3.4-2-6.1-6.7-6.1-10.6c0-0.2,0-0.4,0-0.7C893.1,1149.8,895.7,1148.5,898.9,1150.3z"/>
					</g>
					<path class="st24" d="M892.8,1153.2c0.2-2.8,2.1-4.2,4.5-3.5c-1.9,0-3.3,1.3-3.5,3.7c0,0.2,0,0.4,0,0.6c0,3.9,2.7,8.6,6.1,10.6
						c0.6,0.3,1.1,0.5,1.6,0.7c-0.8,0-1.7-0.3-2.7-0.8c-3.4-2-6.1-6.7-6.1-10.6C892.7,1153.6,892.8,1153.4,892.8,1153.2z"/>
					<g>
						<path class="st25" d="M896.6,1158.2c-0.2-0.1-0.4-0.1-0.5,0c-0.3,0.2-0.3,0.7,0,1.1c0.1,0.2,0.3,0.4,0.5,0.5
							c0.2,0.1,0.4,0.1,0.5,0c0.3-0.2,0.3-0.7,0-1.1C896.9,1158.4,896.8,1158.3,896.6,1158.2z"/>
						<path class="st25" d="M899.3,1155.6c-0.9-0.5-1.6-0.1-1.6,0.9c0,1,0.7,2.2,1.6,2.7c0.9,0.5,1.6,0.1,1.6-0.9
							C900.9,1157.3,900.2,1156.1,899.3,1155.6z"/>
						<path class="st25" d="M899.3,1161c-0.4-0.2-0.7,0-0.7,0.4c0,0.4,0.3,1,0.7,1.2c0.4,0.2,0.7,0,0.7-0.4
							C900,1161.7,899.7,1161.2,899.3,1161z"/>
						<path class="st25" d="M902,1161.3c-0.2-0.1-0.4-0.1-0.5,0c-0.3,0.2-0.3,0.7,0,1.1c0.1,0.2,0.3,0.4,0.5,0.5
							c0.2,0.1,0.4,0.1,0.5,0c0.3-0.2,0.3-0.7,0-1.1C902.3,1161.5,902.1,1161.4,902,1161.3z"/>
						<path class="st25" d="M896.6,1152c-0.2-0.1-0.4-0.1-0.5,0c-0.3,0.2-0.3,0.7,0,1.1c0.1,0.2,0.3,0.4,0.5,0.5
							c0.2,0.1,0.4,0.1,0.5,0.1c0.3-0.2,0.3-0.7,0-1.1C897,1152.2,896.8,1152.1,896.6,1152z"/>
						<path class="st25" d="M899.3,1153.8c0.4,0.2,0.7,0,0.7-0.4c0-0.4-0.3-1-0.7-1.2c-0.4-0.2-0.7,0-0.7,0.4
							C898.6,1153.1,898.9,1153.6,899.3,1153.8z"/>
						<path class="st25" d="M902,1156.7c0.2,0.1,0.4,0.1,0.5,0.1c0.3-0.2,0.3-0.7,0-1.1c-0.1-0.2-0.3-0.4-0.5-0.5
							c-0.2-0.1-0.4-0.1-0.5-0.1c-0.3,0.2-0.3,0.7,0,1.1C901.6,1156.4,901.8,1156.6,902,1156.7z"/>
						<path class="st25" d="M896.2,1155.6c0-0.4-0.3-1-0.7-1.2c-0.4-0.2-0.7,0-0.7,0.4c0,0.4,0.3,1,0.7,1.2
							C895.8,1156.2,896.2,1156,896.2,1155.6z"/>
						<path class="st25" d="M903.1,1158.8c-0.4-0.2-0.7,0-0.7,0.4c0,0.4,0.3,1,0.7,1.2c0.4,0.2,0.7,0,0.7-0.4
							C903.8,1159.6,903.5,1159,903.1,1158.8z"/>
					</g>
				</g>
			</g>
			<polygon class="st31" points="920.6,1164.3 967.4,1137.8 967.5,1109.5 920.6,1136 			"/>
			<polygon class="st32" points="920.6,1136 967.5,1109.5 961.1,1082 914.3,1108.5 			"/>
			<polygon class="st6" points="914.3,1108.5 961.1,1082 929.7,1063.9 882.9,1090.3 			"/>
			<path class="st6" d="M914.3,1108.5l6.4,27.5l46.8-26.5l-6.4-27.5L914.3,1108.5z M916.4,1109.4l43.5-24.6l5.5,23.8l-43.5,24.6
				L916.4,1109.4z"/>
			<g id="XMLID_128_">
				<g id="XMLID_129_" class="st33">
					<g id="XMLID_130_">
						<polygon id="XMLID_131_" class="st34" points="959.1,1119.5 959.1,1137.7 928.9,1155.2 928.9,1137 						"/>
					</g>
				</g>
			</g>
			<g>
				<polygon class="st24" points="922.8,1159.2 922.8,1165.6 969.4,1138.8 969.4,1132.4 				"/>
				<polygon class="st22" points="922.8,1159.2 922.8,1165.6 920.6,1164.3 920.6,1157.9 				"/>
				<polygon class="st35" points="969.4,1132.4 922.8,1159.2 920.6,1157.9 967.1,1131.1 				"/>
			</g>
			<g>
				<polygon class="st36" points="920.6,1151.4 928.1,1147.1 928.1,1151.6 920.6,1155.9 				"/>
			</g>
			<g>
				<polygon class="st36" points="960,1128.7 967.5,1124.4 967.5,1128.9 960,1133.1 				"/>
			</g>
			<path class="st37" d="M882.9,1090.3l31.4,18.1l6.4,27.5l-0.1,28.3l-6.7-3.9c-1.7-8-7.3-16.4-14-20.3c-6.7-3.8-12.3-2-14,4l-3-1.7
				v-18.7L882.9,1090.3z"/>
			<g>
				<path class="st32" d="M895.3,1099.8c-0.3-0.2-0.6,0-0.6,0.3l0,16.4c0,0.4,0.3,0.8,0.6,1l20.8,12c0.4,0.2,0.7-0.1,0.6-0.6
					l-3.7-18.6c-0.1-0.3-0.3-0.6-0.6-0.8L895.3,1099.8z"/>
			</g>
			<polygon class="st38" points="924,1160.8 924,1163.7 929.7,1160.5 929.7,1157.5 			"/>
			<polygon class="st38" points="962.8,1138.5 962.8,1141.5 968.5,1138.2 968.5,1135.3 			"/>
			<polygon class="st22" points="816.7,1093 816.7,1103.6 836.4,1114.7 836.4,1104.4 			"/>
			<polygon class="st39" points="836.4,1114.7 840.1,1112.7 840.1,1106.5 836.4,1104.4 			"/>
			<polygon class="st40" points="916.4,1109.4 965.3,1108.6 959.8,1084.8 			"/>
		</g>
		<g>
			<polygon class="st6" points="823,1077.5 817.5,1074.3 817.5,1037.6 823,1040.8 			"/>
			<polygon class="st6" points="798.6,1057.2 805.3,1061 805.3,1030.6 810.8,1033.7 810.8,1064.2 810.8,1070.4 805.3,1067.3 
				805.3,1067.3 793.1,1060.2 793.1,1054 793.1,1023.5 798.6,1026.7 			"/>
			<polygon class="st6" points="786.5,1019.7 786.5,1056.4 780.9,1053.2 780.9,1016.5 			"/>
		</g>
	</g>
	<g>
		<g>
			<polygon class="st18" points="823.6,1234.8 887.3,1197.2 742.1,1112.6 678.4,1150.2 			"/>
			<g>
				<polygon class="st19" points="784.1,1188.6 690.8,1135.5 695.8,1131.5 784.1,1184.1 				"/>
				<polygon class="st19" points="687.9,1139.5 697,1133.7 687.9,1128.5 				"/>
				<g>
					<g>
						<path class="st20" d="M713.2,1168.7c0,0,0.1-0.1,0.1-0.1c0.1-0.1,0.2-0.2,0.3-0.3c0,0,0,0,0,0c0.1-0.1,0.2-0.2,0.3-0.3
							c0,0,0.1-0.1,0.1-0.1c0.1-0.1,0.2-0.2,0.2-0.3c0,0,0.1-0.1,0.1-0.1c0.1-0.1,0.1-0.2,0.2-0.3c0,0,0-0.1,0.1-0.1
							c0.1-0.1,0.2-0.3,0.3-0.5c0.1-0.2,0.2-0.3,0.2-0.5c0,0,0-0.1,0-0.1c0.1-0.1,0.1-0.3,0.2-0.4c0,0,0-0.1,0-0.1
							c0-0.1,0.1-0.2,0.1-0.3c0-0.1,0.1-0.3,0.1-0.4c0-0.1,0.1-0.2,0.1-0.3c0-0.1,0.1-0.2,0.1-0.4c0-0.1,0-0.2,0.1-0.3
							c0-0.1,0-0.2,0.1-0.3c0-0.1,0-0.2,0.1-0.3c0-0.1,0-0.2,0-0.3c0-0.1,0-0.3,0-0.4c0-0.1,0-0.2,0-0.3c0-0.2,0-0.3,0-0.5
							c0-0.1,0-0.1,0-0.2c0-0.2,0-0.5,0-0.7c0-0.2,0-0.5,0-0.7c0-0.1,0-0.2,0-0.2c0-0.2,0-0.3,0-0.5c0-0.1,0-0.2,0-0.3
							c0-0.2,0-0.3-0.1-0.5c0-0.1,0-0.1,0-0.2c0-0.2-0.1-0.5-0.1-0.7c0,0,0-0.1,0-0.1c0-0.2-0.1-0.4-0.1-0.6c0-0.1,0-0.2-0.1-0.3
							c0-0.2-0.1-0.3-0.1-0.5c0-0.1,0-0.2-0.1-0.3c0-0.2-0.1-0.3-0.1-0.5c0-0.1,0-0.2-0.1-0.3c0-0.2-0.1-0.3-0.1-0.5
							c0-0.1,0-0.2-0.1-0.2c-0.1-0.2-0.2-0.5-0.2-0.7c0,0,0,0,0-0.1c-0.1-0.2-0.2-0.5-0.2-0.7c0-0.1-0.1-0.1-0.1-0.2
							c-0.1-0.2-0.1-0.3-0.2-0.5c0-0.1-0.1-0.2-0.1-0.2c-0.1-0.2-0.1-0.4-0.2-0.5c0-0.1-0.1-0.1-0.1-0.2c-0.1-0.2-0.2-0.5-0.3-0.7
							c0-0.1-0.1-0.1-0.1-0.2c-0.1-0.2-0.2-0.4-0.3-0.6c-0.1-0.1-0.1-0.3-0.2-0.4c-0.1-0.1-0.1-0.2-0.2-0.4c-0.2-0.3-0.4-0.7-0.6-1
							c-0.1-0.1-0.1-0.2-0.2-0.3c-0.1-0.1-0.2-0.3-0.2-0.4c-0.1-0.1-0.1-0.2-0.2-0.4c-0.1-0.1-0.2-0.3-0.3-0.4
							c-0.1-0.1-0.1-0.2-0.2-0.2c-0.2-0.4-0.5-0.7-0.7-1c0,0,0,0,0,0c-0.2-0.2-0.4-0.5-0.5-0.7c-0.1-0.2-0.3-0.4-0.4-0.5
							c0,0-0.1-0.1-0.1-0.1c-0.2-0.2-0.3-0.4-0.5-0.6c-0.1-0.1-0.1-0.1-0.2-0.2c-0.1-0.1-0.3-0.3-0.4-0.4c-0.1-0.1-0.1-0.2-0.2-0.2
							c-0.1-0.1-0.2-0.2-0.3-0.3c-0.1-0.1-0.2-0.2-0.2-0.2c-0.1-0.1-0.2-0.2-0.3-0.3c-0.1-0.1-0.2-0.2-0.3-0.2
							c-0.1-0.1-0.2-0.2-0.3-0.3c-0.1-0.1-0.2-0.2-0.3-0.2c-0.1-0.1-0.2-0.2-0.3-0.3c-0.1-0.1-0.2-0.1-0.3-0.2
							c-0.1-0.1-0.2-0.2-0.4-0.3c-0.1-0.1-0.2-0.1-0.2-0.2c-0.1-0.1-0.3-0.2-0.4-0.3c-0.1,0-0.1-0.1-0.2-0.1
							c-0.2-0.1-0.4-0.3-0.6-0.4c0,0,0,0,0,0c-0.2-0.1-0.4-0.3-0.6-0.4c-0.2-0.1-0.4-0.2-0.6-0.3c-0.1,0-0.1-0.1-0.2-0.1
							c-0.1-0.1-0.3-0.1-0.4-0.2c-0.1,0-0.1-0.1-0.2-0.1c-0.2-0.1-0.4-0.2-0.6-0.3c-0.2-0.1-0.4-0.2-0.6-0.2c-0.1,0-0.1,0-0.2-0.1
							c-0.1,0-0.3-0.1-0.4-0.1c-0.1,0-0.2,0-0.2-0.1c-0.1,0-0.2-0.1-0.4-0.1c-0.1,0-0.2,0-0.2-0.1c-0.1,0-0.2,0-0.3-0.1
							c-0.1,0-0.2,0-0.3,0c-0.1,0-0.2,0-0.3,0c-0.1,0-0.2,0-0.3,0c-0.1,0-0.2,0-0.3,0c-0.1,0-0.2,0-0.3,0c-0.2,0-0.3,0-0.4,0
							c0,0,0,0,0,0c-0.1,0-0.3,0-0.4,0c0,0-0.1,0-0.1,0c-0.2,0-0.3,0-0.5,0.1c0,0-0.1,0-0.1,0c-0.1,0-0.2,0.1-0.4,0.1
							c-0.1,0-0.1,0-0.2,0.1c-0.1,0-0.2,0.1-0.3,0.1c-0.1,0-0.2,0.1-0.3,0.1c-0.1,0-0.1,0-0.2,0.1c-0.2,0.1-0.3,0.2-0.5,0.2
							c0,0,12.3-7.2,12.3-7.2c0.2-0.1,0.3-0.2,0.5-0.3c0.1,0,0.1,0,0.2-0.1c1.8-0.8,3.9-0.6,5.8,0c1.8,0.6,3.6,1.6,5.1,2.8
							c0,0,0.1,0.1,0.1,0.1c0.1,0.1,0.2,0.1,0.3,0.2c5.5,4.6,9.5,11.8,10,19c0.2,2.5-0.1,5.3-1.5,7.5c0,0,0,0,0,0c0,0,0,0.1-0.1,0.1
							c-0.1,0.1-0.1,0.2-0.2,0.3c0,0-0.1,0.1-0.1,0.1c-0.1,0.1-0.1,0.2-0.2,0.3c0,0-0.1,0.1-0.1,0.1c-0.1,0.1-0.2,0.2-0.3,0.3
							c0,0,0,0,0,0c-0.1,0.1-0.2,0.2-0.3,0.3c0,0-0.1,0.1-0.1,0.1c-0.1,0.1-0.2,0.1-0.3,0.2c0,0-0.1,0.1-0.1,0.1
							c-0.1,0.1-0.3,0.2-0.4,0.2l-12.3,7.2c0.1-0.1,0.3-0.2,0.4-0.2c0,0,0.1-0.1,0.1-0.1C713,1168.8,713.1,1168.7,713.2,1168.7z"/>
						<g>
							<path class="st21" d="M703.3,1138.6c7.1,4.1,12.9,14.1,12.9,22.3c0,8.2-5.8,11.5-12.9,7.4c-7.1-4.1-12.9-14.1-12.9-22.3
								C690.4,1137.8,696.2,1134.5,703.3,1138.6z"/>
						</g>
					</g>
					<g>
						<g>
							<path class="st22" d="M702.9,1144.4c4.4,2.5,8,8.5,8.4,13.6c0,0.3,0,0.6,0,0.9c0,5.4-3.8,7.5-8.5,4.8
								c-4.7-2.7-8.4-9.2-8.4-14.6c0-0.3,0-0.6,0-0.9C694.9,1143.6,698.5,1141.9,702.9,1144.4z"/>
						</g>
						<g>
							<path class="st23" d="M702.9,1147c3.2,1.8,5.8,6.2,6.1,9.9c0,0.2,0,0.5,0,0.7c0,3.9-2.8,5.5-6.2,3.5c-3.4-2-6.1-6.7-6.1-10.6
								c0-0.2,0-0.4,0-0.6C697.1,1146.5,699.7,1145.2,702.9,1147z"/>
						</g>
						<path class="st24" d="M696.8,1149.9c0.2-2.8,2.1-4.2,4.5-3.5c-1.9,0-3.3,1.3-3.5,3.7c0,0.2,0,0.4,0,0.6
							c0,3.9,2.7,8.6,6.1,10.6c0.6,0.3,1.1,0.5,1.6,0.7c-0.8,0-1.7-0.3-2.7-0.8c-3.4-2-6.1-6.7-6.1-10.6
							C696.7,1150.3,696.7,1150.1,696.8,1149.9z"/>
						<g>
							<path class="st25" d="M700.6,1154.8c-0.2-0.1-0.4-0.1-0.5,0c-0.3,0.2-0.3,0.7,0,1.1c0.1,0.2,0.3,0.4,0.5,0.5
								c0.2,0.1,0.4,0.1,0.5,0c0.3-0.2,0.3-0.7,0-1.1C700.9,1155.1,700.7,1154.9,700.6,1154.8z"/>
							<path class="st25" d="M703.3,1152.3c-0.9-0.5-1.6-0.1-1.6,0.9c0,1,0.7,2.2,1.6,2.7c0.9,0.5,1.6,0.1,1.6-0.9
								C704.8,1154,704.1,1152.8,703.3,1152.3z"/>
							<path class="st25" d="M703.3,1157.7c-0.4-0.2-0.7,0-0.7,0.4c0,0.4,0.3,1,0.7,1.2c0.4,0.2,0.7,0,0.7-0.4
								C703.9,1158.4,703.6,1157.9,703.3,1157.7z"/>
							<path class="st25" d="M705.9,1158c-0.2-0.1-0.4-0.1-0.5-0.1c-0.3,0.2-0.3,0.7,0,1.1c0.1,0.2,0.3,0.4,0.5,0.5
								c0.2,0.1,0.4,0.1,0.5,0c0.3-0.2,0.3-0.7,0-1.1C706.3,1158.2,706.1,1158.1,705.9,1158z"/>
							<path class="st25" d="M700.6,1148.7c-0.2-0.1-0.4-0.1-0.5,0c-0.3,0.2-0.3,0.7,0,1.1c0.1,0.2,0.3,0.4,0.5,0.5
								c0.2,0.1,0.4,0.1,0.5,0.1c0.3-0.2,0.3-0.7,0-1.1C700.9,1148.9,700.8,1148.8,700.6,1148.7z"/>
							<path class="st25" d="M703.3,1150.5c0.4,0.2,0.7,0,0.7-0.4c0-0.4-0.3-1-0.7-1.2c-0.4-0.2-0.7,0-0.7,0.4
								C702.6,1149.8,702.9,1150.3,703.3,1150.5z"/>
							<path class="st25" d="M706,1153.3c0.2,0.1,0.4,0.1,0.5,0c0.3-0.2,0.3-0.7,0-1.1c-0.1-0.2-0.3-0.4-0.5-0.5
								c-0.2-0.1-0.4-0.1-0.5,0c-0.3,0.2-0.3,0.7,0,1.1C705.6,1153.1,705.8,1153.2,706,1153.3z"/>
							<path class="st25" d="M700.1,1152.3c0-0.4-0.3-1-0.7-1.2c-0.4-0.2-0.7,0-0.7,0.4c0,0.4,0.3,1,0.7,1.2
								C699.8,1152.9,700.1,1152.7,700.1,1152.3z"/>
							<path class="st25" d="M707.1,1155.5c-0.4-0.2-0.7,0-0.7,0.4c0,0.4,0.3,1,0.7,1.2c0.4,0.2,0.7,0,0.7-0.4
								C707.8,1156.3,707.5,1155.7,707.1,1155.5z"/>
						</g>
					</g>
				</g>
				<polygon class="st26" points="790.4,1180.2 837,1153.7 728.6,1090.8 681.9,1117.2 				"/>
				<g>
					<path class="st27" d="M783.4,1180.4C783.4,1180.4,783.4,1180.4,783.4,1180.4C783.3,1180.4,783.3,1180.4,783.4,1180.4
						c-0.1,0-0.1-0.1-0.1-0.1c0,0,0,0-0.1,0c0,0,0,0,0,0c0,0,0,0,0,0c0,0,0,0-0.1,0c0,0,0,0,0,0c0,0,0,0-0.1,0c0,0,0,0,0,0
						c0,0,0,0-0.1,0c0,0,0,0,0,0c0,0-0.1,0-0.1,0c0,0,0,0,0,0c0,0,0,0-0.1,0c0,0,0,0,0,0c0,0-0.1,0-0.1,0c0,0-0.1,0-0.1,0
						c0,0,0,0,0,0c0,0-0.1,0-0.1,0c0,0,0,0,0,0c0,0,0,0-0.1,0c0,0,0,0-0.1,0c0,0,0,0-0.1,0c0,0,0,0-0.1,0c0,0,0,0-0.1,0
						c0,0,0,0-0.1,0c0,0,0,0-0.1,0c0,0,0,0-0.1,0c0,0,0,0-0.1,0c0,0,0,0-0.1,0c0,0,0,0-0.1,0c0,0,0,0-0.1,0c0,0,0,0,0,0
						c0,0-0.1,0-0.1,0c0,0,0,0,0,0c0,0-0.1,0-0.1,0c0,0,0,0,0,0c0,0-0.1,0-0.1,0c0,0,0,0,0,0c0,0-0.1,0-0.1,0c0,0,0,0,0,0
						c0,0-0.1,0-0.1,0c0,0,0,0,0,0c0,0-0.1,0-0.1,0c0,0,0,0,0,0c0,0-0.1,0-0.1,0c0,0,0,0,0,0c0,0-0.1,0-0.1,0c0,0,0,0,0,0
						c0,0-0.1,0-0.1,0c0,0,0,0,0,0c0,0-0.1,0-0.1,0.1c0,0,0,0,0,0c0,0-0.1,0-0.1,0.1c0,0,0,0,0,0c0,0-0.1,0-0.1,0.1l-25.4-14.8
						c0,0,0.1,0,0.1-0.1c0,0,0,0,0,0c0,0,0,0,0,0c0,0,0.1,0,0.1-0.1l0,0c0,0,0.1,0,0.1-0.1c0,0,0,0,0,0c0,0,0,0,0,0c0,0,0.1,0,0.1,0
						c0,0,0,0,0,0c0,0,0,0,0,0c0,0,0,0,0.1,0c0,0,0,0,0,0c0,0,0.1,0,0.1,0c0,0,0,0,0,0c0,0,0,0,0,0c0,0,0.1,0,0.1,0c0,0,0,0,0,0
						c0,0,0,0,0,0c0,0,0,0,0,0c0,0,0,0,0,0c0,0,0.1,0,0.1,0c0,0,0,0,0,0c0,0,0,0,0,0c0,0,0,0,0.1,0c0,0,0,0,0,0c0,0,0.1,0,0.1,0
						c0,0,0,0,0,0c0,0,0,0,0,0c0,0,0.1,0,0.1,0c0,0,0,0,0,0c0,0,0,0,0,0c0,0,0,0,0,0c0,0,0,0,0.1,0c0,0,0,0,0.1,0c0,0,0,0,0.1,0
						c0,0,0,0,0,0c0,0,0,0,0,0c0,0,0,0,0.1,0c0,0,0,0,0.1,0c0,0,0,0,0.1,0c0,0,0,0,0,0c0,0,0,0,0,0c0,0,0,0,0.1,0c0,0,0,0,0.1,0
						c0,0,0,0,0.1,0c0,0,0,0,0,0c0,0,0,0,0,0c0,0,0.1,0,0.1,0c0,0,0,0,0,0c0,0,0.1,0,0.1,0h0c0,0,0.1,0,0.1,0c0,0,0,0,0,0
						c0,0,0,0,0.1,0c0,0,0,0,0,0c0,0,0.1,0,0.1,0c0,0,0,0,0,0c0,0,0,0,0,0c0,0,0,0,0.1,0c0,0,0,0,0,0c0,0,0,0,0.1,0c0,0,0,0,0,0
						c0,0,0,0,0.1,0c0,0,0,0,0,0c0,0,0,0,0,0s0,0,0,0c0,0,0,0,0.1,0c0,0,0,0,0,0c0,0,0,0,0.1,0c0,0,0,0,0,0c0,0,0,0,0.1,0
						c0,0,0,0,0,0c0,0,0.1,0,0.1,0.1l0,0l25.4,14.8C783.5,1180.5,783.5,1180.5,783.4,1180.4C783.5,1180.5,783.5,1180.5,783.4,1180.4
						C783.4,1180.5,783.4,1180.5,783.4,1180.4z"/>
					<g>
						<polygon class="st28" points="780,1180.9 754.6,1166.1 751.5,1167.9 776.9,1182.7 						"/>
					</g>
					<path class="st24" d="M746.5,1176.5C746.5,1176.4,746.5,1176.4,746.5,1176.5C746.5,1176.4,746.5,1176.4,746.5,1176.5
						c0-0.1,0-0.1,0-0.1c0,0,0,0,0,0c0,0,0-0.1,0-0.1c0,0,0,0,0,0v0c0,0,0-0.1,0-0.1c0,0,0,0,0,0c0,0,0,0,0-0.1c0,0,0,0,0,0
						c0,0,0,0,0,0c0,0,0-0.1,0-0.1c0,0,0,0,0,0c0,0,0,0,0,0c0,0,0-0.1,0-0.1c0,0,0,0,0,0c0,0,0-0.1,0-0.1c0,0,0,0,0,0c0,0,0,0,0,0
						c0,0,0-0.1,0-0.1c0,0,0,0,0-0.1c0,0,0,0,0,0c0,0,0,0,0,0c0,0,0,0,0-0.1c0,0,0-0.1,0-0.1c0,0,0,0,0,0c0,0,0,0,0,0
						c0,0,0-0.1,0-0.1l0,0c0,0,0-0.1,0-0.1c0,0,0,0,0,0c0,0,0,0,0-0.1c0,0,0-0.1,0-0.1c0,0,0,0,0-0.1c0,0,0,0,0-0.1c0,0,0,0,0,0
						c0,0,0,0,0-0.1c0,0,0-0.1,0-0.1c0,0,0,0,0-0.1c0,0,0,0,0,0c0,0,0-0.1,0-0.1c0,0,0,0,0,0c0,0,0-0.1,0-0.1c0,0,0,0,0,0
						c0,0,0,0,0,0c0,0,0-0.1,0-0.1c0,0,0,0,0-0.1c0,0,0,0,0-0.1c0,0,0,0,0,0c0,0,0,0,0,0c0,0,0-0.1,0-0.1c0,0,0,0,0,0c0,0,0,0,0,0
						c0,0,0-0.1,0.1-0.1c0,0,0,0,0,0c0,0,0-0.1,0-0.1c0,0,0,0,0,0c0-0.1,0.1-0.1,0.1-0.2c0,0,0,0,0,0c0,0,0,0,0,0
						c0-0.1,0.1-0.1,0.1-0.2c0,0,0,0,0,0c0,0,0,0,0,0c0,0,0,0,0-0.1c0,0,0-0.1,0-0.1c0,0,0,0,0-0.1c0,0,0,0,0-0.1c0,0,0,0,0,0
						c0,0,0-0.1,0-0.1c0,0,0-0.1,0-0.1c0,0,0-0.1,0-0.1c0,0,0,0,0,0c0,0,0,0,0,0c0-0.1,0.1-0.1,0.1-0.2c0,0,0,0,0,0
						c0-0.1,0.1-0.1,0.1-0.2c0,0,0,0,0,0c0,0,0,0,0,0c0,0,0-0.1,0-0.1c0,0,0,0,0-0.1c0,0,0-0.1,0.1-0.1c0,0,0,0,0-0.1
						c0,0,0-0.1,0-0.1c0,0,0,0,0-0.1c0,0,0-0.1,0.1-0.1c0,0,0,0,0,0c0,0,0,0,0,0c0-0.1,0.1-0.1,0.1-0.2c0,0,0,0,0,0
						c0-0.1,0.1-0.1,0.1-0.2l0,0c0,0,0,0,0,0c0,0,0.1-0.1,0.1-0.1c0,0,0,0,0-0.1c0,0,0-0.1,0.1-0.1c0,0,0,0,0,0c0,0,0,0,0-0.1
						c0,0,0,0,0-0.1c0,0,0-0.1,0.1-0.1c0,0,0,0,0,0c0,0,0,0,0,0c0,0,0.1-0.1,0.1-0.1l0,0c0,0,0.1-0.1,0.1-0.1c0,0,0,0,0,0
						c0,0,0,0,0,0c0,0,0-0.1,0.1-0.1c0,0,0,0,0,0c0,0,0,0,0,0c0,0,0,0,0,0c0,0,0,0,0,0c0,0,0,0,0.1-0.1c0,0,0,0,0,0c0,0,0,0,0,0
						c0,0,0,0,0,0c0,0,0,0,0,0c0,0,0,0,0.1-0.1c0,0,0,0,0,0c0,0,0,0,0,0c0,0,0,0,0,0c0,0,0,0,0,0c0,0,0,0,0.1-0.1c0,0,0,0,0,0
						c0,0,0,0,0,0c0,0,0,0,0.1-0.1c0,0,0,0,0,0c0,0,0.1-0.1,0.1-0.1c0,0,0,0,0,0l0,0c0,0,0.1-0.1,0.1-0.1c0,0,0,0,0,0
						c0,0,0,0,0.1-0.1c0,0,0,0,0,0c0,0,0,0,0,0c0,0,0.1,0,0.1-0.1c0,0,0,0,0,0c0,0,0,0,0,0c0,0,0,0,0,0c0,0,0,0,0,0c0,0,0,0,0.1-0.1
						c0,0,0,0,0,0c0,0,0,0,0,0c0,0,0,0,0.1,0c0,0,0,0,0,0c0,0,0.1-0.1,0.1-0.1l0,0c0,0,0,0,0,0c0,0,0.1,0,0.1-0.1c0,0,0,0,0,0
						c0,0,0,0,0.1,0c0,0,0,0,0,0l25.4,14.8c0,0-0.1,0-0.1,0.1c0,0,0,0,0,0c0,0-0.1,0-0.1,0.1c0,0,0,0,0,0c0,0-0.1,0.1-0.1,0.1
						c0,0,0,0,0,0c0,0-0.1,0-0.1,0.1c0,0,0,0,0,0c0,0,0,0-0.1,0.1c0,0,0,0,0,0c0,0,0,0-0.1,0.1c0,0,0,0,0,0c0,0-0.1,0-0.1,0.1
						c0,0,0,0,0,0c0,0-0.1,0-0.1,0.1c0,0,0,0,0,0c0,0-0.1,0.1-0.1,0.1c0,0,0,0,0,0c0,0-0.1,0.1-0.1,0.1c0,0,0,0,0,0c0,0,0,0-0.1,0.1
						c0,0,0,0,0,0c0,0,0,0-0.1,0.1c0,0,0,0,0,0c0,0,0,0-0.1,0.1c0,0,0,0,0,0c0,0,0,0-0.1,0.1c0,0,0,0,0,0c0,0,0,0-0.1,0.1
						c0,0,0,0,0,0c0,0,0,0-0.1,0.1c0,0,0,0,0,0c0,0,0,0-0.1,0.1c0,0,0,0,0,0c0,0,0,0.1-0.1,0.1c0,0,0,0,0,0c0,0-0.1,0.1-0.1,0.1
						c0,0,0,0,0,0c0,0-0.1,0.1-0.1,0.1c0,0,0,0,0,0c0,0,0,0.1-0.1,0.1c0,0,0,0,0,0.1c0,0,0,0-0.1,0.1c0,0,0,0.1-0.1,0.1
						c0,0,0,0,0,0.1c0,0-0.1,0.1-0.1,0.1c0,0,0,0,0,0c0,0.1-0.1,0.1-0.1,0.2c0,0,0,0,0,0c0,0.1-0.1,0.1-0.1,0.2c0,0,0,0,0,0.1
						c0,0,0,0.1-0.1,0.1c0,0,0,0,0,0.1c0,0,0,0.1-0.1,0.1c0,0,0,0,0,0.1c0,0,0,0.1,0,0.1c0,0,0,0,0,0.1c0,0,0,0.1,0,0.1
						c0,0,0,0,0,0.1c0,0.1-0.1,0.1-0.1,0.2c0,0,0,0,0,0c0,0.1-0.1,0.1-0.1,0.2c0,0,0,0,0,0.1c0,0,0,0.1,0,0.1c0,0,0,0.1,0,0.1
						c0,0,0,0.1,0,0.1c0,0,0,0.1,0,0.1c0,0,0,0,0,0.1c0,0,0,0.1,0,0.1c0,0,0,0,0,0.1c0,0,0,0,0,0c0,0.1-0.1,0.1-0.1,0.2c0,0,0,0,0,0
						c0,0.1-0.1,0.1-0.1,0.2c0,0,0,0.1,0,0.1c0,0,0,0,0,0c0,0,0,0.1-0.1,0.1c0,0,0,0,0,0c0,0,0,0.1,0,0.1c0,0,0,0,0,0
						c0,0,0,0.1,0,0.1c0,0,0,0,0,0.1c0,0,0,0.1,0,0.1c0,0,0,0,0,0c0,0,0,0.1,0,0.1c0,0,0,0,0,0c0,0,0,0.1,0,0.1c0,0,0,0,0,0.1
						c0,0,0,0.1,0,0.1c0,0,0,0,0,0.1c0,0,0,0.1,0,0.1c0,0,0,0,0,0.1c0,0,0,0.1,0,0.1c0,0,0,0,0,0c0,0,0,0.1,0,0.1c0,0,0,0,0,0
						c0,0,0,0.1,0,0.1c0,0,0,0,0,0c0,0,0,0.1,0,0.1c0,0,0,0,0,0.1c0,0,0,0.1,0,0.1c0,0,0,0,0,0c0,0,0,0.1,0,0.1c0,0,0,0,0,0
						c0,0,0,0.1,0,0.1c0,0,0,0,0,0c0,0,0,0.1,0,0.1c0,0,0,0,0,0c0,0,0,0.1,0,0.1c0,0,0,0,0,0c0,0,0,0.1,0,0.1c0,0,0,0,0,0
						c0,0,0,0.1,0,0.1c0,0,0,0,0,0c0,0,0,0.1,0,0.1c0,0,0,0,0,0c0,0,0,0.1,0,0.1c0,0,0,0,0,0c0,0,0,0.1,0,0.1c0,0,0,0.1,0,0.1
						c0,0,0,0,0,0c0,0,0,0.1,0,0.1c0,0,0,0,0,0c0,0,0,0.1,0,0.1c0,0,0,0,0,0c0,0,0,0.1,0,0.1c0,0,0,0,0,0.1c0,0,0,0.1,0,0.1
						c0,0,0,0,0,0c0,0,0,0.1,0,0.1c0,0,0,0,0,0c0,0,0,0.1,0,0.1c0,0,0,0,0,0c0,0,0,0.1,0,0.1c0,0,0,0,0,0c0,0,0,0.1,0,0.1
						c0,0,0,0.1,0,0.1c0,0,0,0,0,0c0,0,0,0.1,0,0.1c0,0,0,0,0,0c0,0,0,0.1,0,0.1c0,0,0,0,0,0c0,0,0,0.1,0,0.1c0,0,0,0,0,0
						c0,0,0,0.1,0,0.1c0,0,0,0,0,0c0,0,0,0.1,0.1,0.1c0,0,0,0.1,0,0.1c0,0,0,0,0,0c0,0,0,0.1,0.1,0.1c0,0,0,0,0,0c0,0,0,0,0,0.1
						c0,0,0,0,0,0c0,0,0,0,0,0.1c0,0,0,0,0,0c0,0,0,0,0,0.1c0,0,0,0,0,0c0,0,0,0,0,0.1c0,0,0,0,0,0c0,0,0,0,0.1,0.1c0,0,0,0,0,0
						c0,0,0,0,0,0.1c0,0,0,0,0,0c0,0,0,0,0.1,0.1c0,0,0,0,0,0c0,0,0,0,0.1,0.1c0,0,0,0,0,0c0,0,0,0,0,0c0,0,0,0,0,0c0,0,0,0,0.1,0
						c0,0,0,0,0,0c0,0,0,0,0.1,0.1c0,0,0,0,0,0c0,0,0,0,0.1,0c0,0,0,0,0,0c0,0,0,0,0.1,0c0,0,0,0,0,0c0,0,0,0,0.1,0l0,0l-25.4-14.8
						c0,0-0.1,0-0.1,0c0,0,0,0,0,0c0,0,0,0-0.1,0c0,0,0,0,0,0c0,0,0,0-0.1,0c0,0,0,0,0,0c0,0,0,0-0.1-0.1c0,0,0,0,0,0c0,0,0,0-0.1,0
						c0,0,0,0,0,0c0,0,0,0,0,0c0,0,0,0,0,0c0,0,0,0-0.1-0.1c0,0,0,0,0,0c0,0,0,0,0-0.1c0,0,0,0,0,0c0,0,0,0,0-0.1c0,0,0,0,0,0
						c0,0,0,0-0.1-0.1c0,0,0,0,0,0c0,0,0,0-0.1-0.1c0,0,0,0,0,0c0,0,0,0,0-0.1c0,0,0,0,0,0c0,0,0,0,0,0c0,0,0,0,0,0c0,0,0,0,0,0
						c0,0,0,0,0-0.1c0,0,0,0,0,0c0,0,0-0.1,0-0.1c0,0,0,0,0,0c0,0,0,0,0-0.1l0,0c0,0,0-0.1-0.1-0.1c0,0,0,0,0,0c0,0,0-0.1,0-0.1
						c0,0,0,0,0,0c0,0,0,0,0,0c0,0,0-0.1,0-0.1c0,0,0,0,0,0c0,0,0-0.1,0-0.1c0,0,0,0,0,0c0,0,0,0,0,0c0,0,0-0.1,0-0.1c0,0,0,0,0,0
						c0,0,0-0.1,0-0.1v0c0,0,0-0.1,0-0.1c0,0,0,0,0,0c0,0,0-0.1,0-0.1c0,0,0,0,0,0l0,0c0,0,0-0.1,0-0.1c0,0,0,0,0,0c0,0,0-0.1,0-0.1
						l0,0c0,0,0,0,0,0c0,0,0-0.1,0-0.1c0,0,0,0,0-0.1c0,0,0,0,0,0c0,0,0,0,0,0c0,0,0,0,0,0c0,0,0-0.1,0-0.1c0,0,0,0,0,0c0,0,0,0,0,0
						c0,0,0-0.1,0-0.1c0,0,0,0,0,0c0,0,0-0.1,0-0.1c0,0,0,0,0,0C746.5,1176.5,746.5,1176.5,746.5,1176.5z"/>
					<g>
						<path class="st29" d="M776.9,1182.7c-2.8,1.6-5,5.5-5,8.7c0,3.2,2.3,4.5,5,2.9l3.1-1.8c2.8-1.6,5-5.5,5-8.7
							c0-3.2-2.3-4.5-5-2.9L776.9,1182.7z"/>
					</g>
				</g>
				<polygon class="st30" points="681.9,1136 681.9,1117.2 790.4,1180.2 790.4,1198.9 784.1,1195.2 784.1,1184.1 687.9,1128.5 
					687.9,1139.5 				"/>
			</g>
			<g>
				<polygon class="st4" points="838.2,1093.7 787.8,1123 680.4,1060.8 730.7,1031.5 				"/>
				<polygon class="st7" points="787.8,1123 787.8,1179.1 838.2,1149.8 838.2,1093.7 				"/>
				<polygon class="st3" points="680.4,1060.8 787.8,1123 787.8,1179.1 680.4,1116.9 				"/>
			</g>
			<g>
				<g>
					<path class="st20" d="M816.8,1228.4c0,0,0.1-0.1,0.1-0.1c0.1-0.1,0.2-0.2,0.3-0.3c0,0,0,0,0,0c0.1-0.1,0.2-0.2,0.3-0.3
						c0,0,0.1-0.1,0.1-0.1c0.1-0.1,0.2-0.2,0.2-0.3c0,0,0.1-0.1,0.1-0.1c0.1-0.1,0.1-0.2,0.2-0.3c0,0,0-0.1,0.1-0.1
						c0.1-0.1,0.2-0.3,0.3-0.5c0.1-0.2,0.2-0.3,0.2-0.5c0,0,0-0.1,0-0.1c0.1-0.1,0.1-0.3,0.2-0.4c0,0,0-0.1,0-0.1
						c0-0.1,0.1-0.2,0.1-0.3c0-0.1,0.1-0.3,0.1-0.4c0-0.1,0.1-0.2,0.1-0.3c0-0.1,0.1-0.2,0.1-0.4c0-0.1,0-0.2,0.1-0.3
						c0-0.1,0-0.2,0.1-0.3c0-0.1,0-0.2,0.1-0.4c0-0.1,0-0.2,0-0.3c0-0.1,0-0.3,0-0.4c0-0.1,0-0.2,0-0.3c0-0.2,0-0.3,0-0.5
						c0-0.1,0-0.1,0-0.2c0-0.2,0-0.5,0-0.7c0-0.2,0-0.5,0-0.7c0-0.1,0-0.2,0-0.2c0-0.2,0-0.3,0-0.5c0-0.1,0-0.2,0-0.2
						c0-0.2,0-0.3-0.1-0.5c0-0.1,0-0.1,0-0.2c0-0.2-0.1-0.5-0.1-0.7c0,0,0-0.1,0-0.1c0-0.2-0.1-0.4-0.1-0.6c0-0.1,0-0.2-0.1-0.3
						c0-0.2-0.1-0.3-0.1-0.5c0-0.1,0-0.2-0.1-0.3c0-0.2-0.1-0.3-0.1-0.5c0-0.1,0-0.2-0.1-0.3c0-0.2-0.1-0.3-0.1-0.5
						c0-0.1,0-0.2-0.1-0.2c-0.1-0.2-0.2-0.5-0.2-0.7c0,0,0,0,0-0.1c-0.1-0.2-0.2-0.5-0.2-0.7c0-0.1-0.1-0.1-0.1-0.2
						c-0.1-0.2-0.1-0.3-0.2-0.5c0-0.1-0.1-0.2-0.1-0.2c-0.1-0.2-0.1-0.4-0.2-0.5c0-0.1-0.1-0.1-0.1-0.2c-0.1-0.2-0.2-0.5-0.3-0.7
						c0-0.1-0.1-0.1-0.1-0.2c-0.1-0.2-0.2-0.4-0.3-0.5c-0.1-0.1-0.1-0.3-0.2-0.4c-0.1-0.1-0.1-0.2-0.2-0.4c-0.2-0.3-0.4-0.7-0.6-1
						c-0.1-0.1-0.1-0.2-0.2-0.3c-0.1-0.1-0.2-0.3-0.2-0.4c-0.1-0.1-0.2-0.2-0.2-0.4c-0.1-0.1-0.2-0.3-0.3-0.4
						c-0.1-0.1-0.1-0.2-0.2-0.2c-0.2-0.4-0.5-0.7-0.7-1c0,0,0,0,0,0c-0.2-0.2-0.4-0.5-0.5-0.7c-0.1-0.2-0.3-0.4-0.4-0.5
						c0,0-0.1-0.1-0.1-0.1c-0.2-0.2-0.4-0.4-0.5-0.6c-0.1-0.1-0.1-0.1-0.2-0.2c-0.1-0.1-0.3-0.3-0.4-0.4c-0.1-0.1-0.1-0.2-0.2-0.2
						c-0.1-0.1-0.2-0.2-0.3-0.3c-0.1-0.1-0.2-0.2-0.2-0.2c-0.1-0.1-0.2-0.2-0.3-0.3c-0.1-0.1-0.2-0.2-0.3-0.2
						c-0.1-0.1-0.2-0.2-0.3-0.3c-0.1-0.1-0.2-0.2-0.3-0.2c-0.1-0.1-0.2-0.2-0.3-0.3c-0.1-0.1-0.2-0.1-0.3-0.2
						c-0.1-0.1-0.2-0.2-0.4-0.3c-0.1-0.1-0.2-0.1-0.2-0.2c-0.1-0.1-0.3-0.2-0.4-0.3c-0.1,0-0.1-0.1-0.2-0.1
						c-0.2-0.1-0.4-0.3-0.6-0.4c0,0,0,0,0,0c-0.2-0.1-0.4-0.3-0.6-0.4c-0.2-0.1-0.4-0.2-0.6-0.3c-0.1,0-0.1-0.1-0.2-0.1
						c-0.1-0.1-0.3-0.1-0.4-0.2c-0.1,0-0.1-0.1-0.2-0.1c-0.2-0.1-0.4-0.2-0.6-0.3c-0.2-0.1-0.4-0.1-0.6-0.2c-0.1,0-0.1,0-0.2-0.1
						c-0.1,0-0.3-0.1-0.4-0.1c-0.1,0-0.2,0-0.2-0.1c-0.1,0-0.2-0.1-0.4-0.1c-0.1,0-0.2,0-0.2-0.1c-0.1,0-0.2,0-0.3-0.1
						c-0.1,0-0.2,0-0.3,0c-0.1,0-0.2,0-0.3,0c-0.1,0-0.2,0-0.3,0c-0.1,0-0.2,0-0.3,0c-0.1,0-0.2,0-0.3,0c-0.2,0-0.3,0-0.4,0
						c0,0,0,0,0,0c-0.1,0-0.3,0-0.4,0c0,0-0.1,0-0.1,0c-0.2,0-0.3,0-0.5,0.1c0,0-0.1,0-0.1,0c-0.1,0-0.2,0.1-0.4,0.1
						c-0.1,0-0.1,0-0.2,0.1c-0.1,0-0.2,0.1-0.3,0.1c-0.1,0-0.2,0.1-0.3,0.1c-0.1,0-0.1,0-0.2,0.1c-0.2,0.1-0.3,0.2-0.5,0.3
						c0,0,9.5-5.6,9.5-5.6c0.2-0.1,0.3-0.2,0.5-0.2c0.1,0,0.1,0,0.2-0.1c1.8-0.8,3.9-0.6,5.8,0c1.8,0.6,3.6,1.6,5.1,2.8
						c0,0,0.1,0.1,0.1,0.1c0.1,0.1,0.2,0.1,0.3,0.2c5.5,4.6,9.5,11.8,10,19c0.2,2.5-0.1,5.3-1.5,7.4c0,0,0,0,0,0c0,0,0,0.1-0.1,0.1
						c-0.1,0.1-0.1,0.2-0.2,0.3c0,0-0.1,0.1-0.1,0.1c-0.1,0.1-0.1,0.2-0.2,0.3c0,0-0.1,0.1-0.1,0.1c-0.1,0.1-0.2,0.2-0.3,0.3
						c0,0,0,0,0,0c-0.1,0.1-0.2,0.2-0.3,0.3c0,0-0.1,0.1-0.1,0.1c-0.1,0.1-0.2,0.1-0.3,0.2c0,0-0.1,0.1-0.1,0.1
						c-0.1,0.1-0.3,0.2-0.4,0.2l-9.5,5.6c0.1-0.1,0.3-0.2,0.4-0.2c0,0,0.1-0.1,0.1-0.1C816.6,1228.6,816.7,1228.5,816.8,1228.4z"/>
					<g>
						<path class="st21" d="M806.9,1198.4c7.1,4.1,12.9,14.1,12.9,22.3c0,8.2-5.8,11.5-12.9,7.4c-7.1-4.1-12.9-14.1-12.9-22.3
							C794,1197.6,799.8,1194.3,806.9,1198.4z"/>
					</g>
				</g>
				<g>
					<g>
						<path class="st22" d="M806.5,1204.2c4.4,2.5,8,8.5,8.4,13.6c0,0.3,0,0.6,0,0.9c0,5.4-3.8,7.5-8.5,4.8
							c-4.7-2.7-8.4-9.2-8.4-14.6c0-0.3,0-0.6,0-0.9C798.5,1203.4,802.1,1201.6,806.5,1204.2z"/>
					</g>
					<g>
						<path class="st23" d="M806.5,1206.8c3.2,1.8,5.8,6.2,6.1,9.9c0,0.2,0,0.5,0,0.7c0,3.9-2.8,5.5-6.2,3.5
							c-3.4-2-6.1-6.7-6.1-10.6c0-0.2,0-0.4,0-0.6C800.6,1206.3,803.3,1205,806.5,1206.8z"/>
					</g>
					<path class="st24" d="M800.3,1209.7c0.2-2.8,2.1-4.2,4.5-3.5c-1.9,0-3.3,1.3-3.5,3.7c0,0.2,0,0.4,0,0.6c0,3.9,2.7,8.6,6.1,10.6
						c0.6,0.3,1.1,0.5,1.6,0.7c-0.8,0-1.7-0.3-2.7-0.8c-3.4-2-6.1-6.7-6.1-10.6C800.3,1210.1,800.3,1209.9,800.3,1209.7z"/>
					<g>
						<path class="st25" d="M804.1,1214.6c-0.2-0.1-0.4-0.1-0.5,0c-0.3,0.2-0.3,0.7,0,1.1c0.1,0.2,0.3,0.4,0.5,0.5
							c0.2,0.1,0.4,0.1,0.5,0c0.3-0.2,0.3-0.7,0-1.1C804.5,1214.9,804.3,1214.7,804.1,1214.6z"/>
						<path class="st25" d="M806.9,1212.1c-0.9-0.5-1.6-0.1-1.6,0.9c0,1,0.7,2.2,1.6,2.7c0.9,0.5,1.6,0.1,1.6-0.9
							C808.4,1213.8,807.7,1212.6,806.9,1212.1z"/>
						<path class="st25" d="M806.8,1217.5c-0.4-0.2-0.7,0-0.7,0.4c0,0.4,0.3,1,0.7,1.2c0.4,0.2,0.7,0,0.7-0.4
							C807.5,1218.2,807.2,1217.7,806.8,1217.5z"/>
						<path class="st25" d="M809.5,1217.7c-0.2-0.1-0.4-0.1-0.5-0.1c-0.3,0.2-0.3,0.7,0,1.1c0.1,0.2,0.3,0.4,0.5,0.5
							c0.2,0.1,0.4,0.1,0.5,0c0.3-0.2,0.3-0.7,0-1.1C809.9,1218,809.7,1217.8,809.5,1217.7z"/>
						<path class="st25" d="M804.2,1208.4c-0.2-0.1-0.4-0.1-0.5,0c-0.3,0.2-0.3,0.7,0,1.1c0.1,0.2,0.3,0.4,0.5,0.5
							c0.2,0.1,0.4,0.1,0.5,0c0.3-0.2,0.3-0.7,0-1.1C804.5,1208.7,804.3,1208.5,804.2,1208.4z"/>
						<path class="st25" d="M806.9,1210.3c0.4,0.2,0.7,0,0.7-0.4c0-0.4-0.3-1-0.7-1.2c-0.4-0.2-0.7,0-0.7,0.4
							C806.2,1209.5,806.5,1210.1,806.9,1210.3z"/>
						<path class="st25" d="M809.5,1213.1c0.2,0.1,0.4,0.1,0.5,0c0.3-0.2,0.3-0.7,0-1.1c-0.1-0.2-0.3-0.4-0.5-0.5
							c-0.2-0.1-0.4-0.1-0.5-0.1c-0.3,0.2-0.3,0.7,0,1.1C809.2,1212.9,809.4,1213,809.5,1213.1z"/>
						<path class="st25" d="M803.7,1212.1c0-0.4-0.3-1-0.7-1.2c-0.4-0.2-0.7,0-0.7,0.4c0,0.4,0.3,1,0.7,1.2
							C803.4,1212.7,803.7,1212.5,803.7,1212.1z"/>
						<path class="st25" d="M810.7,1215.3c-0.4-0.2-0.7,0-0.7,0.4c0,0.4,0.3,1,0.7,1.2c0.4,0.2,0.7,0,0.7-0.4
							C811.3,1216,811,1215.5,810.7,1215.3z"/>
					</g>
				</g>
			</g>
			<polygon class="st31" points="828.1,1220.7 874.9,1194.3 875,1166 828.2,1192.4 			"/>
			<polygon class="st32" points="828.2,1192.4 875,1166 868.7,1138.5 821.8,1164.9 			"/>
			<polygon class="st6" points="821.8,1164.9 868.7,1138.5 837.3,1120.3 790.4,1146.8 			"/>
			<path class="st6" d="M821.8,1164.9l6.4,27.5L875,1166l-6.4-27.5L821.8,1164.9z M823.9,1165.9l43.5-24.6l5.5,23.8l-43.5,24.6
				L823.9,1165.9z"/>
			<g id="XMLID_124_">
				<g id="XMLID_125_" class="st33">
					<g id="XMLID_126_">
						<polygon id="XMLID_127_" class="st34" points="866.7,1176 866.7,1194.2 836.5,1211.6 836.5,1193.5 						"/>
					</g>
				</g>
			</g>
			<g>
				<polygon class="st24" points="830.4,1215.7 830.4,1222.1 877,1195.3 877,1188.9 				"/>
				<polygon class="st22" points="830.4,1215.7 830.4,1222.1 828.1,1220.8 828.1,1214.4 				"/>
				<polygon class="st35" points="877,1188.9 830.4,1215.7 828.1,1214.4 874.7,1187.6 				"/>
			</g>
			<g>
				<polygon class="st36" points="828.2,1207.9 835.7,1203.6 835.7,1208.1 828.2,1212.3 				"/>
			</g>
			<g>
				<polygon class="st36" points="867.5,1185.2 875,1180.9 875,1185.4 867.5,1189.6 				"/>
			</g>
			<path class="st37" d="M790.4,1146.8l31.4,18.1l6.4,27.5l-0.1,28.3l-6.7-3.9c-1.7-8-7.3-16.4-14-20.3c-6.7-3.8-12.3-2-14.1,4
				l-3-1.7v-18.7L790.4,1146.8z"/>
			<g>
				<path class="st32" d="M802.9,1156.3c-0.3-0.2-0.6,0-0.6,0.3l0,16.4c0,0.4,0.3,0.8,0.6,1l20.8,12c0.4,0.2,0.7-0.1,0.6-0.6
					l-3.7-18.6c-0.1-0.3-0.3-0.6-0.6-0.8L802.9,1156.3z"/>
			</g>
			<polygon class="st38" points="831.6,1217.3 831.6,1220.2 837.2,1216.9 837.2,1214 			"/>
			<polygon class="st38" points="870.4,1195 870.4,1197.9 876.1,1194.7 876.1,1191.8 			"/>
			<polygon class="st22" points="724.2,1149.5 724.2,1160 743.9,1171.2 743.9,1160.9 			"/>
			<polygon class="st39" points="743.9,1171.2 747.7,1169.2 747.7,1163 743.9,1160.9 			"/>
			<polygon class="st40" points="823.9,1165.9 872.9,1165 867.4,1141.3 			"/>
		</g>
		<g>
			<polygon class="st6" points="730.6,1134 725,1130.8 725,1094.1 730.6,1097.2 			"/>
			<polygon class="st6" points="706.2,1113.7 712.9,1117.5 712.9,1087 718.4,1090.2 718.4,1120.7 718.4,1126.9 712.9,1123.7 
				712.9,1123.7 700.7,1116.7 700.7,1110.5 700.7,1080 706.2,1083.2 			"/>
			<polygon class="st6" points="694,1076.1 694,1112.8 688.5,1109.7 688.5,1073 			"/>
		</g>
	</g>
	<g>
		<polygon class="st15" points="1022.8,639.2 1078,606.8 1078,616.3 1022.8,648.4 		"/>
		<polygon class="st7" points="733.3,471.9 1022.8,639.2 1022.8,648.4 733.3,481.4 		"/>
		<polygon class="st8" points="789,439.7 733.5,472 1022.8,639.2 1078.1,606.8 		"/>
		<polygon class="st16" points="733.5,472 733.5,481.5 1022.8,648.4 1022.8,639.2 		"/>
	</g>
	<polygon class="st2" points="1346.7,957.2 679,1343.2 807,1417.1 1474.8,1031.1 	"/>
	<polygon class="st41" points="679,1343.2 807,1417.1 807,1438.2 679,1364.2 	"/>
	<g>
		<polygon class="st15" points="590,1090.6 590,1159.9 644.1,1128.7 644.1,1059.4 		"/>
		<polygon class="st16" points="590,1090.6 590,1159.9 424.6,1064.4 424.6,995.1 		"/>
		<polygon class="st17" points="572.9,1094.3 572.9,1115.9 521.4,1086.1 521.4,1064.6 		"/>
		<polygon class="st17" points="572.9,1124.7 572.9,1139.5 537.6,1119.2 537.6,1104.4 		"/>
		<polygon class="st8" points="644.1,1059.4 590,1090.6 424.6,995.1 478.7,963.9 		"/>
	</g>
	<g>
		<polygon class="st15" points="502.7,1141.5 502.7,1210.8 556.8,1179.6 556.8,1110.3 		"/>
		<polygon class="st16" points="502.7,1141.5 502.7,1210.8 337.3,1115.3 337.3,1046 		"/>
		<polygon class="st17" points="485.5,1145.2 485.5,1166.8 434,1137 434,1115.5 		"/>
		<polygon class="st17" points="485.5,1175.6 485.5,1190.4 450.3,1170.1 450.3,1155.3 		"/>
		<polygon class="st8" points="556.8,1110.3 502.7,1141.5 337.3,1046 391.4,1014.8 		"/>
	</g>
	<g>
		<polygon class="st18" points="1180.1,995.3 1243,958.2 1093.2,871.2 1030.3,908.3 		"/>
		<g>
			<g>
				<polygon class="st19" points="1040.4,891.8 1063.3,895 1052.2,879.8 1038.7,882.8 				"/>
				<g>
					<g>
						<path class="st20" d="M1064.7,918.2c0,0,0.1-0.1,0.1-0.1c0.1-0.1,0.2-0.2,0.3-0.3c0,0,0,0,0,0c0.1-0.1,0.2-0.2,0.3-0.3
							c0,0,0.1-0.1,0.1-0.1c0.1-0.1,0.1-0.2,0.2-0.3c0,0,0.1-0.1,0.1-0.1c0.1-0.1,0.1-0.2,0.2-0.3c0,0,0-0.1,0.1-0.1
							c0.1-0.1,0.2-0.3,0.3-0.4c0.1-0.2,0.2-0.3,0.2-0.5c0,0,0-0.1,0-0.1c0.1-0.1,0.1-0.3,0.2-0.4c0,0,0-0.1,0-0.1
							c0-0.1,0.1-0.2,0.1-0.2c0-0.1,0.1-0.3,0.1-0.4c0-0.1,0.1-0.2,0.1-0.3c0-0.1,0.1-0.2,0.1-0.3c0-0.1,0-0.2,0.1-0.3
							c0-0.1,0-0.2,0.1-0.3c0-0.1,0-0.2,0.1-0.3c0-0.1,0-0.2,0-0.3c0-0.1,0-0.3,0-0.4c0-0.1,0-0.2,0-0.3c0-0.2,0-0.3,0-0.5
							c0-0.1,0-0.1,0-0.2c0-0.2,0-0.5,0-0.7c0-0.2,0-0.5,0-0.7c0-0.1,0-0.2,0-0.2c0-0.2,0-0.3,0-0.5c0-0.1,0-0.2,0-0.2
							c0-0.2,0-0.3-0.1-0.5c0-0.1,0-0.1,0-0.2c0-0.2-0.1-0.5-0.1-0.7c0,0,0-0.1,0-0.1c0-0.2-0.1-0.4-0.1-0.6c0-0.1,0-0.2-0.1-0.3
							c0-0.2-0.1-0.3-0.1-0.5c0-0.1,0-0.2-0.1-0.3c0-0.2-0.1-0.3-0.1-0.5c0-0.1,0-0.2-0.1-0.3c0-0.2-0.1-0.3-0.1-0.5
							c0-0.1,0-0.2-0.1-0.2c-0.1-0.2-0.2-0.5-0.2-0.7c0,0,0,0,0-0.1c-0.1-0.2-0.2-0.4-0.2-0.7c0-0.1-0.1-0.1-0.1-0.2
							c-0.1-0.2-0.1-0.3-0.2-0.5c0-0.1-0.1-0.2-0.1-0.2c-0.1-0.2-0.1-0.4-0.2-0.5c0-0.1-0.1-0.1-0.1-0.2c-0.1-0.2-0.2-0.5-0.3-0.7
							c0-0.1-0.1-0.1-0.1-0.2c-0.1-0.2-0.2-0.4-0.3-0.5c-0.1-0.1-0.1-0.3-0.2-0.4c-0.1-0.1-0.1-0.2-0.2-0.4c-0.2-0.3-0.4-0.7-0.5-1
							c-0.1-0.1-0.1-0.2-0.2-0.3c-0.1-0.1-0.2-0.3-0.2-0.4c-0.1-0.1-0.1-0.2-0.2-0.3c-0.1-0.1-0.2-0.3-0.2-0.4
							c-0.1-0.1-0.1-0.2-0.2-0.2c-0.2-0.3-0.5-0.7-0.7-1c0,0,0,0,0,0c-0.2-0.2-0.4-0.5-0.5-0.7c-0.1-0.2-0.3-0.4-0.4-0.5
							c0,0-0.1-0.1-0.1-0.1c-0.2-0.2-0.3-0.4-0.5-0.6c-0.1-0.1-0.1-0.1-0.2-0.2c-0.1-0.1-0.2-0.3-0.4-0.4c-0.1-0.1-0.1-0.2-0.2-0.2
							c-0.1-0.1-0.2-0.2-0.3-0.3c-0.1-0.1-0.2-0.2-0.2-0.2c-0.1-0.1-0.2-0.2-0.3-0.3c-0.1-0.1-0.2-0.2-0.3-0.2
							c-0.1-0.1-0.2-0.2-0.3-0.3c-0.1-0.1-0.2-0.2-0.3-0.2c-0.1-0.1-0.2-0.2-0.3-0.3c-0.1-0.1-0.2-0.1-0.3-0.2
							c-0.1-0.1-0.2-0.2-0.4-0.3c-0.1-0.1-0.2-0.1-0.2-0.2c-0.1-0.1-0.3-0.2-0.4-0.3c-0.1,0-0.1-0.1-0.2-0.1
							c-0.2-0.1-0.4-0.3-0.6-0.4c0,0,0,0,0,0c-0.2-0.1-0.4-0.3-0.6-0.4c-0.2-0.1-0.4-0.2-0.6-0.3c-0.1,0-0.1-0.1-0.2-0.1
							c-0.1-0.1-0.3-0.1-0.4-0.2c-0.1,0-0.1-0.1-0.2-0.1c-0.2-0.1-0.4-0.2-0.6-0.3c-0.2-0.1-0.4-0.1-0.6-0.2c-0.1,0-0.1,0-0.2-0.1
							c-0.1,0-0.3-0.1-0.4-0.1c-0.1,0-0.2,0-0.2-0.1c-0.1,0-0.2-0.1-0.4-0.1c-0.1,0-0.1,0-0.2,0c-0.1,0-0.2,0-0.3-0.1
							c-0.1,0-0.2,0-0.3,0c-0.1,0-0.2,0-0.3,0c-0.1,0-0.2,0-0.3,0c-0.1,0-0.2,0-0.3,0c-0.1,0-0.2,0-0.3,0c-0.1,0-0.3,0-0.4,0
							c0,0,0,0,0,0c-0.1,0-0.3,0-0.4,0c0,0-0.1,0-0.1,0c-0.2,0-0.3,0-0.5,0.1c0,0-0.1,0-0.1,0c-0.1,0-0.2,0.1-0.4,0.1
							c-0.1,0-0.1,0-0.2,0.1c-0.1,0-0.2,0.1-0.3,0.1c-0.1,0-0.2,0.1-0.3,0.1c-0.1,0-0.1,0-0.2,0.1c-0.2,0.1-0.3,0.2-0.5,0.2
							c0,0,12.1-7,12.1-7c0.2-0.1,0.3-0.2,0.5-0.2c0.1,0,0.1,0,0.2-0.1c1.8-0.8,3.9-0.6,5.7,0c1.8,0.6,3.6,1.6,5,2.8
							c0,0,0.1,0.1,0.1,0.1c0.1,0.1,0.2,0.1,0.3,0.2c5.5,4.5,9.4,11.6,9.9,18.7c0.2,2.4-0.1,5.2-1.4,7.3c0,0,0,0,0,0
							c0,0,0,0.1-0.1,0.1c-0.1,0.1-0.1,0.2-0.2,0.3c0,0-0.1,0.1-0.1,0.1c-0.1,0.1-0.1,0.2-0.2,0.3c0,0-0.1,0.1-0.1,0.1
							c-0.1,0.1-0.2,0.2-0.3,0.3c0,0,0,0,0,0c-0.1,0.1-0.2,0.2-0.3,0.3c0,0-0.1,0.1-0.1,0.1c-0.1,0.1-0.2,0.1-0.3,0.2
							c0,0-0.1,0.1-0.1,0.1c-0.1,0.1-0.2,0.2-0.4,0.2l-12.1,7c0.1-0.1,0.3-0.2,0.4-0.2c0,0,0.1-0.1,0.1-0.1
							C1064.5,918.3,1064.6,918.3,1064.7,918.2z"/>
						<g>
							<path class="st21" d="M1055,888.6c7,4.1,12.7,13.9,12.7,21.9c0,8.1-5.7,11.3-12.8,7.3c-7-4.1-12.7-13.9-12.7-21.9
								C1042.2,887.8,1047.9,884.5,1055,888.6z"/>
						</g>
					</g>
					<g>
						<g>
							<path class="st22" d="M1054.5,894.3c4.3,2.5,7.9,8.4,8.3,13.4c0,0.3,0,0.6,0,0.9c0,5.3-3.8,7.4-8.4,4.8
								c-4.6-2.7-8.3-9.1-8.3-14.4c0-0.3,0-0.6,0-0.9C1046.6,893.5,1050.2,891.8,1054.5,894.3z"/>
						</g>
						<g>
							<path class="st23" d="M1054.5,896.9c3.2,1.8,5.7,6.1,6,9.8c0,0.2,0,0.5,0,0.7c0,3.8-2.7,5.4-6.1,3.5c-3.3-1.9-6-6.6-6-10.5
								c0-0.2,0-0.4,0-0.6C1048.8,896.3,1051.4,895.1,1054.5,896.9z"/>
						</g>
						<path class="st24" d="M1048.5,899.7c0.2-2.8,2.1-4.1,4.5-3.5c-1.9,0-3.2,1.3-3.4,3.6c0,0.2,0,0.4,0,0.6c0,3.8,2.7,8.5,6,10.5
							c0.5,0.3,1.1,0.5,1.6,0.7c-0.8,0-1.7-0.3-2.6-0.8c-3.3-1.9-6-6.6-6-10.5C1048.4,900.1,1048.5,899.9,1048.5,899.7z"/>
						<g>
							<path class="st25" d="M1052.2,904.6c-0.2-0.1-0.3-0.1-0.5,0c-0.3,0.2-0.3,0.6,0,1.1c0.1,0.2,0.3,0.4,0.5,0.5
								c0.2,0.1,0.3,0.1,0.5,0c0.3-0.2,0.3-0.6,0-1.1C1052.6,904.8,1052.4,904.7,1052.2,904.6z"/>
							<path class="st25" d="M1054.9,902.1c-0.9-0.5-1.5-0.1-1.6,0.9c0,1,0.7,2.2,1.5,2.7c0.9,0.5,1.5,0.1,1.6-0.9
								C1056.4,903.7,1055.7,902.6,1054.9,902.1z"/>
							<path class="st25" d="M1054.9,907.4c-0.4-0.2-0.7,0-0.7,0.4c0,0.4,0.3,1,0.7,1.2c0.4,0.2,0.7,0,0.7-0.4
								C1055.6,908.1,1055.3,907.6,1054.9,907.4z"/>
							<path class="st25" d="M1057.5,907.6c-0.2-0.1-0.3-0.1-0.5,0c-0.3,0.2-0.3,0.6,0,1.1c0.1,0.2,0.3,0.4,0.5,0.5
								c0.2,0.1,0.3,0.1,0.5,0c0.3-0.2,0.3-0.6,0-1.1C1057.9,907.9,1057.7,907.7,1057.5,907.6z"/>
							<path class="st25" d="M1052.2,898.5c-0.2-0.1-0.3-0.1-0.5,0c-0.3,0.2-0.3,0.6,0,1.1c0.1,0.2,0.3,0.4,0.5,0.5
								c0.2,0.1,0.3,0.1,0.5,0c0.3-0.2,0.3-0.6,0-1.1C1052.6,898.7,1052.4,898.6,1052.2,898.5z"/>
							<path class="st25" d="M1054.9,900.3c0.4,0.2,0.7,0,0.7-0.4c0-0.4-0.3-1-0.7-1.2c-0.4-0.2-0.7,0-0.7,0.4
								C1054.2,899.6,1054.5,900.1,1054.9,900.3z"/>
							<path class="st25" d="M1057.5,903.1c0.2,0.1,0.3,0.1,0.5,0c0.3-0.2,0.3-0.6,0-1.1c-0.1-0.2-0.3-0.4-0.5-0.5
								c-0.2-0.1-0.3-0.1-0.5,0c-0.3,0.2-0.3,0.6,0,1.1C1057.2,902.8,1057.4,903,1057.5,903.1z"/>
							<path class="st25" d="M1051.8,902.1c0-0.4-0.3-1-0.7-1.2c-0.4-0.2-0.7,0-0.7,0.4c0,0.4,0.3,1,0.7,1.2
								C1051.5,902.7,1051.8,902.5,1051.8,902.1z"/>
							<path class="st25" d="M1058.6,905.2c-0.4-0.2-0.7,0-0.7,0.4c0,0.4,0.3,1,0.7,1.2c0.4,0.2,0.7,0,0.7-0.4
								C1059.3,906,1059,905.4,1058.6,905.2z"/>
						</g>
					</g>
				</g>
				<polygon class="st30" points="1067.6,895 1072.3,912.6 1078.8,916.5 1078.8,901.4 				"/>
				<polygon class="st19" points="1078.8,916.5 1090.4,908.1 1078.8,901.4 				"/>
				<g>
					<g>
						<path class="st20" d="M1143.4,963.8c0,0,0.1-0.1,0.1-0.1c0.1-0.1,0.2-0.2,0.3-0.3c0,0,0,0,0,0c0.1-0.1,0.2-0.2,0.3-0.3
							c0,0,0.1-0.1,0.1-0.1c0.1-0.1,0.1-0.2,0.2-0.3c0,0,0.1-0.1,0.1-0.1c0.1-0.1,0.1-0.2,0.2-0.3c0,0,0-0.1,0.1-0.1
							c0.1-0.1,0.2-0.3,0.3-0.4c0.1-0.2,0.2-0.3,0.2-0.5c0,0,0-0.1,0-0.1c0.1-0.1,0.1-0.3,0.2-0.4c0,0,0-0.1,0-0.1
							c0-0.1,0.1-0.2,0.1-0.2c0-0.1,0.1-0.3,0.1-0.4c0-0.1,0.1-0.2,0.1-0.3c0-0.1,0.1-0.2,0.1-0.3c0-0.1,0-0.2,0.1-0.3
							c0-0.1,0-0.2,0.1-0.3c0-0.1,0-0.2,0.1-0.3c0-0.1,0-0.2,0-0.3c0-0.1,0-0.3,0-0.4c0-0.1,0-0.2,0-0.3c0-0.2,0-0.3,0-0.5
							c0-0.1,0-0.1,0-0.2c0-0.2,0-0.5,0-0.7c0-0.2,0-0.5,0-0.7c0-0.1,0-0.2,0-0.2c0-0.2,0-0.3,0-0.5c0-0.1,0-0.2,0-0.2
							c0-0.2,0-0.3-0.1-0.5c0-0.1,0-0.1,0-0.2c0-0.2-0.1-0.5-0.1-0.7c0,0,0-0.1,0-0.1c0-0.2-0.1-0.4-0.1-0.6c0-0.1,0-0.2-0.1-0.3
							c0-0.2-0.1-0.3-0.1-0.5c0-0.1,0-0.2-0.1-0.3c0-0.2-0.1-0.3-0.1-0.5c0-0.1,0-0.2-0.1-0.3c0-0.2-0.1-0.3-0.1-0.5
							c0-0.1,0-0.2-0.1-0.2c-0.1-0.2-0.2-0.5-0.2-0.7c0,0,0,0,0-0.1c-0.1-0.2-0.2-0.5-0.2-0.7c0-0.1-0.1-0.1-0.1-0.2
							c-0.1-0.2-0.1-0.3-0.2-0.5c0-0.1-0.1-0.2-0.1-0.2c-0.1-0.2-0.1-0.4-0.2-0.5c0-0.1-0.1-0.1-0.1-0.2c-0.1-0.2-0.2-0.5-0.3-0.7
							c0-0.1-0.1-0.1-0.1-0.2c-0.1-0.2-0.2-0.4-0.3-0.5c-0.1-0.1-0.1-0.3-0.2-0.4c-0.1-0.1-0.1-0.2-0.2-0.4c-0.2-0.3-0.4-0.7-0.5-1
							c-0.1-0.1-0.1-0.2-0.2-0.3c-0.1-0.1-0.2-0.3-0.2-0.4c-0.1-0.1-0.1-0.2-0.2-0.3c-0.1-0.1-0.2-0.3-0.2-0.4
							c-0.1-0.1-0.1-0.2-0.2-0.2c-0.2-0.3-0.5-0.7-0.7-1c0,0,0,0,0,0c-0.2-0.2-0.4-0.5-0.5-0.7c-0.1-0.2-0.3-0.4-0.4-0.5
							c0,0-0.1-0.1-0.1-0.1c-0.2-0.2-0.3-0.4-0.5-0.6c-0.1-0.1-0.1-0.1-0.2-0.2c-0.1-0.1-0.2-0.3-0.4-0.4c-0.1-0.1-0.1-0.2-0.2-0.2
							c-0.1-0.1-0.2-0.2-0.3-0.3c-0.1-0.1-0.2-0.2-0.2-0.2c-0.1-0.1-0.2-0.2-0.3-0.3c-0.1-0.1-0.2-0.2-0.3-0.2
							c-0.1-0.1-0.2-0.2-0.3-0.3c-0.1-0.1-0.2-0.2-0.3-0.2c-0.1-0.1-0.2-0.2-0.3-0.3c-0.1-0.1-0.2-0.1-0.3-0.2
							c-0.1-0.1-0.2-0.2-0.4-0.3c-0.1-0.1-0.2-0.1-0.2-0.2c-0.1-0.1-0.3-0.2-0.4-0.3c-0.1,0-0.1-0.1-0.2-0.1
							c-0.2-0.1-0.4-0.3-0.6-0.4c0,0,0,0,0,0c-0.2-0.1-0.4-0.3-0.6-0.4c-0.2-0.1-0.4-0.2-0.6-0.3c-0.1,0-0.1-0.1-0.2-0.1
							c-0.1-0.1-0.3-0.1-0.4-0.2c-0.1,0-0.1-0.1-0.2-0.1c-0.2-0.1-0.4-0.2-0.6-0.3c-0.2-0.1-0.4-0.1-0.6-0.2c-0.1,0-0.1,0-0.2-0.1
							c-0.1,0-0.3-0.1-0.4-0.1c-0.1,0-0.1,0-0.2-0.1c-0.1,0-0.2-0.1-0.4-0.1c-0.1,0-0.1,0-0.2,0c-0.1,0-0.2,0-0.3-0.1
							c-0.1,0-0.2,0-0.3,0c-0.1,0-0.2,0-0.3,0c-0.1,0-0.2,0-0.3,0c-0.1,0-0.2,0-0.3,0c-0.1,0-0.2,0-0.3,0c-0.1,0-0.3,0-0.4,0
							c0,0,0,0,0,0c-0.1,0-0.3,0-0.4,0c0,0-0.1,0-0.1,0c-0.2,0-0.3,0-0.5,0.1c0,0-0.1,0-0.1,0c-0.1,0-0.2,0.1-0.4,0.1
							c-0.1,0-0.1,0-0.2,0.1c-0.1,0-0.2,0.1-0.3,0.1c-0.1,0-0.2,0.1-0.3,0.1c-0.1,0-0.1,0-0.2,0.1c-0.2,0.1-0.3,0.2-0.5,0.2
							c0,0,12.1-7,12.1-7c0.2-0.1,0.3-0.2,0.5-0.2c0.1,0,0.1,0,0.2-0.1c1.8-0.8,3.9-0.6,5.7,0c1.8,0.6,3.6,1.6,5,2.8
							c0,0,0.1,0.1,0.1,0.1c0.1,0.1,0.2,0.1,0.3,0.2c5.5,4.5,9.4,11.6,9.9,18.7c0.2,2.4-0.1,5.2-1.4,7.3c0,0,0,0,0,0
							c0,0,0,0.1-0.1,0.1c-0.1,0.1-0.1,0.2-0.2,0.3c0,0-0.1,0.1-0.1,0.1c-0.1,0.1-0.1,0.2-0.2,0.3c0,0-0.1,0.1-0.1,0.1
							c-0.1,0.1-0.2,0.2-0.3,0.3c0,0,0,0,0,0c-0.1,0.1-0.2,0.2-0.3,0.3c0,0-0.1,0.1-0.1,0.1c-0.1,0.1-0.2,0.1-0.3,0.2
							c0,0-0.1,0.1-0.1,0.1c-0.1,0.1-0.2,0.2-0.4,0.2l-12.1,7c0.1-0.1,0.3-0.2,0.4-0.2c0,0,0.1-0.1,0.1-0.1
							C1143.2,963.9,1143.3,963.8,1143.4,963.8z"/>
						<g>
							<path class="st21" d="M1133.7,934.2c7,4.1,12.7,13.9,12.7,21.9c0,8.1-5.7,11.3-12.8,7.3c-7-4.1-12.7-13.9-12.7-21.9
								C1121,933.4,1126.7,930.1,1133.7,934.2z"/>
						</g>
					</g>
					<g>
						<g>
							<path class="st22" d="M1133.3,939.8c4.3,2.5,7.9,8.4,8.3,13.4c0,0.3,0,0.6,0,0.9c0,5.3-3.8,7.4-8.4,4.8
								c-4.6-2.7-8.3-9.1-8.3-14.4c0-0.3,0-0.6,0-0.9C1125.4,939.1,1128.9,937.3,1133.3,939.8z"/>
						</g>
						<g>
							<path class="st23" d="M1133.2,942.5c3.2,1.8,5.7,6.1,6,9.8c0,0.2,0,0.5,0,0.7c0,3.8-2.7,5.4-6.1,3.5c-3.3-1.9-6-6.6-6-10.5
								c0-0.2,0-0.4,0-0.6C1127.5,941.9,1130.1,940.6,1133.2,942.5z"/>
						</g>
						<path class="st24" d="M1127.2,945.3c0.2-2.8,2.1-4.1,4.5-3.5c-1.9,0-3.2,1.3-3.4,3.6c0,0.2,0,0.4,0,0.6c0,3.8,2.7,8.5,6,10.5
							c0.5,0.3,1.1,0.5,1.6,0.7c-0.8,0-1.7-0.3-2.6-0.8c-3.3-1.9-6-6.6-6-10.5C1127.2,945.7,1127.2,945.5,1127.2,945.3z"/>
						<g>
							<path class="st25" d="M1131,950.1c-0.2-0.1-0.3-0.1-0.5,0c-0.3,0.2-0.3,0.6,0,1.1c0.1,0.2,0.3,0.4,0.5,0.5
								c0.2,0.1,0.3,0.1,0.5,0c0.3-0.2,0.3-0.6,0-1.1C1131.3,950.4,1131.1,950.2,1131,950.1z"/>
							<path class="st25" d="M1133.6,947.6c-0.9-0.5-1.5-0.1-1.6,0.9c0,1,0.7,2.2,1.5,2.7c0.9,0.5,1.5,0.1,1.6-0.9
								C1135.2,949.3,1134.5,948.1,1133.6,947.6z"/>
							<path class="st25" d="M1133.6,952.9c-0.4-0.2-0.7,0-0.7,0.4c0,0.4,0.3,1,0.7,1.2c0.4,0.2,0.7,0,0.7-0.4
								C1134.3,953.7,1134,953.2,1133.6,952.9z"/>
							<path class="st25" d="M1136.3,953.2c-0.2-0.1-0.3-0.1-0.5,0c-0.3,0.2-0.3,0.6,0,1.1c0.1,0.2,0.3,0.4,0.5,0.5
								c0.2,0.1,0.3,0.1,0.5,0c0.3-0.2,0.3-0.6,0-1.1C1136.6,953.5,1136.4,953.3,1136.3,953.2z"/>
							<path class="st25" d="M1131,944c-0.2-0.1-0.3-0.1-0.5,0c-0.3,0.2-0.3,0.6,0,1.1c0.1,0.2,0.3,0.4,0.5,0.5
								c0.2,0.1,0.3,0.1,0.5,0c0.3-0.2,0.3-0.6,0-1.1C1131.3,944.3,1131.1,944.1,1131,944z"/>
							<path class="st25" d="M1133.6,945.9c0.4,0.2,0.7,0,0.7-0.4c0-0.4-0.3-1-0.7-1.2c-0.4-0.2-0.7,0-0.7,0.4
								C1132.9,945.1,1133.2,945.7,1133.6,945.9z"/>
							<path class="st25" d="M1136.3,948.7c0.2,0.1,0.4,0.1,0.5,0c0.3-0.2,0.3-0.6,0-1.1c-0.1-0.2-0.3-0.4-0.5-0.5
								c-0.2-0.1-0.3-0.1-0.5,0c-0.3,0.2-0.3,0.6,0,1.1C1135.9,948.4,1136.1,948.6,1136.3,948.7z"/>
							<path class="st25" d="M1130.5,947.6c0-0.4-0.3-1-0.7-1.2c-0.4-0.2-0.7,0-0.7,0.4c0,0.4,0.3,1,0.7,1.2
								C1130.2,948.2,1130.5,948.1,1130.5,947.6z"/>
							<path class="st25" d="M1137.4,950.8c-0.4-0.2-0.7,0-0.7,0.4c0,0.4,0.3,1,0.7,1.2c0.4,0.2,0.7,0,0.7-0.4
								C1138.1,951.5,1137.7,951,1137.4,950.8z"/>
						</g>
					</g>
				</g>
				<g>
					<g>
						<path class="st20" d="M1170.9,979.5c0,0,0.1-0.1,0.1-0.1c0.1-0.1,0.2-0.2,0.3-0.3c0,0,0,0,0,0c0.1-0.1,0.2-0.2,0.3-0.3
							c0,0,0.1-0.1,0.1-0.1c0.1-0.1,0.1-0.2,0.2-0.3c0,0,0.1-0.1,0.1-0.1c0.1-0.1,0.1-0.2,0.2-0.3c0,0,0-0.1,0.1-0.1
							c0.1-0.1,0.2-0.3,0.3-0.4c0.1-0.2,0.2-0.3,0.2-0.5c0,0,0-0.1,0-0.1c0.1-0.1,0.1-0.3,0.2-0.4c0,0,0-0.1,0-0.1
							c0-0.1,0.1-0.2,0.1-0.2c0-0.1,0.1-0.3,0.1-0.4c0-0.1,0.1-0.2,0.1-0.3c0-0.1,0.1-0.2,0.1-0.3c0-0.1,0-0.2,0.1-0.3
							c0-0.1,0-0.2,0.1-0.3c0-0.1,0-0.2,0.1-0.3c0-0.1,0-0.2,0-0.3c0-0.1,0-0.3,0-0.4c0-0.1,0-0.2,0-0.3c0-0.2,0-0.3,0-0.5
							c0-0.1,0-0.1,0-0.2c0-0.2,0-0.5,0-0.7c0-0.2,0-0.5,0-0.7c0-0.1,0-0.2,0-0.2c0-0.2,0-0.3,0-0.5c0-0.1,0-0.2,0-0.2
							c0-0.2,0-0.3-0.1-0.5c0-0.1,0-0.1,0-0.2c0-0.2-0.1-0.5-0.1-0.7c0,0,0-0.1,0-0.1c0-0.2-0.1-0.4-0.1-0.6c0-0.1,0-0.2-0.1-0.3
							c0-0.2-0.1-0.3-0.1-0.5c0-0.1,0-0.2-0.1-0.3c0-0.2-0.1-0.3-0.1-0.5c0-0.1,0-0.2-0.1-0.3c0-0.2-0.1-0.3-0.1-0.5
							c0-0.1,0-0.2-0.1-0.2c-0.1-0.2-0.2-0.5-0.2-0.7c0,0,0,0,0-0.1c-0.1-0.2-0.2-0.5-0.2-0.7c0-0.1-0.1-0.1-0.1-0.2
							c-0.1-0.2-0.1-0.3-0.2-0.5c0-0.1-0.1-0.2-0.1-0.2c-0.1-0.2-0.1-0.4-0.2-0.5c0-0.1-0.1-0.1-0.1-0.2c-0.1-0.2-0.2-0.5-0.3-0.7
							c0-0.1-0.1-0.1-0.1-0.2c-0.1-0.2-0.2-0.4-0.3-0.5c-0.1-0.1-0.1-0.3-0.2-0.4c-0.1-0.1-0.1-0.2-0.2-0.4c-0.2-0.3-0.4-0.7-0.5-1
							c-0.1-0.1-0.1-0.2-0.2-0.3c-0.1-0.1-0.2-0.3-0.2-0.4c-0.1-0.1-0.1-0.2-0.2-0.3c-0.1-0.1-0.2-0.3-0.3-0.4
							c-0.1-0.1-0.1-0.2-0.2-0.2c-0.2-0.3-0.5-0.7-0.7-1c0,0,0,0,0,0c-0.2-0.2-0.4-0.5-0.5-0.7c-0.1-0.2-0.3-0.4-0.4-0.5
							c0,0-0.1-0.1-0.1-0.1c-0.2-0.2-0.3-0.4-0.5-0.6c0-0.1-0.1-0.1-0.2-0.2c-0.1-0.1-0.3-0.3-0.4-0.4c-0.1-0.1-0.1-0.2-0.2-0.2
							c-0.1-0.1-0.2-0.2-0.3-0.3c-0.1-0.1-0.2-0.2-0.2-0.2c-0.1-0.1-0.2-0.2-0.3-0.3c-0.1-0.1-0.2-0.2-0.3-0.2
							c-0.1-0.1-0.2-0.2-0.3-0.3c-0.1-0.1-0.2-0.2-0.3-0.2c-0.1-0.1-0.2-0.2-0.3-0.3c-0.1-0.1-0.2-0.1-0.3-0.2
							c-0.1-0.1-0.2-0.2-0.4-0.3c-0.1-0.1-0.2-0.1-0.2-0.2c-0.1-0.1-0.3-0.2-0.4-0.3c-0.1,0-0.1-0.1-0.2-0.1
							c-0.2-0.1-0.4-0.3-0.6-0.4c0,0,0,0,0,0c-0.2-0.1-0.4-0.3-0.6-0.4c-0.2-0.1-0.4-0.2-0.6-0.3c-0.1,0-0.1-0.1-0.2-0.1
							c-0.1-0.1-0.3-0.1-0.4-0.2c-0.1,0-0.1-0.1-0.2-0.1c-0.2-0.1-0.4-0.2-0.6-0.3c-0.2-0.1-0.4-0.1-0.6-0.2c-0.1,0-0.1,0-0.2-0.1
							c-0.1,0-0.3-0.1-0.4-0.1c-0.1,0-0.1,0-0.2-0.1c-0.1,0-0.2-0.1-0.4-0.1c-0.1,0-0.2,0-0.2,0c-0.1,0-0.2,0-0.3-0.1
							c-0.1,0-0.2,0-0.3,0c-0.1,0-0.2,0-0.3,0c-0.1,0-0.2,0-0.3,0c-0.1,0-0.2,0-0.3,0c-0.1,0-0.2,0-0.3,0c-0.1,0-0.3,0-0.4,0
							c0,0,0,0,0,0c-0.1,0-0.3,0-0.4,0c0,0-0.1,0-0.1,0c-0.2,0-0.3,0-0.5,0.1c0,0-0.1,0-0.1,0c-0.1,0-0.2,0.1-0.4,0.1
							c-0.1,0-0.1,0-0.2,0.1c-0.1,0-0.2,0.1-0.3,0.1c-0.1,0-0.2,0.1-0.3,0.1c-0.1,0-0.1,0-0.2,0.1c-0.2,0.1-0.3,0.2-0.5,0.2
							c0,0,12.1-7,12.1-7c0.2-0.1,0.3-0.2,0.5-0.2c0.1,0,0.1,0,0.2-0.1c1.8-0.8,3.9-0.6,5.7,0c1.8,0.6,3.6,1.6,5,2.8
							c0,0,0.1,0.1,0.1,0.1c0.1,0.1,0.2,0.1,0.3,0.2c5.5,4.5,9.4,11.6,9.9,18.7c0.2,2.4-0.1,5.2-1.4,7.3c0,0,0,0,0,0
							c0,0,0,0.1-0.1,0.1c-0.1,0.1-0.1,0.2-0.2,0.3c0,0-0.1,0.1-0.1,0.1c-0.1,0.1-0.1,0.2-0.2,0.3c0,0-0.1,0.1-0.1,0.1
							c-0.1,0.1-0.2,0.2-0.3,0.3c0,0,0,0,0,0c-0.1,0.1-0.2,0.2-0.3,0.3c0,0-0.1,0.1-0.1,0.1c-0.1,0.1-0.2,0.1-0.3,0.2
							c0,0-0.1,0.1-0.1,0.1c-0.1,0.1-0.2,0.2-0.4,0.2l-12.1,7c0.1-0.1,0.3-0.2,0.4-0.2c0,0,0.1-0.1,0.1-0.1
							C1170.7,979.6,1170.8,979.6,1170.9,979.5z"/>
						<g>
							<path class="st21" d="M1161.2,949.9c7,4.1,12.7,13.9,12.7,21.9c0,8.1-5.7,11.3-12.8,7.3c-7-4.1-12.7-13.9-12.7-21.9
								C1148.5,949.1,1154.2,945.9,1161.2,949.9z"/>
						</g>
					</g>
					<g>
						<g>
							<path class="st22" d="M1160.7,955.6c4.3,2.5,7.9,8.4,8.3,13.4c0,0.3,0,0.6,0,0.9c0,5.3-3.8,7.4-8.4,4.8
								c-4.6-2.7-8.3-9.1-8.3-14.4c0-0.3,0-0.6,0-0.9C1152.8,954.8,1156.4,953.1,1160.7,955.6z"/>
						</g>
						<g>
							<path class="st23" d="M1160.7,958.2c3.2,1.8,5.7,6.1,6,9.8c0,0.2,0,0.4,0,0.7c0,3.8-2.7,5.4-6.1,3.5c-3.3-1.9-6-6.6-6-10.5
								c0-0.2,0-0.4,0-0.6C1155,957.6,1157.6,956.4,1160.7,958.2z"/>
						</g>
						<path class="st24" d="M1154.7,961c0.2-2.8,2.1-4.1,4.5-3.5c-1.9,0-3.2,1.3-3.4,3.6c0,0.2,0,0.4,0,0.6c0,3.8,2.7,8.5,6,10.5
							c0.5,0.3,1.1,0.5,1.6,0.7c-0.8,0-1.7-0.3-2.6-0.8c-3.3-1.9-6-6.6-6-10.5C1154.7,961.4,1154.7,961.2,1154.7,961z"/>
						<g>
							<path class="st25" d="M1158.4,965.9c-0.2-0.1-0.4-0.1-0.5,0c-0.3,0.2-0.3,0.6,0,1.1c0.1,0.2,0.3,0.4,0.5,0.5
								c0.2,0.1,0.3,0.1,0.5,0c0.3-0.2,0.3-0.6,0-1.1C1158.8,966.2,1158.6,966,1158.4,965.9z"/>
							<path class="st25" d="M1161.1,963.4c-0.9-0.5-1.5-0.1-1.6,0.9c0,1,0.7,2.2,1.5,2.7c0.9,0.5,1.5,0.1,1.6-0.9
								C1162.7,965.1,1162,963.9,1161.1,963.4z"/>
							<path class="st25" d="M1161.1,968.7c-0.4-0.2-0.7,0-0.7,0.4c0,0.4,0.3,1,0.7,1.2c0.4,0.2,0.7,0,0.7-0.4
								C1161.8,969.4,1161.5,968.9,1161.1,968.7z"/>
							<path class="st25" d="M1163.8,968.9c-0.2-0.1-0.3-0.1-0.5,0c-0.3,0.2-0.3,0.6,0,1.1c0.1,0.2,0.3,0.4,0.5,0.5
								c0.2,0.1,0.3,0.1,0.5,0c0.3-0.2,0.3-0.6,0-1.1C1164.1,969.2,1163.9,969,1163.8,968.9z"/>
							<path class="st25" d="M1158.5,959.8c-0.2-0.1-0.3-0.1-0.5,0c-0.3,0.2-0.3,0.6,0,1.1c0.1,0.2,0.3,0.4,0.5,0.5
								c0.2,0.1,0.3,0.1,0.5,0c0.3-0.2,0.3-0.6,0-1.1C1158.8,960.1,1158.6,959.9,1158.5,959.8z"/>
							<path class="st25" d="M1161.1,961.6c0.4,0.2,0.7,0,0.7-0.4c0-0.4-0.3-1-0.7-1.2c-0.4-0.2-0.7,0-0.7,0.4
								C1160.4,960.9,1160.7,961.4,1161.1,961.6z"/>
							<path class="st25" d="M1163.8,964.4c0.2,0.1,0.3,0.1,0.5,0c0.3-0.2,0.3-0.6,0-1.1c-0.1-0.2-0.3-0.4-0.5-0.5
								c-0.2-0.1-0.3-0.1-0.5,0c-0.3,0.2-0.3,0.6,0,1.1C1163.4,964.1,1163.6,964.3,1163.8,964.4z"/>
							<path class="st25" d="M1158,963.4c0-0.4-0.3-1-0.7-1.2c-0.4-0.2-0.7,0-0.7,0.4c0,0.4,0.3,1,0.7,1.2
								C1157.7,964,1158,963.8,1158,963.4z"/>
							<path class="st25" d="M1164.9,966.5c-0.4-0.2-0.7,0-0.7,0.4c0,0.4,0.3,1,0.7,1.2c0.4,0.2,0.7,0,0.7-0.4
								C1165.5,967.3,1165.2,966.7,1164.9,966.5z"/>
						</g>
					</g>
				</g>
				<polygon class="st19" points="1199.5,964.4 1199.5,974.4 1233.7,954.7 1233.7,944.7 				"/>
				<g>
					<polygon class="st42" points="1074,859.8 1120,833.7 1119.9,866.6 1073.9,892.6 					"/>
				</g>
				<g>
					<polygon class="st3" points="1043,841.9 1089.1,815.9 1120,833.7 1074,859.8 					"/>
				</g>
				<polygon class="st43" points="1229.2,949.9 1205.7,963.2 1205.7,974.5 1194.4,980.9 1194.5,962.4 1240.5,936.4 1240.5,954.8 
					1229.2,961.2 				"/>
				<g>
					<polygon class="st26" points="1073.9,892.6 1119.9,866.6 1240.5,936.4 1194.5,962.4 					"/>
					<g class="st44">
						<polygon class="st45" points="1076.5,891.1 1119,867.1 1236.4,935.3 1193.9,959.4 						"/>
					</g>
				</g>
				<g>
					<path class="st4" d="M1237.8,892.8c-4.3-2-9.4-0.8-13.5,1.3c0,0,0,0,0,0c-0.2,0.1-0.3,0.2-0.5,0.3c0,0-0.1,0-0.1,0.1
						c-0.2,0.1-0.3,0.2-0.5,0.3l-109.4-63.7c0.2-0.1,0.3-0.2,0.5-0.3c0,0,0.1,0,0.1-0.1c0,0,0.1,0,0.1,0c0.1-0.1,0.3-0.2,0.4-0.2
						c0,0,0,0,0,0c3.9-2,8.7-3.2,12.9-1.5c0.1,0,0.1,0,0.2,0.1c0.1,0,0.2,0.1,0.3,0.1c0.1,0,0.1,0,0.2,0.1c0.1,0,0.2,0.1,0.3,0.1
						c0,0,0.1,0,0.1,0.1c0.1,0.1,0.3,0.1,0.4,0.2c0,0,109.4,63.7,109.4,63.7C1238.3,893.1,1238.1,892.9,1237.8,892.8z"/>
					<g>
						<polygon class="st4" points="1223.2,894.7 1113.7,831.1 1100.4,838.7 1209.9,902.4 						"/>
					</g>
					<path class="st4" d="M1078.9,875.6c0-2.8,0.4-5.6,1.1-8.2c0-0.1,0.1-0.3,0.1-0.4c0-0.1,0-0.2,0.1-0.2c0-0.1,0-0.1,0.1-0.2
						c0-0.1,0-0.1,0-0.2c0-0.1,0-0.2,0.1-0.2c0-0.1,0.1-0.3,0.1-0.4c0-0.1,0-0.2,0.1-0.2c0,0,0-0.1,0-0.1c0-0.1,0.1-0.3,0.1-0.4
						c0,0,0-0.1,0-0.1c0.1-0.2,0.1-0.4,0.2-0.6c3.1-9.3,9.1-18.3,17.2-24c0.1,0,0.1-0.1,0.2-0.1c0,0,0.1,0,0.1-0.1
						c0.1-0.1,0.2-0.1,0.2-0.2c0.1,0,0.1-0.1,0.2-0.1c0.2-0.1,0.3-0.2,0.5-0.3c0,0,0,0,0,0c0.2-0.1,0.3-0.2,0.5-0.3
						c0.1,0,0.1-0.1,0.2-0.1c0.1,0,0.2-0.1,0.2-0.1c0.1,0,0.1-0.1,0.2-0.1l109.4,63.7c-0.1,0.1-0.3,0.2-0.4,0.3
						c-0.1,0-0.1,0.1-0.2,0.1c-0.2,0.1-0.3,0.2-0.5,0.3c0,0,0,0,0,0c-0.2,0.1-0.3,0.2-0.5,0.3c-0.1,0-0.1,0.1-0.2,0.1
						c-0.1,0.1-0.2,0.2-0.3,0.2c-0.1,0-0.1,0.1-0.2,0.1c-0.1,0.1-0.2,0.1-0.3,0.2c-0.1,0-0.1,0.1-0.2,0.1c-0.1,0.1-0.2,0.2-0.3,0.2
						c-0.1,0.1-0.1,0.1-0.2,0.2c-0.1,0.1-0.2,0.2-0.3,0.3c-0.1,0-0.1,0.1-0.2,0.1c-0.1,0.1-0.2,0.2-0.4,0.3c-0.1,0-0.1,0.1-0.1,0.1
						c-0.2,0.1-0.3,0.3-0.5,0.4c0,0-0.1,0.1-0.1,0.1c-0.1,0.1-0.3,0.2-0.4,0.3c-0.1,0.1-0.1,0.1-0.2,0.2c-0.1,0.1-0.2,0.2-0.3,0.3
						c-0.1,0.1-0.1,0.1-0.2,0.2c-0.1,0.1-0.2,0.2-0.3,0.3c-0.1,0.1-0.1,0.1-0.2,0.2c-0.1,0.1-0.2,0.2-0.3,0.3
						c-0.1,0.1-0.1,0.1-0.2,0.2c-0.1,0.1-0.2,0.2-0.3,0.3c-0.1,0.1-0.1,0.1-0.2,0.2c-0.1,0.1-0.2,0.2-0.3,0.3
						c-0.1,0.1-0.1,0.1-0.2,0.2c-0.1,0.1-0.2,0.2-0.3,0.3c-0.1,0.1-0.1,0.1-0.2,0.2c-0.1,0.1-0.2,0.2-0.3,0.3
						c-0.1,0.1-0.1,0.1-0.2,0.2c-0.1,0.1-0.2,0.2-0.3,0.3c0,0.1-0.1,0.1-0.1,0.2c-0.1,0.2-0.3,0.3-0.4,0.5c0,0,0,0,0,0
						c-0.1,0.2-0.3,0.3-0.4,0.5c-0.1,0.1-0.1,0.1-0.2,0.2c-0.1,0.1-0.2,0.2-0.3,0.3c-0.1,0.1-0.1,0.1-0.2,0.2
						c-0.1,0.1-0.2,0.2-0.3,0.3c-0.1,0.1-0.2,0.3-0.3,0.4c-0.1,0.1-0.1,0.2-0.2,0.2c-0.1,0.1-0.2,0.3-0.3,0.4c0,0.1-0.1,0.1-0.1,0.2
						c-0.2,0.3-0.4,0.6-0.6,0.9c0,0.1-0.1,0.1-0.1,0.2c-0.2,0.3-0.4,0.6-0.6,0.9c-0.1,0.1-0.1,0.2-0.2,0.3c-0.1,0.1-0.2,0.2-0.2,0.3
						c-0.1,0.1-0.1,0.2-0.2,0.3c-0.1,0.1-0.1,0.2-0.2,0.3c-0.1,0.1-0.1,0.2-0.2,0.3c-0.1,0.1-0.1,0.2-0.2,0.3
						c-0.1,0.1-0.1,0.2-0.2,0.3c-0.1,0.1-0.1,0.2-0.2,0.3c0,0.1-0.1,0.2-0.1,0.2c-0.1,0.3-0.3,0.5-0.4,0.8c0,0,0,0.1-0.1,0.1
						c-0.2,0.3-0.3,0.6-0.5,0.9c0,0.1-0.1,0.2-0.2,0.3c-0.1,0.1-0.1,0.2-0.2,0.3c-0.1,0.1-0.1,0.2-0.2,0.3c-0.1,0.1-0.1,0.2-0.2,0.3
						c-0.1,0.1-0.1,0.2-0.2,0.4c0,0.1-0.1,0.2-0.1,0.2c-0.1,0.1-0.1,0.3-0.2,0.4c0,0.1-0.1,0.1-0.1,0.2c0,0.1,0,0.1-0.1,0.2
						c-0.1,0.3-0.3,0.6-0.4,0.8c0,0.1-0.1,0.1-0.1,0.2c-0.1,0.3-0.3,0.6-0.4,0.9c-0.1,0.1-0.1,0.3-0.2,0.4c0,0,0,0.1-0.1,0.1
						c-0.1,0.2-0.2,0.4-0.2,0.6c0,0.1,0,0.1-0.1,0.2c-0.1,0.2-0.1,0.3-0.2,0.5c0,0.1-0.1,0.1-0.1,0.2c-0.1,0.1-0.1,0.3-0.2,0.4
						c0,0.1-0.1,0.1-0.1,0.2c-0.1,0.2-0.1,0.3-0.2,0.5c0,0.1,0,0.1-0.1,0.2c-0.1,0.2-0.1,0.4-0.2,0.6c0,0,0,0.1,0,0.1
						c-0.1,0.2-0.1,0.3-0.2,0.5c0,0.1,0,0.2-0.1,0.2c0,0.1-0.1,0.3-0.1,0.4c0,0.1,0,0.2-0.1,0.2c0,0.1-0.1,0.3-0.1,0.4
						c0,0.1,0,0.2-0.1,0.2c0,0.1-0.1,0.3-0.1,0.4c0,0.1,0,0.1-0.1,0.2c-0.1,0.2-0.1,0.4-0.2,0.6c0,0,0,0,0,0.1
						c0,0.2-0.1,0.4-0.1,0.6c0,0.1,0,0.1,0,0.2c0,0.1-0.1,0.3-0.1,0.4c0,0.1,0,0.2,0,0.2c0,0.1-0.1,0.3-0.1,0.4c0,0.1,0,0.1,0,0.2
						c0,0.2-0.1,0.3-0.1,0.5c0,0.1,0,0.1,0,0.2c0,0.2-0.1,0.4-0.1,0.6c0,0,0,0.1,0,0.1c0,0.2,0,0.3-0.1,0.5c0,0.1,0,0.1,0,0.2
						c0,0.1,0,0.3,0,0.4c0,0.1,0,0.1,0,0.2c0,0.2,0,0.3,0,0.5c0,0.1,0,0.1,0,0.2c0,0.2,0,0.4,0,0.6c0,0,0,0.1,0,0.1
						c0,0.2,0,0.3,0,0.5c0,0.1,0,0.1,0,0.2c0,0.1,0,0.3,0,0.4c0,0.1,0,0.1,0,0.2c0,0.2,0,0.4,0,0.6c0,0.2,0,0.4,0,0.6
						c0,0,0,0.1,0,0.1c0,0.1,0,0.3,0,0.4c0,0.1,0,0.1,0,0.2c0,0.1,0,0.2,0,0.4c0,0.1,0,0.1,0,0.2c0.3,3.8,1.6,8,4.5,10.6
						c0,0,0.1,0.1,0.1,0.1c0.1,0.1,0.1,0.1,0.2,0.2c0,0,0.1,0,0.1,0.1c0.1,0.1,0.2,0.2,0.3,0.2c0,0,0,0,0.1,0
						c0.1,0.1,0.2,0.1,0.3,0.2c0,0,0.1,0,0.1,0.1c0.1,0.1,0.2,0.1,0.2,0.2c0,0,0.1,0,0.1,0.1c0.1,0.1,0.2,0.1,0.3,0.2l-109.4-63.7
						c-0.1-0.1-0.2-0.1-0.3-0.2c0,0-0.1,0-0.1-0.1c-0.1,0-0.2-0.1-0.2-0.2c0,0-0.1,0-0.1-0.1c-0.1-0.1-0.2-0.1-0.3-0.2
						c0,0,0,0-0.1,0c-3.1-2.4-4.7-6.5-5.1-10.3C1078.9,877.9,1078.9,876.8,1078.9,875.6z"/>
					<g>
						<path class="st3" d="M1209.9,902.4c-11.9,6.9-21.7,23.7-21.6,37.5c0,13.7,9.8,19.3,21.8,12.4l13.3-7.7
							c11.9-6.9,21.7-23.7,21.6-37.5c0-13.7-9.8-19.3-21.8-12.4L1209.9,902.4z"/>
					</g>
				</g>
				<g>
					<path class="st27" d="M1119.3,920.6C1119.3,920.6,1119.3,920.6,1119.3,920.6C1119.2,920.6,1119.2,920.6,1119.3,920.6
						c-0.1,0-0.1-0.1-0.1-0.1c0,0,0,0-0.1,0c0,0,0,0,0,0c0,0,0,0,0,0c0,0,0,0-0.1,0c0,0,0,0,0,0c0,0,0,0-0.1,0c0,0,0,0,0,0
						c0,0,0,0-0.1,0c0,0,0,0,0,0c0,0-0.1,0-0.1,0c0,0,0,0,0,0c0,0,0,0-0.1,0c0,0,0,0,0,0c0,0-0.1,0-0.1,0c0,0-0.1,0-0.1,0
						c0,0,0,0,0,0c0,0-0.1,0-0.1,0c0,0,0,0,0,0c0,0,0,0-0.1,0c0,0,0,0-0.1,0c0,0,0,0-0.1,0c0,0,0,0-0.1,0c0,0,0,0-0.1,0
						c0,0,0,0-0.1,0c0,0,0,0-0.1,0c0,0,0,0-0.1,0c0,0,0,0-0.1,0c0,0,0,0-0.1,0c0,0,0,0-0.1,0c0,0,0,0-0.1,0c0,0,0,0,0,0
						c0,0-0.1,0-0.1,0c0,0,0,0,0,0c0,0-0.1,0-0.1,0c0,0,0,0,0,0c0,0-0.1,0-0.1,0c0,0,0,0,0,0c0,0,0,0-0.1,0c0,0,0,0,0,0
						c0,0,0,0-0.1,0c0,0,0,0,0,0c0,0-0.1,0-0.1,0c0,0,0,0,0,0c0,0-0.1,0-0.1,0c0,0,0,0,0,0c0,0-0.1,0-0.1,0c0,0,0,0,0,0
						c0,0-0.1,0-0.1,0c0,0,0,0,0,0c0,0-0.1,0-0.1,0.1l0,0c0,0-0.1,0-0.1,0.1c0,0,0,0,0,0c0,0-0.1,0-0.1,0.1l-25-14.6
						c0,0,0.1,0,0.1-0.1c0,0,0,0,0,0c0,0,0,0,0,0c0,0,0.1,0,0.1-0.1l0,0c0,0,0.1,0,0.1-0.1c0,0,0,0,0,0c0,0,0,0,0,0c0,0,0.1,0,0.1,0
						c0,0,0,0,0,0c0,0,0,0,0,0c0,0,0,0,0.1,0c0,0,0,0,0,0c0,0,0.1,0,0.1,0h0c0,0,0,0,0,0c0,0,0.1,0,0.1,0c0,0,0,0,0,0c0,0,0,0,0,0
						c0,0,0,0,0,0c0,0,0,0,0,0c0,0,0.1,0,0.1,0c0,0,0,0,0,0c0,0,0,0,0,0c0,0,0,0,0.1,0c0,0,0,0,0,0c0,0,0.1,0,0.1,0c0,0,0,0,0,0
						c0,0,0,0,0,0c0,0,0.1,0,0.1,0c0,0,0,0,0,0c0,0,0,0,0,0c0,0,0,0,0,0c0,0,0,0,0.1,0c0,0,0,0,0.1,0c0,0,0,0,0.1,0c0,0,0,0,0,0
						c0,0,0,0,0,0c0,0,0,0,0.1,0c0,0,0,0,0.1,0c0,0,0,0,0.1,0c0,0,0,0,0,0c0,0,0,0,0,0c0,0,0,0,0.1,0c0,0,0,0,0.1,0c0,0,0,0,0.1,0
						c0,0,0,0,0,0c0,0,0,0,0,0c0,0,0.1,0,0.1,0c0,0,0,0,0,0c0,0,0.1,0,0.1,0h0c0,0,0.1,0,0.1,0c0,0,0,0,0,0c0,0,0.1,0,0.1,0
						c0,0,0,0,0,0c0,0,0.1,0,0.1,0c0,0,0,0,0,0c0,0,0,0,0,0c0,0,0,0,0.1,0c0,0,0,0,0,0c0,0,0,0,0.1,0c0,0,0,0,0,0c0,0,0,0,0.1,0
						c0,0,0,0,0,0c0,0,0,0,0,0c0,0,0,0,0,0c0,0,0,0,0.1,0c0,0,0,0,0,0c0,0,0,0,0.1,0c0,0,0,0,0,0c0,0,0,0,0.1,0c0,0,0,0,0,0
						c0,0,0.1,0,0.1,0v0l25,14.6C1119.5,920.7,1119.4,920.7,1119.3,920.6C1119.4,920.7,1119.4,920.7,1119.3,920.6
						C1119.3,920.6,1119.3,920.6,1119.3,920.6z"/>
					<g>
						<polygon class="st28" points="1116,921.1 1090.9,906.5 1087.9,908.3 1112.9,922.8 						"/>
					</g>
					<path class="st24" d="M1083,916.7C1083,916.7,1083,916.7,1083,916.7C1083,916.6,1083,916.6,1083,916.7c0-0.1,0-0.1,0-0.1
						c0,0,0,0,0,0c0,0,0-0.1,0-0.1c0,0,0,0,0,0v0c0,0,0-0.1,0-0.1c0,0,0,0,0,0c0,0,0,0,0-0.1c0,0,0,0,0,0c0,0,0,0,0,0
						c0,0,0-0.1,0-0.1c0,0,0,0,0,0c0,0,0,0,0,0c0,0,0-0.1,0-0.1c0,0,0,0,0,0c0,0,0-0.1,0-0.1c0,0,0,0,0,0c0,0,0,0,0,0
						c0,0,0-0.1,0-0.1c0,0,0,0,0,0c0,0,0,0,0,0c0,0,0,0,0,0c0,0,0,0,0-0.1c0,0,0-0.1,0-0.1c0,0,0,0,0,0c0,0,0,0,0,0c0,0,0-0.1,0-0.1
						c0,0,0,0,0,0c0,0,0-0.1,0-0.1c0,0,0,0,0,0c0,0,0,0,0,0c0,0,0-0.1,0-0.1c0,0,0,0,0-0.1c0,0,0,0,0-0.1c0,0,0,0,0,0c0,0,0,0,0-0.1
						c0,0,0-0.1,0-0.1c0,0,0,0,0-0.1c0,0,0,0,0,0c0,0,0-0.1,0-0.1c0,0,0,0,0,0c0,0,0-0.1,0-0.1c0,0,0,0,0,0c0,0,0,0,0,0
						c0,0,0-0.1,0-0.1c0,0,0,0,0-0.1c0,0,0,0,0-0.1c0,0,0,0,0,0c0,0,0,0,0,0c0,0,0-0.1,0-0.1c0,0,0,0,0,0c0,0,0,0,0,0
						c0,0,0-0.1,0.1-0.1c0,0,0,0,0,0c0,0,0-0.1,0-0.1c0,0,0,0,0,0c0-0.1,0.1-0.1,0.1-0.2c0,0,0,0,0,0c0,0,0,0,0,0
						c0-0.1,0.1-0.1,0.1-0.2c0,0,0,0,0,0c0,0,0,0,0,0c0,0,0,0,0,0c0,0,0-0.1,0-0.1c0,0,0,0,0-0.1c0,0,0,0,0-0.1c0,0,0,0,0,0
						c0,0,0-0.1,0-0.1c0,0,0-0.1,0-0.1c0,0,0,0,0-0.1c0,0,0,0,0,0c0,0,0,0,0,0c0-0.1,0.1-0.1,0.1-0.2c0,0,0,0,0,0
						c0-0.1,0.1-0.1,0.1-0.2c0,0,0,0,0,0c0,0,0,0,0,0c0,0,0-0.1,0-0.1c0,0,0,0,0-0.1c0,0,0-0.1,0-0.1c0,0,0,0,0-0.1c0,0,0-0.1,0-0.1
						c0,0,0,0,0-0.1c0,0,0-0.1,0.1-0.1c0,0,0,0,0,0c0,0,0,0,0,0c0-0.1,0.1-0.1,0.1-0.2c0,0,0,0,0,0c0-0.1,0.1-0.1,0.1-0.2
						c0,0,0,0,0,0c0,0,0,0,0,0c0,0,0.1-0.1,0.1-0.1c0,0,0,0,0-0.1c0,0,0-0.1,0.1-0.1c0,0,0,0,0,0c0,0,0,0,0-0.1c0,0,0,0,0-0.1
						c0,0,0-0.1,0.1-0.1c0,0,0,0,0,0c0,0,0,0,0,0c0,0,0.1-0.1,0.1-0.1l0,0c0,0,0.1-0.1,0.1-0.1c0,0,0,0,0,0c0,0,0,0,0,0
						c0,0,0-0.1,0.1-0.1c0,0,0,0,0,0c0,0,0,0,0,0c0,0,0,0,0,0c0,0,0,0,0,0c0,0,0,0,0.1-0.1c0,0,0,0,0,0c0,0,0,0,0,0c0,0,0,0,0,0
						c0,0,0,0,0,0c0,0,0,0,0.1-0.1c0,0,0,0,0,0c0,0,0,0,0,0c0,0,0,0,0,0c0,0,0,0,0,0c0,0,0,0,0.1-0.1c0,0,0,0,0,0c0,0,0,0,0,0
						c0,0,0,0,0.1-0.1c0,0,0,0,0,0c0,0,0.1-0.1,0.1-0.1c0,0,0,0,0,0l0,0c0,0,0.1-0.1,0.1-0.1c0,0,0,0,0,0c0,0,0,0,0.1-0.1
						c0,0,0,0,0,0c0,0,0,0,0,0c0,0,0,0,0.1-0.1c0,0,0,0,0,0c0,0,0,0,0,0c0,0,0,0,0,0c0,0,0,0,0,0c0,0,0,0,0.1-0.1c0,0,0,0,0,0
						c0,0,0,0,0,0c0,0,0,0,0.1,0c0,0,0,0,0,0c0,0,0.1,0,0.1-0.1l0,0c0,0,0,0,0,0c0,0,0.1,0,0.1-0.1c0,0,0,0,0,0c0,0,0,0,0.1,0
						c0,0,0,0,0,0l25,14.6c0,0-0.1,0-0.1,0.1c0,0,0,0,0,0c0,0-0.1,0-0.1,0.1c0,0,0,0,0,0c0,0-0.1,0-0.1,0.1c0,0,0,0,0,0
						c0,0-0.1,0-0.1,0.1c0,0,0,0,0,0c0,0,0,0-0.1,0.1c0,0,0,0,0,0c0,0,0,0-0.1,0.1c0,0,0,0,0,0c0,0,0,0-0.1,0.1c0,0,0,0,0,0
						c0,0-0.1,0-0.1,0.1c0,0,0,0,0,0c0,0-0.1,0.1-0.1,0.1c0,0,0,0,0,0c0,0-0.1,0.1-0.1,0.1c0,0,0,0,0,0c0,0,0,0-0.1,0.1c0,0,0,0,0,0
						c0,0,0,0-0.1,0.1c0,0,0,0,0,0c0,0,0,0-0.1,0.1c0,0,0,0,0,0c0,0,0,0-0.1,0.1c0,0,0,0,0,0c0,0,0,0-0.1,0.1c0,0,0,0,0,0
						c0,0,0,0-0.1,0.1c0,0,0,0,0,0c0,0,0,0-0.1,0.1c0,0,0,0,0,0c0,0,0,0.1-0.1,0.1c0,0,0,0,0,0c0,0-0.1,0.1-0.1,0.1l0,0
						c0,0-0.1,0.1-0.1,0.1c0,0,0,0,0,0c0,0,0,0.1-0.1,0.1c0,0,0,0,0,0.1c0,0,0,0-0.1,0.1c0,0,0,0.1-0.1,0.1c0,0,0,0,0,0.1
						c0,0-0.1,0.1-0.1,0.1c0,0,0,0,0,0c0,0.1-0.1,0.1-0.1,0.2c0,0,0,0,0,0c0,0.1-0.1,0.1-0.1,0.2c0,0,0,0,0,0.1c0,0,0,0.1-0.1,0.1
						c0,0,0,0,0,0.1c0,0,0,0.1-0.1,0.1c0,0,0,0,0,0.1c0,0,0,0.1,0,0.1c0,0,0,0,0,0.1c0,0,0,0.1,0,0.1c0,0,0,0,0,0.1
						c0,0.1-0.1,0.1-0.1,0.2c0,0,0,0,0,0c0,0.1-0.1,0.1-0.1,0.2c0,0,0,0,0,0.1c0,0,0,0.1,0,0.1c0,0,0,0,0,0.1c0,0,0,0,0,0.1
						c0,0,0,0.1,0,0.1c0,0,0,0,0,0.1c0,0,0,0.1,0,0.1c0,0,0,0,0,0c0,0,0,0,0,0c0,0.1-0.1,0.1-0.1,0.2c0,0,0,0,0,0
						c0,0.1-0.1,0.1-0.1,0.2c0,0,0,0.1,0,0.1c0,0,0,0,0,0c0,0,0,0.1-0.1,0.1c0,0,0,0,0,0c0,0,0,0.1,0,0.1c0,0,0,0,0,0
						c0,0,0,0.1,0,0.1c0,0,0,0,0,0.1c0,0,0,0.1,0,0.1c0,0,0,0,0,0c0,0,0,0.1,0,0.1c0,0,0,0,0,0c0,0,0,0.1,0,0.1c0,0,0,0,0,0.1
						c0,0,0,0.1,0,0.1c0,0,0,0,0,0.1c0,0,0,0.1,0,0.1c0,0,0,0,0,0.1c0,0,0,0.1,0,0.1c0,0,0,0,0,0c0,0,0,0.1,0,0.1c0,0,0,0,0,0
						c0,0,0,0.1,0,0.1c0,0,0,0,0,0c0,0,0,0.1,0,0.1c0,0,0,0,0,0.1c0,0,0,0.1,0,0.1c0,0,0,0,0,0.1c0,0,0,0.1,0,0.1c0,0,0,0,0,0
						c0,0,0,0.1,0,0.1c0,0,0,0,0,0c0,0,0,0.1,0,0.1c0,0,0,0,0,0c0,0,0,0.1,0,0.1c0,0,0,0,0,0c0,0,0,0.1,0,0.1c0,0,0,0,0,0
						c0,0,0,0.1,0,0.1c0,0,0,0,0,0c0,0,0,0.1,0,0.1c0,0,0,0,0,0c0,0,0,0.1,0,0.1c0,0,0,0,0,0c0,0,0,0.1,0,0.1c0,0,0,0.1,0,0.1
						c0,0,0,0,0,0c0,0,0,0.1,0,0.1c0,0,0,0,0,0c0,0,0,0.1,0,0.1c0,0,0,0,0,0c0,0,0,0.1,0,0.1c0,0,0,0,0,0.1c0,0,0,0.1,0,0.1
						c0,0,0,0,0,0c0,0,0,0.1,0,0.1c0,0,0,0,0,0c0,0,0,0.1,0,0.1c0,0,0,0,0,0c0,0,0,0.1,0,0.1c0,0,0,0,0,0c0,0,0,0.1,0,0.1
						c0,0,0,0.1,0,0.1c0,0,0,0,0,0c0,0,0,0.1,0,0.1c0,0,0,0,0,0c0,0,0,0.1,0,0.1c0,0,0,0,0,0c0,0,0,0.1,0,0.1c0,0,0,0,0,0
						c0,0,0,0.1,0,0.1c0,0,0,0,0,0c0,0,0,0.1,0.1,0.1c0,0,0,0.1,0,0.1c0,0,0,0,0,0c0,0,0,0.1,0,0.1c0,0,0,0,0,0c0,0,0,0,0,0.1
						c0,0,0,0,0,0c0,0,0,0,0,0.1c0,0,0,0,0,0c0,0,0,0,0,0.1c0,0,0,0,0,0c0,0,0,0,0,0.1c0,0,0,0,0,0c0,0,0,0,0.1,0.1c0,0,0,0,0,0
						c0,0,0,0,0,0c0,0,0,0,0,0c0,0,0,0,0,0.1c0,0,0,0,0,0c0,0,0,0,0.1,0.1c0,0,0,0,0,0c0,0,0,0,0,0c0,0,0,0,0,0c0,0,0,0,0,0
						c0,0,0,0,0,0c0,0,0,0,0.1,0.1c0,0,0,0,0,0c0,0,0,0,0.1,0c0,0,0,0,0,0c0,0,0,0,0.1,0c0,0,0,0,0,0c0,0,0,0,0.1,0l0,0l-25-14.6
						c0,0-0.1,0-0.1,0c0,0,0,0,0,0c0,0,0,0-0.1,0c0,0,0,0,0,0c0,0,0,0-0.1,0c0,0,0,0,0,0c0,0,0,0-0.1-0.1c0,0,0,0,0,0c0,0,0,0-0.1,0
						c0,0,0,0,0,0c0,0,0,0,0,0c0,0,0,0,0,0c0,0,0,0-0.1-0.1c0,0,0,0,0,0c0,0,0,0,0-0.1c0,0,0,0,0,0c0,0,0,0,0-0.1c0,0,0,0,0,0
						c0,0,0,0-0.1-0.1c0,0,0,0,0,0c0,0,0,0,0-0.1c0,0,0,0,0,0c0,0,0,0,0-0.1c0,0,0,0,0,0c0,0,0,0,0,0c0,0,0,0,0,0c0,0,0,0,0,0
						c0,0,0,0,0-0.1c0,0,0,0,0,0c0,0,0-0.1,0-0.1c0,0,0,0,0,0c0,0,0,0,0-0.1c0,0,0,0,0,0c0,0,0-0.1-0.1-0.1c0,0,0,0,0,0
						c0,0,0-0.1,0-0.1c0,0,0,0,0,0c0,0,0,0,0,0c0,0,0-0.1,0-0.1c0,0,0,0,0,0c0,0,0-0.1,0-0.1c0,0,0,0,0,0c0,0,0,0,0,0
						c0,0,0-0.1,0-0.1c0,0,0,0,0,0c0,0,0-0.1,0-0.1v0c0,0,0-0.1,0-0.1c0,0,0,0,0,0c0,0,0-0.1,0-0.1c0,0,0,0,0,0v0c0,0,0-0.1,0-0.1
						c0,0,0,0,0,0c0,0,0,0,0-0.1c0,0,0,0,0,0c0,0,0,0,0,0c0,0,0-0.1,0-0.1c0,0,0,0,0-0.1c0,0,0,0,0,0c0,0,0,0,0,0c0,0,0,0,0,0
						c0,0,0-0.1,0-0.1c0,0,0,0,0,0v0c0,0,0-0.1,0-0.1c0,0,0,0,0,0c0-0.1,0-0.1,0-0.1v0C1083,916.8,1083,916.7,1083,916.7z"/>
					<g>
						<path class="st29" d="M1112.9,922.8c-2.7,1.6-5,5.4-4.9,8.6c0,3.1,2.2,4.4,5,2.8l3-1.8c2.7-1.6,5-5.4,4.9-8.6
							c0-3.1-2.2-4.4-5-2.8L1112.9,922.8z"/>
					</g>
				</g>
				<g>
					<path class="st46" d="M1197.7,972.6c-1,0.6-1.9,2-2,3.2c0,0.1,0,0.1,0,0.2c0,1.3,0.9,1.8,2,1.1c1.1-0.6,2-2.2,2-3.5
						c0-0.1,0-0.1,0-0.2C1199.6,972.4,1198.7,972,1197.7,972.6z"/>
				</g>
				<g>
					<path class="st46" d="M1202.5,969.8c-1,0.6-1.9,2-2,3.2c0,0.1,0,0.1,0,0.2c0,1.3,0.9,1.8,2,1.1c1.1-0.6,2-2.2,2-3.5
						c0-0.1,0-0.1,0-0.2C1204.4,969.7,1203.6,969.2,1202.5,969.8z"/>
				</g>
				<g>
					<path class="st46" d="M1232.6,953.1c-1,0.6-1.9,2-2,3.2c0,0.1,0,0.1,0,0.2c0,1.3,0.9,1.8,2,1.1c1.1-0.6,2-2.2,2-3.5
						c0-0.1,0-0.1,0-0.2C1234.5,952.9,1233.7,952.5,1232.6,953.1z"/>
				</g>
				<g>
					<path class="st46" d="M1237.5,950.4c-1,0.6-1.9,2-2,3.2c0,0.1,0,0.1,0,0.2c0,1.3,0.9,1.8,2,1.1c1.1-0.6,2-2.2,2-3.5
						c0-0.1,0-0.1,0-0.2C1239.4,950.2,1238.5,949.8,1237.5,950.4z"/>
				</g>
				<path class="st7" d="M1036.6,861.7l6.4-19.8l30.9,17.9l-0.1,32.9v5.9l-13-7.5c-1.8-1.9-3.8-3.6-5.9-4.8
					c-7.3-4.2-13.3-1.6-14.6,5.6l-3.9-2.2L1036.6,861.7z"/>
				<polygon class="st30" points="1194.5,962.4 1194.4,980.9 1187.3,976.7 1187.3,964.1 1073.9,898.6 1073.9,892.6 				"/>
				<path class="st6" d="M1084.8,889.9C1084.8,889.8,1084.8,889.8,1084.8,889.9c-0.2-0.1-0.3-0.2-0.3-0.2c0,0-0.1,0-0.1-0.1
					c-0.1-0.1-0.2-0.1-0.3-0.2c0,0,0,0-0.1,0c-0.1-0.1-0.2-0.2-0.3-0.2c0,0-0.1,0-0.1-0.1c-0.1-0.1-0.1-0.1-0.2-0.2
					c0,0-0.1-0.1-0.1-0.1c-0.1-0.1-0.1-0.1-0.2-0.2c0,0,0,0-0.1-0.1c-0.1-0.1-0.2-0.2-0.3-0.3c0,0,0,0-0.1-0.1
					c-0.1-0.1-0.1-0.2-0.2-0.2c0,0-0.1-0.1-0.1-0.1c-0.1-0.1-0.1-0.1-0.2-0.2c0,0-0.1-0.1-0.1-0.1c-0.1-0.1-0.2-0.2-0.2-0.3
					c0,0,0,0,0,0c-0.1-0.1-0.1-0.2-0.2-0.3c0,0,0-0.1-0.1-0.1c-0.1-0.1-0.1-0.2-0.2-0.2c0,0,0-0.1-0.1-0.1c0,0,0,0,0-0.1
					c0-0.1-0.1-0.1-0.1-0.2c0,0-0.1-0.1-0.1-0.1c-0.1-0.1-0.1-0.2-0.2-0.3c0,0,0-0.1-0.1-0.1c-0.1-0.1-0.1-0.3-0.2-0.4
					c0,0,0-0.1,0-0.1c-0.1-0.1-0.1-0.2-0.2-0.3c0,0,0,0,0,0c-0.1-0.2-0.2-0.4-0.2-0.5c0,0,0-0.1-0.1-0.1c-0.1-0.1-0.1-0.3-0.2-0.4
					c0,0,0-0.1,0-0.1c0,0,0-0.1,0-0.1c0-0.1-0.1-0.2-0.1-0.3c0-0.1,0-0.1-0.1-0.2c0-0.1-0.1-0.3-0.1-0.4c0,0,0-0.1,0-0.1
					c0,0,0,0,0,0c0-0.1-0.1-0.3-0.1-0.5c0,0,0-0.1,0-0.1c0-0.2-0.1-0.4-0.1-0.5l0,0c0-0.1,0-0.2-0.1-0.3c0-0.1,0-0.1,0-0.2
					c0-0.1-0.1-0.3-0.1-0.5c0,0,0-0.1,0-0.1l0,0c0-0.2-0.1-0.4-0.1-0.5c0-0.1,0-0.1,0-0.2c0-0.1,0-0.2,0-0.3c0,0,0,0,0-0.1
					c0-0.1,0-0.1,0-0.2c0-0.1,0-0.2,0-0.4c0-0.1,0-0.1,0-0.2c0-0.1,0-0.1,0-0.2c0,0,0-0.1,0-0.1c0-0.1,0-0.1,0-0.2
					c0-0.1,0-0.2,0-0.4c0-0.1,0-0.1,0-0.2c0,0,0-0.1,0-0.1c0-0.1,0-0.2,0-0.4c0,0,0-0.1,0-0.1c0-0.2,0-0.4,0-0.5c0,0,0,0,0-0.1
					c0-0.2,0-0.4,0-0.6c0-0.1,0-0.1,0-0.2c0-0.1,0-0.1,0-0.2c0-0.1,0-0.1,0-0.2c0-0.1,0-0.1,0-0.2c0-0.2,0-0.3,0-0.5
					c0,0,0-0.1,0-0.1c0,0,0,0,0,0c0-0.2,0-0.4,0-0.6c0-0.1,0-0.1,0-0.2c0-0.1,0-0.2,0-0.3c0,0,0-0.1,0-0.1c0-0.1,0-0.1,0-0.2
					c0-0.1,0-0.3,0-0.4c0-0.1,0-0.1,0-0.2c0,0,0-0.1,0-0.1c0-0.1,0-0.3,0.1-0.4c0,0,0-0.1,0-0.1c0-0.2,0.1-0.4,0.1-0.6c0,0,0,0,0,0
					c0-0.1,0-0.1,0-0.2c0-0.2,0.1-0.3,0.1-0.5c0-0.1,0-0.1,0-0.2c0-0.1,0-0.1,0-0.2c0-0.1,0-0.1,0-0.2c0-0.1,0-0.2,0-0.2
					c0-0.1,0.1-0.3,0.1-0.4c0-0.1,0-0.1,0-0.2c0,0,0,0,0-0.1c0-0.2,0.1-0.3,0.1-0.5c0,0,0,0,0-0.1c0-0.2,0.1-0.4,0.1-0.6
					c0,0,0,0,0-0.1c0-0.1,0-0.1,0.1-0.2c0-0.1,0.1-0.3,0.1-0.4c0-0.1,0-0.2,0.1-0.2c0-0.1,0-0.1,0.1-0.2c0-0.1,0-0.1,0-0.2
					c0-0.1,0-0.2,0.1-0.2c0-0.1,0.1-0.3,0.1-0.4c0-0.1,0-0.2,0.1-0.2c0,0,0-0.1,0-0.1c0-0.1,0.1-0.3,0.1-0.4c0,0,0-0.1,0-0.1
					c0.1-0.2,0.1-0.3,0.2-0.5l109.6,63.3c0,0,0,0,0,0.1c0,0.1,0,0.1-0.1,0.2c-0.1,0.2-0.1,0.4-0.2,0.6c0,0,0,0.1,0,0.1
					c-0.1,0.2-0.1,0.3-0.2,0.5c0,0.1,0,0.2-0.1,0.2c0,0.1-0.1,0.3-0.1,0.4c0,0.1,0,0.2-0.1,0.2c0,0.1-0.1,0.3-0.1,0.4
					c0,0.1,0,0.2-0.1,0.2c0,0.1-0.1,0.3-0.1,0.4c0,0.1,0,0.1-0.1,0.2c-0.1,0.2-0.1,0.4-0.2,0.6c0,0,0,0,0,0.1c0,0.2-0.1,0.4-0.1,0.6
					c0,0.1,0,0.1,0,0.2c0,0.1-0.1,0.3-0.1,0.4c0,0.1,0,0.2,0,0.2c0,0.1-0.1,0.3-0.1,0.4c0,0.1,0,0.1,0,0.2c0,0.2-0.1,0.3-0.1,0.5
					c0,0.1,0,0.1,0,0.2c0,0.2-0.1,0.4-0.1,0.6c0,0,0,0.1,0,0.1c0,0.2,0,0.3-0.1,0.5c0,0.1,0,0.1,0,0.2c0,0.1,0,0.3,0,0.4
					c0,0.1,0,0.1,0,0.2c0,0.2,0,0.3,0,0.5c0,0.1,0,0.1,0,0.2c0,0.2,0,0.4,0,0.6c0,0,0,0.1,0,0.1c0,0.2,0,0.3,0,0.5
					c0,0.1,0,0.1,0,0.2c0,0.1,0,0.3,0,0.4c0,0.1,0,0.1,0,0.2c0,0.2,0,0.4,0,0.6c0,0.2,0,0.4,0,0.6c0,0,0,0.1,0,0.1
					c0,0.1,0,0.3,0,0.4c0,0.1,0,0.1,0,0.2c0,0.1,0,0.2,0,0.4c0,0.1,0,0.1,0,0.2c0,0.1,0,0.2,0,0.3c0,0.1,0,0.2,0,0.2
					c0,0.1,0,0.2,0,0.4c0,0.1,0,0.1,0,0.2c0,0.1,0,0.3,0,0.4c0,0.1,0,0.1,0,0.2c0,0.2,0.1,0.4,0.1,0.5c0,0,0,0.1,0,0.1
					c0,0.1,0.1,0.3,0.1,0.4c0,0.1,0,0.1,0,0.2c0,0.1,0,0.2,0.1,0.3c0,0.2,0.1,0.4,0.1,0.5c0,0,0,0,0,0.1c0,0.2,0.1,0.3,0.1,0.5
					c0,0,0,0.1,0,0.1c0,0.1,0.1,0.3,0.1,0.4c0,0.1,0,0.1,0.1,0.2c0,0.1,0.1,0.2,0.1,0.3c0,0.1,0,0.1,0.1,0.2
					c0.1,0.1,0.1,0.3,0.2,0.4c0,0,0,0.1,0.1,0.1c0.1,0.2,0.2,0.4,0.2,0.5c0.1,0.1,0.1,0.2,0.2,0.3c0,0,0,0,0,0.1
					c0.1,0.1,0.1,0.3,0.2,0.4c0,0,0,0.1,0.1,0.1c0.1,0.1,0.1,0.2,0.2,0.3c0,0,0.1,0.1,0.1,0.1c0,0.1,0.1,0.2,0.1,0.2
					c0,0,0,0.1,0.1,0.1c0.1,0.1,0.1,0.2,0.2,0.2c0,0,0,0.1,0.1,0.1c0.1,0.1,0.1,0.2,0.2,0.3c0,0,0,0,0,0c0.1,0.1,0.2,0.2,0.2,0.3
					c0,0,0,0.1,0.1,0.1c0.1,0.1,0.1,0.1,0.2,0.2c0,0,0.1,0.1,0.1,0.1c0.1,0.1,0.1,0.2,0.2,0.2c0,0,0,0,0.1,0.1
					c0.1,0.1,0.2,0.2,0.3,0.3c0,0,0,0,0.1,0.1c0.1,0.1,0.1,0.1,0.2,0.2c0,0,0.1,0.1,0.1,0.1c0.1,0.1,0.1,0.1,0.2,0.2
					c0,0,0.1,0,0.1,0.1c0.1,0.1,0.2,0.2,0.3,0.2c0,0,0,0,0.1,0c0.1,0.1,0.2,0.1,0.3,0.2c0,0,0.1,0,0.1,0.1c0.1,0.1,0.2,0.1,0.2,0.2
					c0,0,0.1,0,0.1,0.1c0.1,0.1,0.2,0.1,0.3,0.2l0,0l-109.4-63.7C1085.1,890,1085,889.9,1084.8,889.9z"/>
				<g>
					<path class="st32" d="M1044.1,846.8c-0.2-0.1-0.4-0.1-0.5,0.1l-3.3,12.3c-0.1,0.3,0.1,0.9,0.5,1.1l18,10.4
						c0.3,0.2,0.5,0,0.5-0.3l0-14.2c0-0.3-0.2-0.7-0.5-0.9L1044.1,846.8z"/>
				</g>
			</g>
			<g>
				<path class="st47" d="M1053.3,837.8c1.5,0,2.8,0.7,2.8,1.3v4.2c0,0.5-1.2,1-2.8,1c-1.5,0-2.8-0.4-2.8-1v-4.2
					C1050.6,838.6,1051.8,837.8,1053.3,837.8z"/>
				<path class="st45" d="M1053.3,843.1c1.5,0,2.8-0.4,2.8-1v1.1c0,0.5-1.2,1-2.8,1c-1.5,0-2.8-0.4-2.8-1v-1.1
					C1050.6,842.7,1051.8,843.1,1053.3,843.1z"/>
				<path class="st48" d="M1056.1,839c-0.1,0.5-1.3,0.9-2.8,0.9c-1.5,0-2.7-0.4-2.8-0.9c0.1-0.5,1.3-1.2,2.8-1.2
					C1054.8,837.8,1056,838.5,1056.1,839z"/>
			</g>
			<g>
				<path class="st47" d="M1090.2,816c1.5,0,2.8,0.7,2.8,1.3v4.2c0,0.5-1.2,1-2.8,1c-1.5,0-2.8-0.4-2.8-1v-4.2
					C1087.4,816.8,1088.7,816,1090.2,816z"/>
				<path class="st45" d="M1090.2,821.4c1.5,0,2.8-0.4,2.8-1v1.1c0,0.5-1.2,1-2.8,1c-1.5,0-2.8-0.4-2.8-1v-1.1
					C1087.4,820.9,1088.7,821.4,1090.2,821.4z"/>
				<path class="st48" d="M1093,817.3c-0.1,0.5-1.3,0.9-2.8,0.9c-1.5,0-2.7-0.4-2.8-0.9c0.1-0.5,1.3-1.2,2.8-1.2
					C1091.7,816,1092.9,816.7,1093,817.3z"/>
			</g>
		</g>
	</g>
	<g>
		<polygon class="st15" points="646.6,810.3 734,861.2 666.3,869.5 578.7,818.5 		"/>
		<polygon class="st7" points="578.7,818.5 578.7,849.5 666.3,900.6 666.3,869.5 		"/>
		<polygon class="st11" points="666.3,869.5 666.3,900.6 734,861.2 		"/>
	</g>
	<g>
		<polygon class="st15" points="768.4,739.1 855.9,790 788.2,798.4 700.5,747.3 		"/>
		<polygon class="st7" points="700.5,747.3 700.5,778.4 788.2,829.4 788.2,798.4 		"/>
		<polygon class="st11" points="788.2,798.4 788.2,829.4 855.9,790 		"/>
	</g>
	<g>
		<polygon class="st15" points="890.3,668 977.8,718.9 910.1,727.2 822.4,676.2 		"/>
		<polygon class="st7" points="822.4,676.2 822.4,707.3 910.1,758.3 910.1,727.2 		"/>
		<polygon class="st11" points="910.1,727.2 910.1,758.3 977.8,718.9 		"/>
	</g>
	<polygon class="st14" points="1113.2,779.3 1113.2,748.8 1002.9,812.5 1002.9,843.5 	"/>
	<polygon class="st49" points="1057.8,602.3 1048.8,597.1 1007,621.4 1016,626.6 	"/>
	<polygon class="st49" points="1039.7,591.9 1030.7,586.6 988.9,610.9 998,616.2 	"/>
	<polygon class="st49" points="1021.6,581.4 1012.6,576.2 970.8,600.5 979.9,605.7 	"/>
	<polygon class="st49" points="1003.6,571 994.5,565.8 952.7,590.1 961.8,595.3 	"/>
	<polygon class="st49" points="985.5,560.5 976.4,555.3 934.7,579.6 943.7,584.8 	"/>
	<polygon class="st49" points="967.4,550.1 958.3,544.9 916.6,569.2 925.6,574.4 	"/>
	<polygon class="st49" points="949.3,539.7 940.2,534.4 898.5,558.7 907.5,564 	"/>
	<polygon class="st49" points="931.2,529.2 922.2,524 880.4,548.3 889.4,553.5 	"/>
	<polygon class="st49" points="913.1,518.8 904.1,513.5 862.3,537.8 871.3,543.1 	"/>
	<polygon class="st49" points="895,508.3 886,503.1 844.2,527.4 853.2,532.6 	"/>
	<polygon class="st49" points="876.9,497.9 867.9,492.7 826.1,517 835.2,522.2 	"/>
	<polygon class="st49" points="858.8,487.4 849.8,482.2 808,506.5 817.1,511.8 	"/>
	<polygon class="st49" points="840.8,477 831.7,471.8 789.9,496.1 799,501.3 	"/>
	<polygon class="st49" points="822.7,466.6 813.6,461.3 771.9,485.6 780.9,490.9 	"/>
	<polygon class="st49" points="804.6,456.1 795.5,450.9 753.8,475.2 762.8,480.4 	"/>
</g>
</svg>
