<?xml version="1.0" encoding="utf-8"?>
<!-- Generator: Adobe Illustrator 21.1.0, SVG Export Plug-In . SVG Version: 6.00 Build 0)  -->
<svg version="1.1" id="Layer_1" xmlns="http://www.w3.org/2000/svg" xmlns:xlink="http://www.w3.org/1999/xlink" x="0px" y="0px"
	 viewBox="0 0 225 60" style="enable-background:new 0 0 225 60;" xml:space="preserve">
<style type="text/css">
	.st0{enable-background:new    ;}
</style>
<g class="st0">
	<path d="M85.89,52.56V9.25h9.06v43.31H85.89z"/>
	<path d="M139.95,52.56V23.33h-0.24l-11.77,28.81h-5.7l-11.77-28.81h-0.24v29.23h-8.07V9.25h10.5l12.31,30.71h0.24l12.31-30.71h10.5
		v43.31H139.95z"/>
	<path d="M183.92,52.56h-28.69V9.25h28.69v7.47h-19.63v10.45h18.52v6.96h-18.52v10.92h19.63V52.56z"/>
	<path d="M197.57,40.23c0.42,3.57,4.14,5.91,8.94,5.91c4.83,0,8.13-2.31,8.13-5.49c0-2.82-2.07-4.38-7.29-5.55l-5.64-1.23
		c-7.98-1.71-11.92-5.76-11.92-12.09c0-7.98,6.9-13.27,16.57-13.27c10.08,0,16.42,5.19,16.57,13.03h-8.49
		c-0.3-3.66-3.51-5.88-8.04-5.88c-4.47,0-7.47,2.13-7.47,5.34c0,2.67,2.1,4.17,7.08,5.31l5.25,1.11
		c8.67,1.86,12.46,5.58,12.46,12.19c0,8.4-6.81,13.72-17.56,13.72c-10.42,0-17.05-4.95-17.32-13.09H197.57z"/>
</g>
<g>
	<rect x="30.1" y="46" width="2.9" height="5.8"/>
	<path d="M62.7,58.6v-30l-14.2,7.1l-2-35.8h-10l-2,32.7l-6.3,3.1L26.2,9h-9.9l-2.1,23.6L0,39.7v18.8l0,0v2h62.7 M38.3,1.9h6.2
		L44.7,4h-6.5L38.3,1.9z M38.1,5.4h6.6l1.7,31.3l-4.1,2V28.6l-6,3L38.1,5.4z M18.1,11h6.3l0.2,2.1H18L18.1,11z M17.5,14.8h7.1
		l1.6,21.9l-4,2V28.6l-5.9,3L17.5,14.8z M6.1,58.6H2v-2.1h4.1V58.6z M24.3,58.6H8v-7.1h16.2v7.1H24.3z M60.7,58.6H26.3v-2.1h34.4
		V58.6z M60.7,54.5H26.3v-5.1H6.1v5.1H2V41l18.2-9.1V42l20.2-10.1V42l20.2-10.1v22.6H60.7z"/>
	<rect x="35.9" y="46" width="2.9" height="5.8"/>
	<rect x="41.7" y="46" width="2.9" height="5.8"/>
	<rect x="47.5" y="46" width="2.9" height="5.8"/>
	<rect x="53.3" y="46" width="2.9" height="5.8"/>
</g>
</svg>
