<?xml version="1.0" encoding="utf-8"?>
<!-- Generator: Adobe Illustrator 21.1.0, SVG Export Plug-In . SVG Version: 6.00 Build 0)  -->
<svg version="1.1" id="Layer_1" xmlns="http://www.w3.org/2000/svg" xmlns:xlink="http://www.w3.org/1999/xlink" x="0px" y="0px"
	 viewBox="0 0 225 60" style="enable-background:new 0 0 225 60;" xml:space="preserve">
<style type="text/css">
	.st0{font-family:'SFProDisplay-Bold';}
	.st1{font-size:61.4678px;}
</style>
<text transform="matrix(1 0 0 1 82.291 52.5625)" class="st0 st1">IMES</text>
<g>
	<rect x="30.1" y="46" width="2.9" height="5.8"/>
	<path d="M62.7,58.6V28.6l-14.2,7.1l-2-35.8h-10l-2,32.7l-6.3,3.1L26.2,9h-9.9l-2.1,23.6L0,39.7v18.8l0,0v2h62.7 M38.3,1.9h6.2
		L44.7,4h-6.5L38.3,1.9z M38.1,5.4l6.6,0l1.7,31.3l-4.1,2V28.6l-6,3L38.1,5.4z M18.1,11h6.3l0.2,2.1h-6.6L18.1,11z M17.5,14.8l7.1,0
		l1.6,21.9l-4,2V28.6l-5.9,3L17.5,14.8z M6.1,58.6H2v-2.1h4.1V58.6z M24.3,58.6H8v-7.1h16.2V58.6z M60.7,58.6H26.3v-2.1h34.4V58.6z
		 M60.7,54.5H26.3v-5.1H6.1v5.1H2V41l18.2-9.1V42l20.2-10.1V42l20.2-10.1V54.5z M60.7,54.5"/>
	<rect x="35.9" y="46" width="2.9" height="5.8"/>
	<rect x="41.7" y="46" width="2.9" height="5.8"/>
	<rect x="47.5" y="46" width="2.9" height="5.8"/>
	<rect x="53.3" y="46" width="2.9" height="5.8"/>
</g>
</svg>
