<?xml version="1.0" encoding="utf-8"?>
<!-- Generator: Adobe Illustrator 21.1.0, SVG Export Plug-In . SVG Version: 6.00 Build 0)  -->
<svg version="1.1" id="Layer_1" xmlns="http://www.w3.org/2000/svg" xmlns:xlink="http://www.w3.org/1999/xlink" x="0px" y="0px"
	 viewBox="0 0 211.3 60" style="enable-background:new 0 0 211.3 60;" xml:space="preserve">
<style type="text/css">
	.st0{font-family:'SFProDisplay-Bold';}
	.st1{font-size:61.4678px;}
</style>
<g>
	<rect x="7" y="46" width="20" height="2"/>
	<rect x="31" y="46" width="2" height="6"/>
	<rect x="37" y="46" width="2" height="6"/>
	<rect x="43.1" y="46" width="2" height="6"/>
	<rect x="49.1" y="46" width="2" height="6"/>
	<rect x="55.1" y="46" width="2" height="6"/>
	<path d="M63,58V28.4l-14.1,7L47,0h-9.9l-2,32.4l-6.2,3.1L26.9,9h-9.8l-2,23.4L1,39.4V58H0v2h64v-2H63z M38.9,2h6.2l0.1,2h-6.4
		L38.9,2z M38.7,6h6.6l0.1,2h-6.9L38.7,6z M38.4,10h7.1L47,36.4l-4,2v-10l-5.9,3L38.4,10z M18.9,11h6.2l0.2,2h-6.5L18.9,11z
		 M18.6,15h6.8l0.2,2h-7.2L18.6,15z M18.2,19h7.5L27,36.4l-4,2v-10l-5.9,2.9L18.2,19z M7,58H3v-2h4V58z M25,58H9v-7H25V58z M61.1,58
		H27v-2h34.1V58z M61.1,54H27v-5H7v5H3V40.6l18.1-9v10l20-10v10l20-10V54z M61.1,54"/>
</g>
<text transform="matrix(1 0 0 1 69.291 52.5625)" class="st0 st1">IMES</text>
</svg>
